Casino.ufo
<glyph name="exclam" format="2">
  <advance width="215"/>
  <unicode hex="0021"/>
  <outline>
    <contour>
      <point x="173" y="275" type="line" smooth="yes"/>
      <point x="173" y="212"/>
      <point x="195" y="194" type="qcurve" smooth="yes"/>
      <point x="198" y="191"/>
      <point x="196" y="186"/>
      <point x="192" y="186" type="qcurve" smooth="yes"/>
      <point x="20" y="186" type="line" smooth="yes"/>
      <point x="16" y="186"/>
      <point x="14" y="191"/>
      <point x="17" y="194" type="qcurve" smooth="yes"/>
      <point x="39" y="212"/>
      <point x="39" y="275" type="qcurve" smooth="yes"/>
      <point x="39" y="594" type="line" smooth="yes"/>
      <point x="39" y="656"/>
      <point x="17" y="675" type="qcurve" smooth="yes"/>
      <point x="14" y="677"/>
      <point x="16" y="683"/>
      <point x="20" y="683" type="qcurve" smooth="yes"/>
      <point x="192" y="683" type="line" smooth="yes"/>
      <point x="196" y="683"/>
      <point x="198" y="677"/>
      <point x="195" y="675" type="qcurve" smooth="yes"/>
      <point x="173" y="656"/>
      <point x="173" y="594" type="qcurve" smooth="yes"/>
    </contour>
    <contour>
      <point x="103" y="133" type="qcurve" smooth="yes"/>
      <point x="131" y="133"/>
      <point x="170" y="94"/>
      <point x="170" y="67" type="qcurve" smooth="yes"/>
      <point x="170" y="38"/>
      <point x="131" y="0"/>
      <point x="103" y="0" type="qcurve" smooth="yes"/>
      <point x="75" y="0"/>
      <point x="36" y="38"/>
      <point x="36" y="67" type="qcurve" smooth="yes"/>
      <point x="36" y="94"/>
      <point x="75" y="133"/>
    </contour>
  </outline>
</glyph>
<glyph name="quotedbl" format="2">
  <advance width="395"/>
  <unicode hex="0022"/>
  <outline>
    <contour>
      <point x="189" y="683" type="line"/>
      <point x="128" y="441" type="line"/>
      <point x="128" y="439" type="line"/>
      <point x="32" y="440" type="line"/>
      <point x="31" y="683" type="line"/>
    </contour>
    <contour>
      <point x="366" y="683" type="line"/>
      <point x="305" y="441" type="line"/>
      <point x="305" y="439" type="line"/>
      <point x="210" y="440" type="line"/>
      <point x="208" y="683" type="line"/>
    </contour>
  </outline>
</glyph>
<glyph name="numbersign" format="2">
  <advance width="664"/>
  <unicode hex="0023"/>
  <outline>
    <contour>
      <point x="286" y="651" type="line"/>
      <point x="384" y="651" type="line"/>
      <point x="173" y="0" type="line"/>
      <point x="75" y="0" type="line"/>
    </contour>
    <contour>
      <point x="498" y="651" type="line"/>
      <point x="596" y="651" type="line"/>
      <point x="385" y="0" type="line"/>
      <point x="287" y="0" type="line"/>
    </contour>
    <contour>
      <point x="22" y="161" type="line"/>
      <point x="53" y="259" type="line"/>
      <point x="582" y="259" type="line"/>
      <point x="550" y="161" type="line"/>
    </contour>
    <contour>
      <point x="90" y="373" type="line"/>
      <point x="122" y="471" type="line"/>
      <point x="651" y="471" type="line"/>
      <point x="619" y="373" type="line"/>
    </contour>
  </outline>
</glyph>
<glyph name="dollar" format="2">
  <advance width="544"/>
  <unicode hex="0024"/>
  <outline>
    <contour>
      <point x="326" y="-58" type="line"/>
      <point x="222" y="-58" type="line"/>
      <point x="222" y="0" type="line"/>
      <point x="183" y="1"/>
      <point x="147" y="16" type="qcurve" smooth="yes"/>
      <point x="110" y="32"/>
      <point x="55" y="87"/>
      <point x="23" y="162"/>
      <point x="23" y="204" type="qcurve"/>
      <point x="178" y="204" type="line" smooth="yes"/>
      <point x="186" y="204"/>
      <point x="183" y="198" type="qcurve" smooth="yes"/>
      <point x="172" y="178"/>
      <point x="190" y="148"/>
      <point x="200" y="142" type="qcurve"/>
      <point x="213" y="136"/>
      <point x="227" y="136" type="qcurve" smooth="yes"/>
      <point x="318" y="136" type="line" smooth="yes"/>
      <point x="347" y="136"/>
      <point x="387" y="176"/>
      <point x="387" y="204" type="qcurve" smooth="yes"/>
      <point x="387" y="233"/>
      <point x="347" y="273"/>
      <point x="318" y="273" type="qcurve" smooth="yes"/>
      <point x="227" y="273" type="line" smooth="yes"/>
      <point x="185" y="273"/>
      <point x="110" y="305"/>
      <point x="55" y="361"/>
      <point x="23" y="436"/>
      <point x="23" y="478" type="qcurve" smooth="yes"/>
      <point x="23" y="520"/>
      <point x="55" y="595"/>
      <point x="110" y="651"/>
      <point x="147" y="667" type="qcurve" smooth="yes"/>
      <point x="183" y="682"/>
      <point x="222" y="683" type="qcurve"/>
      <point x="222" y="745" type="line"/>
      <point x="326" y="745" type="line"/>
      <point x="326" y="683" type="line"/>
      <point x="364" y="681"/>
      <point x="398" y="667" type="qcurve" smooth="yes"/>
      <point x="435" y="651"/>
      <point x="491" y="595"/>
      <point x="523" y="520"/>
      <point x="523" y="478" type="qcurve"/>
      <point x="367" y="478" type="line" smooth="yes"/>
      <point x="359" y="478"/>
      <point x="363" y="484" type="qcurve" smooth="yes"/>
      <point x="373" y="503"/>
      <point x="356" y="535"/>
      <point x="346" y="540" type="qcurve" smooth="yes"/>
      <point x="332" y="546"/>
      <point x="318" y="546" type="qcurve" smooth="yes"/>
      <point x="227" y="546" type="line" smooth="yes"/>
      <point x="199" y="546"/>
      <point x="159" y="506"/>
      <point x="159" y="478" type="qcurve" smooth="yes"/>
      <point x="159" y="449"/>
      <point x="199" y="409"/>
      <point x="227" y="409" type="qcurve" smooth="yes"/>
      <point x="318" y="409" type="line" smooth="yes"/>
      <point x="361" y="409"/>
      <point x="435" y="377"/>
      <point x="491" y="321"/>
      <point x="523" y="247"/>
      <point x="523" y="204" type="qcurve" smooth="yes"/>
      <point x="523" y="162"/>
      <point x="491" y="87"/>
      <point x="435" y="32"/>
      <point x="398" y="16" type="qcurve" smooth="yes"/>
      <point x="364" y="1"/>
      <point x="326" y="0" type="qcurve"/>
    </contour>
  </outline>
</glyph>
<glyph name="percent" format="2">
  <advance width="563"/>
  <unicode hex="0025"/>
  <outline>
    <contour>
      <point x="150" y="0" type="line"/>
      <point x="31" y="0" type="line"/>
      <point x="419" y="683" type="line"/>
      <point x="538" y="683" type="line"/>
    </contour>
    <contour>
      <point x="151" y="683" type="line" smooth="yes"/>
      <point x="175" y="683"/>
      <point x="218" y="664"/>
      <point x="250" y="631"/>
      <point x="268" y="587"/>
      <point x="268" y="562" type="qcurve" smooth="yes"/>
      <point x="268" y="507" type="line" smooth="yes"/>
      <point x="268" y="481"/>
      <point x="250" y="438"/>
      <point x="218" y="405"/>
      <point x="175" y="387"/>
      <point x="151" y="387" type="qcurve" smooth="yes"/>
      <point x="137" y="387" type="line" smooth="yes"/>
      <point x="113" y="387"/>
      <point x="70" y="405"/>
      <point x="38" y="438"/>
      <point x="20" y="481"/>
      <point x="20" y="507" type="qcurve" smooth="yes"/>
      <point x="20" y="562" type="line" smooth="yes"/>
      <point x="20" y="587"/>
      <point x="38" y="631"/>
      <point x="70" y="664"/>
      <point x="113" y="683"/>
      <point x="137" y="683" type="qcurve" smooth="yes"/>
    </contour>
    <contour>
      <point x="151" y="476" type="line" smooth="yes"/>
      <point x="164" y="476"/>
      <point x="182" y="493"/>
      <point x="182" y="507" type="qcurve" smooth="yes"/>
      <point x="182" y="562" type="line" smooth="yes"/>
      <point x="182" y="575"/>
      <point x="164" y="592"/>
      <point x="151" y="592" type="qcurve" smooth="yes"/>
      <point x="137" y="592" type="line" smooth="yes"/>
      <point x="124" y="592"/>
      <point x="106" y="574"/>
      <point x="106" y="562" type="qcurve" smooth="yes"/>
      <point x="106" y="507" type="line" smooth="yes"/>
      <point x="106" y="493"/>
      <point x="124" y="476"/>
      <point x="137" y="476" type="qcurve" smooth="yes"/>
    </contour>
    <contour>
      <point x="420" y="296" type="line" smooth="yes"/>
      <point x="444" y="296"/>
      <point x="487" y="277"/>
      <point x="519" y="244"/>
      <point x="537" y="200"/>
      <point x="537" y="175" type="qcurve" smooth="yes"/>
      <point x="537" y="120" type="line" smooth="yes"/>
      <point x="537" y="94"/>
      <point x="519" y="51"/>
      <point x="487" y="18"/>
      <point x="444" y="0"/>
      <point x="420" y="0" type="qcurve" smooth="yes"/>
      <point x="406" y="0" type="line" smooth="yes"/>
      <point x="382" y="0"/>
      <point x="339" y="18"/>
      <point x="307" y="51"/>
      <point x="289" y="94"/>
      <point x="289" y="120" type="qcurve" smooth="yes"/>
      <point x="289" y="175" type="line" smooth="yes"/>
      <point x="289" y="200"/>
      <point x="307" y="244"/>
      <point x="339" y="277"/>
      <point x="382" y="296"/>
      <point x="406" y="296" type="qcurve" smooth="yes"/>
    </contour>
    <contour>
      <point x="420" y="89" type="line" smooth="yes"/>
      <point x="433" y="89"/>
      <point x="451" y="106"/>
      <point x="451" y="120" type="qcurve" smooth="yes"/>
      <point x="451" y="175" type="line" smooth="yes"/>
      <point x="451" y="188"/>
      <point x="433" y="205"/>
      <point x="420" y="205" type="qcurve" smooth="yes"/>
      <point x="406" y="205" type="line" smooth="yes"/>
      <point x="393" y="205"/>
      <point x="375" y="187"/>
      <point x="375" y="175" type="qcurve" smooth="yes"/>
      <point x="375" y="120" type="line" smooth="yes"/>
      <point x="375" y="106"/>
      <point x="393" y="89"/>
      <point x="406" y="89" type="qcurve" smooth="yes"/>
    </contour>
  </outline>
</glyph>
<glyph name="ampersand" format="2">
  <advance width="533"/>
  <unicode hex="0026"/>
  <outline>
    <contour>
      <point x="347" y="410" type="line"/>
      <point x="347" y="414" type="line" smooth="yes"/>
      <point x="347" y="461"/>
      <point x="325" y="479" type="qcurve"/>
      <point x="317" y="487"/>
      <point x="328" y="487" type="qcurve" smooth="yes"/>
      <point x="503" y="487" type="line" smooth="yes"/>
      <point x="513" y="487"/>
      <point x="507" y="479" type="qcurve"/>
      <point x="484" y="462"/>
      <point x="484" y="414" type="qcurve" smooth="yes"/>
      <point x="484" y="92" type="line" smooth="yes"/>
      <point x="484" y="28"/>
      <point x="507" y="9" type="qcurve" smooth="yes"/>
      <point x="509" y="7"/>
      <point x="508" y="1"/>
      <point x="503" y="1" type="qcurve" smooth="yes"/>
      <point x="223" y="1" type="line" smooth="yes"/>
      <point x="181" y="1"/>
      <point x="106" y="33"/>
      <point x="51" y="89"/>
      <point x="19" y="164"/>
      <point x="19" y="206" type="qcurve" smooth="yes"/>
      <point x="19" y="248"/>
      <point x="35" y="285" type="qcurve" smooth="yes"/>
      <point x="49" y="319"/>
      <point x="72" y="344" type="qcurve"/>
      <point x="52" y="369"/>
      <point x="39" y="399" type="qcurve" smooth="yes"/>
      <point x="23" y="437"/>
      <point x="23" y="479" type="qcurve" smooth="yes"/>
      <point x="23" y="521"/>
      <point x="55" y="596"/>
      <point x="110" y="652"/>
      <point x="185" y="684"/>
      <point x="227" y="684" type="qcurve" smooth="yes"/>
      <point x="401" y="684" type="line"/>
      <point x="400" y="528" type="line"/>
      <point x="400" y="518"/>
      <point x="392" y="524" type="qcurve"/>
      <point x="375" y="547"/>
      <point x="343" y="547" type="qcurve" smooth="yes"/>
      <point x="227" y="547" type="line" smooth="yes"/>
      <point x="199" y="547"/>
      <point x="159" y="507"/>
      <point x="159" y="479" type="qcurve" smooth="yes"/>
      <point x="159" y="450"/>
      <point x="179" y="430" type="qcurve" smooth="yes"/>
      <point x="194" y="415"/>
      <point x="213" y="411" type="qcurve"/>
    </contour>
    <contour>
      <point x="200" y="143" type="qcurve" smooth="yes"/>
      <point x="206" y="140"/>
      <point x="213" y="138" type="qcurve"/>
      <point x="258" y="138" type="line"/>
      <point x="258" y="137" type="line"/>
      <point x="278" y="137" type="line" smooth="yes"/>
      <point x="307" y="137"/>
      <point x="327" y="157" type="qcurve" smooth="yes"/>
      <point x="345" y="175"/>
      <point x="347" y="199" type="qcurve"/>
      <point x="347" y="274" type="line"/>
      <point x="212" y="274" type="line"/>
      <point x="191" y="271"/>
      <point x="175" y="255" type="qcurve" smooth="yes"/>
      <point x="155" y="235"/>
      <point x="155" y="206" type="qcurve" smooth="yes"/>
      <point x="155" y="181"/>
      <point x="171" y="162" type="qcurve"/>
      <point x="190" y="148"/>
    </contour>
  </outline>
</glyph>
<glyph name="quotesingle" format="2">
  <advance width="205"/>
  <unicode hex="0027"/>
  <outline>
    <contour>
      <point x="186" y="683" type="line"/>
      <point x="125" y="441" type="line"/>
      <point x="125" y="439" type="line"/>
      <point x="29" y="440" type="line"/>
      <point x="28" y="683" type="line"/>
    </contour>
  </outline>
</glyph>
<glyph name="parenleft" format="2">
  <advance width="183"/>
  <unicode hex="0028"/>
  <outline>
    <contour>
      <point x="20" y="667" type="line" smooth="yes"/>
      <point x="20" y="710"/>
      <point x="52" y="784"/>
      <point x="108" y="840"/>
      <point x="183" y="872"/>
      <point x="225" y="872" type="qcurve"/>
      <point x="225" y="716" type="line" smooth="yes"/>
      <point x="225" y="708"/>
      <point x="219" y="712" type="qcurve" smooth="yes"/>
      <point x="200" y="722"/>
      <point x="168" y="705"/>
      <point x="163" y="695" type="qcurve" smooth="yes"/>
      <point x="157" y="681"/>
      <point x="157" y="667" type="qcurve" smooth="yes"/>
      <point x="157" y="18" type="line" smooth="yes"/>
      <point x="157" y="4"/>
      <point x="163" y="-10" type="qcurve" smooth="yes"/>
      <point x="168" y="-20"/>
      <point x="200" y="-37"/>
      <point x="219" y="-27" type="qcurve" smooth="yes"/>
      <point x="225" y="-23"/>
      <point x="225" y="-31" type="qcurve" smooth="yes"/>
      <point x="225" y="-187" type="line"/>
      <point x="183" y="-187"/>
      <point x="108" y="-155"/>
      <point x="52" y="-99"/>
      <point x="20" y="-25"/>
      <point x="20" y="18" type="qcurve" smooth="yes"/>
    </contour>
  </outline>
</glyph>
<glyph name="parenright" format="2">
  <advance width="183"/>
  <unicode hex="0029"/>
  <outline>
    <contour>
      <point x="159" y="18" type="line" smooth="yes"/>
      <point x="159" y="-25"/>
      <point x="127" y="-99"/>
      <point x="71" y="-155"/>
      <point x="-4" y="-187"/>
      <point x="-46" y="-187" type="qcurve"/>
      <point x="-46" y="-31" type="line" smooth="yes"/>
      <point x="-46" y="-23"/>
      <point x="-40" y="-27" type="qcurve" smooth="yes"/>
      <point x="-21" y="-37"/>
      <point x="11" y="-20"/>
      <point x="16" y="-10" type="qcurve" smooth="yes"/>
      <point x="22" y="4"/>
      <point x="22" y="18" type="qcurve" smooth="yes"/>
      <point x="22" y="667" type="line" smooth="yes"/>
      <point x="22" y="681"/>
      <point x="16" y="695" type="qcurve" smooth="yes"/>
      <point x="11" y="705"/>
      <point x="-21" y="722"/>
      <point x="-40" y="712" type="qcurve" smooth="yes"/>
      <point x="-46" y="708"/>
      <point x="-46" y="716" type="qcurve" smooth="yes"/>
      <point x="-46" y="872" type="line"/>
      <point x="-4" y="872"/>
      <point x="71" y="840"/>
      <point x="127" y="784"/>
      <point x="159" y="710"/>
      <point x="159" y="667" type="qcurve" smooth="yes"/>
    </contour>
  </outline>
</glyph>
<glyph name="asterisk" format="2">
  <advance width="398"/>
  <unicode hex="002A"/>
  <outline>
    <contour>
      <point x="356" y="582" type="line"/>
      <point x="265" y="517" type="line"/>
      <point x="356" y="451" type="line"/>
      <point x="312" y="389" type="line"/>
      <point x="237" y="442" type="line"/>
      <point x="237" y="349" type="line"/>
      <point x="160" y="349" type="line"/>
      <point x="160" y="442" type="line"/>
      <point x="85" y="389" type="line"/>
      <point x="40" y="451" type="line"/>
      <point x="132" y="517" type="line"/>
      <point x="40" y="582" type="line"/>
      <point x="85" y="645" type="line"/>
      <point x="160" y="591" type="line"/>
      <point x="160" y="683" type="line"/>
      <point x="237" y="683" type="line"/>
      <point x="237" y="591" type="line"/>
      <point x="312" y="645" type="line"/>
    </contour>
  </outline>
</glyph>
<glyph name="plus" format="2">
  <advance width="377"/>
  <unicode hex="002B"/>
  <outline>
    <contour>
      <point x="128" y="503" type="line"/>
      <point x="232" y="503" type="line"/>
      <point x="232" y="392" type="line"/>
      <point x="347" y="392" type="line"/>
      <point x="347" y="288" type="line"/>
      <point x="232" y="288" type="line"/>
      <point x="232" y="182" type="line"/>
      <point x="128" y="182" type="line"/>
      <point x="128" y="288" type="line"/>
      <point x="26" y="288" type="line"/>
      <point x="26" y="392" type="line"/>
      <point x="128" y="392" type="line"/>
    </contour>
  </outline>
</glyph>
<glyph name="comma" format="2">
  <advance width="166"/>
  <unicode hex="002C"/>
  <outline>
    <contour>
      <point x="69" y="129" type="qcurve" smooth="yes"/>
      <point x="87" y="133"/>
      <point x="120" y="123"/>
      <point x="144" y="100"/>
      <point x="154" y="67"/>
      <point x="150" y="49" type="qcurve"/>
      <point x="143" y="3"/>
      <point x="106" y="-63"/>
      <point x="64" y="-86" type="qcurve"/>
      <point x="50" y="-82"/>
      <point x="37" y="-72" type="qcurve" smooth="yes"/>
      <point x="33" y="-69"/>
      <point x="36" y="-66" type="qcurve" smooth="yes"/>
      <point x="49" y="-51"/>
      <point x="58" y="-13"/>
      <point x="36" y="19" type="qcurve"/>
      <point x="23" y="33"/>
      <point x="17" y="68"/>
      <point x="26" y="99"/>
      <point x="51" y="124"/>
    </contour>
  </outline>
</glyph>
<glyph name="hyphen" format="2">
  <advance width="379"/>
  <unicode hex="002D"/>
  <outline>
    <contour>
      <point x="32" y="288" type="line"/>
      <point x="32" y="392" type="line"/>
      <point x="353" y="392" type="line"/>
      <point x="353" y="288" type="line"/>
    </contour>
  </outline>
</glyph>
<glyph name="period" format="2">
  <advance width="167"/>
  <unicode hex="002E"/>
  <outline>
    <contour>
      <point x="83" y="133" type="qcurve" smooth="yes"/>
      <point x="110" y="133"/>
      <point x="150" y="94"/>
      <point x="150" y="67" type="qcurve" smooth="yes"/>
      <point x="150" y="39"/>
      <point x="110" y="0"/>
      <point x="83" y="0" type="qcurve" smooth="yes"/>
      <point x="55" y="0"/>
      <point x="16" y="39"/>
      <point x="16" y="67" type="qcurve" smooth="yes"/>
      <point x="16" y="94"/>
      <point x="55" y="133"/>
    </contour>
  </outline>
</glyph>
<glyph name="slash" format="2">
  <advance width="385"/>
  <unicode hex="002F"/>
  <outline>
    <contour>
      <point x="150" y="0" type="line"/>
      <point x="31" y="0" type="line"/>
      <point x="252" y="683" type="line"/>
      <point x="371" y="683" type="line"/>
    </contour>
  </outline>
</glyph>
<glyph name="one" format="2">
  <advance width="303"/>
  <unicode hex="0031"/>
  <outline>
    <contour>
      <point x="256" y="91" type="line" smooth="yes"/>
      <point x="256" y="28"/>
      <point x="279" y="8" type="qcurve" smooth="yes"/>
      <point x="282" y="6"/>
      <point x="280" y="0"/>
      <point x="276" y="0" type="qcurve" smooth="yes"/>
      <point x="100" y="0" type="line" smooth="yes"/>
      <point x="96" y="0"/>
      <point x="94" y="6"/>
      <point x="97" y="8" type="qcurve" smooth="yes"/>
      <point x="120" y="28"/>
      <point x="120" y="91" type="qcurve" smooth="yes"/>
      <point x="120" y="547" type="line"/>
      <point x="67" y="547" type="line"/>
      <point x="61" y="623"/>
      <point x="16" y="676" type="qcurve" smooth="yes"/>
      <point x="14" y="678"/>
      <point x="15" y="683"/>
      <point x="19" y="683" type="qcurve" smooth="yes"/>
      <point x="276" y="683" type="line" smooth="yes"/>
      <point x="280" y="683"/>
      <point x="282" y="678"/>
      <point x="279" y="675" type="qcurve" smooth="yes"/>
      <point x="256" y="657"/>
      <point x="256" y="592" type="qcurve" smooth="yes"/>
    </contour>
  </outline>
</glyph>
<glyph name="two" format="2">
  <advance width="558"/>
  <unicode hex="0032"/>
  <outline>
    <contour>
      <point x="517" y="159" type="qcurve" smooth="yes"/>
      <point x="520" y="162"/>
      <point x="526" y="160"/>
      <point x="526" y="156" type="qcurve" smooth="yes"/>
      <point x="526" y="0" type="line"/>
      <point x="25" y="0" type="line"/>
      <point x="25" y="164" type="line" smooth="yes"/>
      <point x="25" y="215"/>
      <point x="64" y="305"/>
      <point x="130" y="371"/>
      <point x="220" y="410"/>
      <point x="271" y="410" type="qcurve" smooth="yes"/>
      <point x="321" y="410" type="line" smooth="yes"/>
      <point x="349" y="410"/>
      <point x="389" y="449"/>
      <point x="389" y="478" type="qcurve" smooth="yes"/>
      <point x="389" y="507"/>
      <point x="349" y="546"/>
      <point x="321" y="546" type="qcurve" smooth="yes"/>
      <point x="229" y="546" type="line" smooth="yes"/>
      <point x="215" y="546"/>
      <point x="202" y="540" type="qcurve" smooth="yes"/>
      <point x="192" y="535"/>
      <point x="174" y="504"/>
      <point x="185" y="485" type="qcurve"/>
      <point x="188" y="478"/>
      <point x="181" y="478" type="qcurve" smooth="yes"/>
      <point x="25" y="478" type="line"/>
      <point x="25" y="520"/>
      <point x="57" y="595"/>
      <point x="112" y="651"/>
      <point x="187" y="683"/>
      <point x="229" y="683" type="qcurve" smooth="yes"/>
      <point x="321" y="683" type="line" smooth="yes"/>
      <point x="363" y="683"/>
      <point x="438" y="651"/>
      <point x="494" y="595"/>
      <point x="526" y="520"/>
      <point x="526" y="478" type="qcurve" smooth="yes"/>
      <point x="526" y="436"/>
      <point x="494" y="361"/>
      <point x="438" y="305"/>
      <point x="363" y="273"/>
      <point x="321" y="273" type="qcurve" smooth="yes"/>
      <point x="271" y="273" type="line" smooth="yes"/>
      <point x="248" y="273"/>
      <point x="208" y="256"/>
      <point x="178" y="226"/>
      <point x="161" y="186"/>
      <point x="161" y="164" type="qcurve" smooth="yes"/>
      <point x="161" y="136" type="line"/>
      <point x="434" y="136" type="line" smooth="yes"/>
      <point x="499" y="136"/>
    </contour>
  </outline>
</glyph>
<glyph name="three" format="2">
  <advance width="550"/>
  <unicode hex="0033"/>
  <outline>
    <contour>
      <point x="321" y="683" type="line" smooth="yes"/>
      <point x="365" y="683"/>
      <point x="439" y="651"/>
      <point x="492" y="597"/>
      <point x="524" y="526"/>
      <point x="528" y="450"/>
      <point x="503" y="374"/>
      <point x="473" y="341" type="qcurve"/>
      <point x="501" y="310"/>
      <point x="525" y="246"/>
      <point x="525" y="205" type="qcurve" smooth="yes"/>
      <point x="525" y="163"/>
      <point x="493" y="88"/>
      <point x="437" y="32"/>
      <point x="362" y="0"/>
      <point x="320" y="0" type="qcurve" smooth="yes"/>
      <point x="230" y="0" type="line" smooth="yes"/>
      <point x="187" y="0"/>
      <point x="112" y="32"/>
      <point x="57" y="88"/>
      <point x="25" y="163"/>
      <point x="25" y="205" type="qcurve" smooth="yes"/>
      <point x="25" y="208" type="line"/>
      <point x="184" y="208" type="line" smooth="yes"/>
      <point x="191" y="208"/>
      <point x="188" y="202" type="qcurve" smooth="yes"/>
      <point x="176" y="176"/>
      <point x="202" y="136"/>
      <point x="230" y="136" type="qcurve" smooth="yes"/>
      <point x="321" y="136" type="line"/>
      <point x="349" y="137"/>
      <point x="388" y="176"/>
      <point x="388" y="205" type="qcurve" smooth="yes"/>
      <point x="388" y="233"/>
      <point x="349" y="273"/>
      <point x="320" y="273" type="qcurve" smooth="yes"/>
      <point x="304" y="273" type="line" smooth="yes"/>
      <point x="253" y="273"/>
      <point x="224" y="252" type="qcurve" smooth="yes"/>
      <point x="217" y="247"/>
      <point x="217" y="256" type="qcurve" smooth="yes"/>
      <point x="217" y="410" type="line"/>
      <point x="322" y="410" type="line" smooth="yes"/>
      <point x="350" y="410"/>
      <point x="389" y="450"/>
      <point x="389" y="478" type="qcurve" smooth="yes"/>
      <point x="389" y="507"/>
      <point x="350" y="546"/>
      <point x="321" y="546" type="qcurve" smooth="yes"/>
      <point x="230" y="546" type="line" smooth="yes"/>
      <point x="202" y="546"/>
      <point x="176" y="507"/>
      <point x="188" y="481" type="qcurve" smooth="yes"/>
      <point x="191" y="475"/>
      <point x="184" y="475" type="qcurve" smooth="yes"/>
      <point x="25" y="475" type="line"/>
      <point x="25" y="478" type="line" smooth="yes"/>
      <point x="25" y="520"/>
      <point x="57" y="595"/>
      <point x="112" y="651"/>
      <point x="187" y="683"/>
      <point x="230" y="683" type="qcurve" smooth="yes"/>
    </contour>
  </outline>
</glyph>
<glyph name="four" format="2">
  <advance width="513"/>
  <unicode hex="0034"/>
  <outline>
    <contour>
      <point x="483" y="683" type="line"/>
      <point x="483" y="528" type="line" smooth="yes"/>
      <point x="483" y="523"/>
      <point x="477" y="522"/>
      <point x="475" y="525" type="qcurve" smooth="yes"/>
      <point x="456" y="547"/>
      <point x="391" y="547" type="qcurve" smooth="yes"/>
      <point x="167" y="547" type="line"/>
      <point x="167" y="477" type="line"/>
      <point x="245" y="477" type="line" smooth="yes"/>
      <point x="294" y="477"/>
      <point x="381" y="440"/>
      <point x="445" y="375"/>
      <point x="483" y="288"/>
      <point x="483" y="239" type="qcurve" smooth="yes"/>
      <point x="483" y="189"/>
      <point x="445" y="102"/>
      <point x="381" y="38"/>
      <point x="294" y="0"/>
      <point x="245" y="0" type="qcurve" smooth="yes"/>
      <point x="235" y="0" type="line" smooth="yes"/>
      <point x="193" y="0"/>
      <point x="118" y="32"/>
      <point x="62" y="88"/>
      <point x="30" y="163"/>
      <point x="30" y="206" type="qcurve"/>
      <point x="186" y="206" type="line" smooth="yes"/>
      <point x="193" y="206"/>
      <point x="190" y="199" type="qcurve" smooth="yes"/>
      <point x="185" y="190"/>
      <point x="185" y="172"/>
      <point x="192" y="157"/>
      <point x="202" y="146"/>
      <point x="207" y="143" type="qcurve" smooth="yes"/>
      <point x="219" y="137"/>
      <point x="232" y="137" type="qcurve" smooth="yes"/>
      <point x="245" y="137" type="line" smooth="yes"/>
      <point x="266" y="137"/>
      <point x="303" y="153"/>
      <point x="330" y="181"/>
      <point x="346" y="218"/>
      <point x="346" y="239" type="qcurve" smooth="yes"/>
      <point x="346" y="260"/>
      <point x="330" y="297"/>
      <point x="303" y="325"/>
      <point x="266" y="341"/>
      <point x="245" y="341" type="qcurve" smooth="yes"/>
      <point x="30" y="341" type="line"/>
      <point x="30" y="683" type="line"/>
    </contour>
  </outline>
</glyph>
<glyph name="five" format="2">
  <advance width="521"/>
  <unicode hex="0035"/>
  <outline>
    <contour>
      <point x="488" y="92" type="line" smooth="yes"/>
      <point x="488" y="27"/>
      <point x="511" y="9" type="qcurve" smooth="yes"/>
      <point x="514" y="6"/>
      <point x="512" y="0"/>
      <point x="508" y="0" type="qcurve" smooth="yes"/>
      <point x="332" y="0" type="line" smooth="yes"/>
      <point x="328" y="0"/>
      <point x="326" y="6"/>
      <point x="329" y="9" type="qcurve" smooth="yes"/>
      <point x="352" y="27"/>
      <point x="352" y="92" type="qcurve" smooth="yes"/>
      <point x="352" y="239" type="line"/>
      <point x="14" y="239" type="line"/>
      <point x="122" y="506" type="line" smooth="yes"/>
      <point x="152" y="581"/>
      <point x="132" y="615" type="qcurve"/>
      <point x="127" y="622"/>
      <point x="135" y="622" type="qcurve" smooth="yes"/>
      <point x="316" y="622" type="line"/>
      <point x="311" y="610" type="line"/>
      <point x="280" y="533" type="line"/>
      <point x="226" y="399" type="line"/>
      <point x="217" y="376" type="line"/>
      <point x="352" y="376" type="line"/>
      <point x="352" y="593" type="line" smooth="yes"/>
      <point x="352" y="655"/>
      <point x="329" y="675" type="qcurve" smooth="yes"/>
      <point x="326" y="677"/>
      <point x="328" y="683"/>
      <point x="332" y="683" type="qcurve" smooth="yes"/>
      <point x="508" y="683" type="line" smooth="yes"/>
      <point x="512" y="683"/>
      <point x="514" y="677"/>
      <point x="511" y="675" type="qcurve" smooth="yes"/>
      <point x="488" y="655"/>
      <point x="488" y="593" type="qcurve" smooth="yes"/>
    </contour>
  </outline>
</glyph>
<glyph name="six" format="2">
  <advance width="546"/>
  <unicode hex="0036"/>
  <outline>
    <contour>
      <point x="446" y="398" type="qcurve" smooth="yes"/>
      <point x="485" y="364"/>
      <point x="523" y="278"/>
      <point x="524" y="189"/>
      <point x="492" y="105"/>
      <point x="433" y="40"/>
      <point x="347" y="0"/>
      <point x="295" y="0" type="qcurve" smooth="yes"/>
      <point x="250" y="0" type="line" smooth="yes"/>
      <point x="203" y="0"/>
      <point x="120" y="36"/>
      <point x="58" y="97"/>
      <point x="22" y="180"/>
      <point x="22" y="227" type="qcurve" smooth="yes"/>
      <point x="22" y="455" type="line" smooth="yes"/>
      <point x="22" y="502"/>
      <point x="58" y="585"/>
      <point x="120" y="647"/>
      <point x="203" y="683"/>
      <point x="250" y="683" type="qcurve" smooth="yes"/>
      <point x="298" y="683" type="line" smooth="yes"/>
      <point x="340" y="683"/>
      <point x="416" y="654"/>
      <point x="476" y="603"/>
      <point x="516" y="533"/>
      <point x="523" y="492" type="qcurve"/>
      <point x="362" y="492" type="line" smooth="yes"/>
      <point x="356" y="492"/>
      <point x="358" y="498" type="qcurve" smooth="yes"/>
      <point x="361" y="506"/>
      <point x="350" y="524"/>
      <point x="341" y="531" type="qcurve" smooth="yes"/>
      <point x="323" y="546"/>
      <point x="298" y="546" type="qcurve" smooth="yes"/>
      <point x="250" y="546" type="line" smooth="yes"/>
      <point x="212" y="546"/>
      <point x="159" y="493"/>
      <point x="159" y="455" type="qcurve"/>
      <point x="295" y="455" type="line" smooth="yes"/>
      <point x="341" y="455"/>
      <point x="412" y="428"/>
    </contour>
    <contour>
      <point x="295" y="136" type="line" smooth="yes"/>
      <point x="314" y="136"/>
      <point x="347" y="150"/>
      <point x="372" y="175"/>
      <point x="386" y="208"/>
      <point x="386" y="227" type="qcurve" smooth="yes"/>
      <point x="386" y="246"/>
      <point x="372" y="280"/>
      <point x="347" y="305"/>
      <point x="314" y="319"/>
      <point x="295" y="319" type="qcurve" smooth="yes"/>
      <point x="159" y="319" type="line"/>
      <point x="159" y="227" type="line" smooth="yes"/>
      <point x="159" y="208"/>
      <point x="173" y="175"/>
      <point x="198" y="150"/>
      <point x="231" y="136"/>
      <point x="250" y="136" type="qcurve" smooth="yes"/>
    </contour>
  </outline>
</glyph>
<glyph name="seven" format="2">
  <advance width="543"/>
  <unicode hex="0037"/>
  <outline>
    <contour>
      <point x="318" y="118" type="line"/>
      <point x="286" y="31"/>
      <point x="310" y="8" type="qcurve" smooth="yes"/>
      <point x="313" y="6"/>
      <point x="311" y="0"/>
      <point x="307" y="0" type="qcurve" smooth="yes"/>
      <point x="127" y="0" type="line"/>
      <point x="336" y="547" type="line"/>
      <point x="145" y="547" type="line" smooth="yes"/>
      <point x="89" y="547"/>
      <point x="64" y="516" type="qcurve" smooth="yes"/>
      <point x="62" y="513"/>
      <point x="57" y="514"/>
      <point x="56" y="517" type="qcurve" smooth="yes"/>
      <point x="7" y="683" type="line"/>
      <point x="535" y="683" type="line"/>
    </contour>
  </outline>
</glyph>
<glyph name="eight" format="2">
  <advance width="551"/>
  <unicode hex="0038"/>
  <outline>
    <contour>
      <point x="457" y="399" type="qcurve"/>
      <point x="496" y="364"/>
      <point x="534" y="278"/>
      <point x="536" y="189"/>
      <point x="504" y="105"/>
      <point x="445" y="40"/>
      <point x="359" y="0"/>
      <point x="307" y="0" type="qcurve" smooth="yes"/>
      <point x="240" y="0" type="line" smooth="yes"/>
      <point x="188" y="0"/>
      <point x="102" y="40"/>
      <point x="43" y="105"/>
      <point x="11" y="189"/>
      <point x="12" y="278"/>
      <point x="50" y="364"/>
      <point x="89" y="399" type="qcurve"/>
      <point x="58" y="444"/>
      <point x="57" y="544"/>
      <point x="101" y="628"/>
      <point x="185" y="683"/>
      <point x="240" y="683" type="qcurve" smooth="yes"/>
      <point x="307" y="683" type="line" smooth="yes"/>
      <point x="362" y="683"/>
      <point x="446" y="628"/>
      <point x="490" y="544"/>
      <point x="488" y="444"/>
    </contour>
    <contour>
      <point x="240" y="547" type="line" smooth="yes"/>
      <point x="221" y="547"/>
      <point x="194" y="521"/>
      <point x="194" y="501" type="qcurve" smooth="yes"/>
      <point x="194" y="482"/>
      <point x="221" y="456"/>
      <point x="240" y="456" type="qcurve" smooth="yes"/>
      <point x="307" y="456" type="line" smooth="yes"/>
      <point x="326" y="456"/>
      <point x="352" y="482"/>
      <point x="352" y="501" type="qcurve" smooth="yes"/>
      <point x="352" y="521"/>
      <point x="326" y="547"/>
      <point x="307" y="547" type="qcurve" smooth="yes"/>
    </contour>
    <contour>
      <point x="307" y="137" type="line" smooth="yes"/>
      <point x="345" y="137"/>
      <point x="398" y="190"/>
      <point x="398" y="228" type="qcurve" smooth="yes"/>
      <point x="398" y="266"/>
      <point x="345" y="319"/>
      <point x="307" y="319" type="qcurve" smooth="yes"/>
      <point x="240" y="319" type="line" smooth="yes"/>
      <point x="202" y="319"/>
      <point x="149" y="266"/>
      <point x="149" y="228" type="qcurve" smooth="yes"/>
      <point x="149" y="190"/>
      <point x="202" y="137"/>
      <point x="240" y="137" type="qcurve" smooth="yes"/>
    </contour>
  </outline>
</glyph>
<glyph name="nine" format="2">
  <advance width="537"/>
  <unicode hex="0039"/>
  <outline>
    <contour>
      <point x="294" y="683" type="line" smooth="yes"/>
      <point x="341" y="683"/>
      <point x="424" y="647"/>
      <point x="486" y="586"/>
      <point x="522" y="503"/>
      <point x="522" y="456" type="qcurve" smooth="yes"/>
      <point x="522" y="228" type="line" smooth="yes"/>
      <point x="522" y="181"/>
      <point x="486" y="98"/>
      <point x="424" y="36"/>
      <point x="341" y="0"/>
      <point x="294" y="0" type="qcurve" smooth="yes"/>
      <point x="245" y="0" type="line" smooth="yes"/>
      <point x="203" y="0"/>
      <point x="128" y="29"/>
      <point x="68" y="80"/>
      <point x="28" y="150"/>
      <point x="21" y="191" type="qcurve"/>
      <point x="181" y="191" type="line" smooth="yes"/>
      <point x="187" y="191"/>
      <point x="186" y="185" type="qcurve"/>
      <point x="183" y="177"/>
      <point x="194" y="160"/>
      <point x="203" y="152" type="qcurve" smooth="yes"/>
      <point x="221" y="137"/>
      <point x="246" y="137" type="qcurve" smooth="yes"/>
      <point x="294" y="137" type="line" smooth="yes"/>
      <point x="313" y="137"/>
      <point x="346" y="151"/>
      <point x="371" y="176"/>
      <point x="385" y="209"/>
      <point x="385" y="228" type="qcurve"/>
      <point x="249" y="228" type="line" smooth="yes"/>
      <point x="203" y="228"/>
      <point x="132" y="255"/>
      <point x="98" y="285" type="qcurve" smooth="yes"/>
      <point x="59" y="320"/>
      <point x="21" y="406"/>
      <point x="20" y="494"/>
      <point x="52" y="578"/>
      <point x="111" y="643"/>
      <point x="196" y="683"/>
      <point x="249" y="683" type="qcurve" smooth="yes"/>
    </contour>
    <contour>
      <point x="385" y="456" type="line" smooth="yes"/>
      <point x="385" y="475"/>
      <point x="371" y="508"/>
      <point x="346" y="533"/>
      <point x="313" y="547"/>
      <point x="294" y="547" type="qcurve" smooth="yes"/>
      <point x="249" y="547" type="line" smooth="yes"/>
      <point x="230" y="547"/>
      <point x="197" y="533"/>
      <point x="172" y="508"/>
      <point x="158" y="475"/>
      <point x="158" y="456" type="qcurve" smooth="yes"/>
      <point x="158" y="437"/>
      <point x="172" y="404"/>
      <point x="197" y="379"/>
      <point x="230" y="364"/>
      <point x="249" y="364" type="qcurve" smooth="yes"/>
      <point x="385" y="364" type="line"/>
    </contour>
  </outline>
</glyph>
<glyph name="colon" format="2">
  <advance width="167"/>
  <unicode hex="003A"/>
  <outline>
    <contour>
      <point x="83" y="133" type="qcurve" smooth="yes"/>
      <point x="110" y="133"/>
      <point x="150" y="94"/>
      <point x="150" y="67" type="qcurve" smooth="yes"/>
      <point x="150" y="39"/>
      <point x="110" y="0"/>
      <point x="83" y="0" type="qcurve" smooth="yes"/>
      <point x="55" y="0"/>
      <point x="16" y="39"/>
      <point x="16" y="67" type="qcurve" smooth="yes"/>
      <point x="16" y="94"/>
      <point x="55" y="133"/>
    </contour>
    <contour>
      <point x="83" y="678" type="qcurve" smooth="yes"/>
      <point x="110" y="678"/>
      <point x="150" y="639"/>
      <point x="150" y="612" type="qcurve" smooth="yes"/>
      <point x="150" y="584"/>
      <point x="110" y="545"/>
      <point x="83" y="545" type="qcurve" smooth="yes"/>
      <point x="55" y="545"/>
      <point x="16" y="584"/>
      <point x="16" y="612" type="qcurve" smooth="yes"/>
      <point x="16" y="639"/>
      <point x="55" y="678"/>
    </contour>
  </outline>
</glyph>
<glyph name="semicolon" format="2">
  <advance width="167"/>
  <unicode hex="003B"/>
  <outline>
    <contour>
      <point x="83" y="678" type="qcurve" smooth="yes"/>
      <point x="110" y="678"/>
      <point x="150" y="639"/>
      <point x="150" y="612" type="qcurve" smooth="yes"/>
      <point x="150" y="584"/>
      <point x="110" y="545"/>
      <point x="83" y="545" type="qcurve" smooth="yes"/>
      <point x="55" y="545"/>
      <point x="16" y="584"/>
      <point x="16" y="612" type="qcurve" smooth="yes"/>
      <point x="16" y="639"/>
      <point x="55" y="678"/>
    </contour>
    <contour>
      <point x="67" y="132" type="qcurve" smooth="yes"/>
      <point x="85" y="136"/>
      <point x="118" y="126"/>
      <point x="142" y="103"/>
      <point x="152" y="70"/>
      <point x="148" y="52" type="qcurve"/>
      <point x="141" y="6"/>
      <point x="104" y="-60"/>
      <point x="62" y="-83" type="qcurve"/>
      <point x="48" y="-79"/>
      <point x="35" y="-69" type="qcurve" smooth="yes"/>
      <point x="31" y="-66"/>
      <point x="34" y="-63" type="qcurve" smooth="yes"/>
      <point x="47" y="-48"/>
      <point x="56" y="-10"/>
      <point x="34" y="22" type="qcurve"/>
      <point x="21" y="36"/>
      <point x="15" y="71"/>
      <point x="24" y="102"/>
      <point x="49" y="127"/>
    </contour>
  </outline>
</glyph>
<glyph name="less" format="2">
  <advance width="338"/>
  <unicode hex="003C"/>
  <outline>
    <contour>
      <point x="313" y="507" type="line"/>
      <point x="170" y="387" type="line"/>
      <point x="313" y="268" type="line"/>
      <point x="313" y="148" type="line"/>
      <point x="27" y="387" type="line"/>
      <point x="313" y="627" type="line"/>
    </contour>
  </outline>
</glyph>
<glyph name="equal" format="2">
  <advance width="385"/>
  <unicode hex="003D"/>
  <outline>
    <contour>
      <point x="32" y="204" type="line"/>
      <point x="32" y="308" type="line"/>
      <point x="353" y="308" type="line"/>
      <point x="353" y="204" type="line"/>
    </contour>
    <contour>
      <point x="32" y="374" type="line"/>
      <point x="32" y="478" type="line"/>
      <point x="353" y="478" type="line"/>
      <point x="353" y="374" type="line"/>
    </contour>
  </outline>
</glyph>
<glyph name="greater" format="2">
  <advance width="338"/>
  <unicode hex="003E"/>
  <outline>
    <contour>
      <point x="27" y="627" type="line"/>
      <point x="313" y="387" type="line"/>
      <point x="27" y="148" type="line"/>
      <point x="27" y="268" type="line"/>
      <point x="170" y="387" type="line"/>
      <point x="27" y="507" type="line"/>
    </contour>
  </outline>
</glyph>
<glyph name="question" format="2">
  <advance width="562"/>
  <unicode hex="003F"/>
  <outline>
    <contour>
      <point x="342" y="679" type="line" smooth="yes"/>
      <point x="384" y="679"/>
      <point x="457" y="648"/>
      <point x="511" y="594"/>
      <point x="542" y="521"/>
      <point x="542" y="479" type="qcurve" smooth="yes"/>
      <point x="542" y="441"/>
      <point x="515" y="372"/>
      <point x="468" y="319"/>
      <point x="403" y="284"/>
      <point x="365" y="280" type="qcurve" smooth="yes"/>
      <point x="350" y="278"/>
      <point x="333" y="265"/>
      <point x="328" y="250" type="qcurve" smooth="yes"/>
      <point x="326" y="246"/>
      <point x="326" y="243" type="qcurve"/>
      <point x="321" y="209"/>
      <point x="340" y="194" type="qcurve" smooth="yes"/>
      <point x="343" y="191"/>
      <point x="341" y="186"/>
      <point x="337" y="186" type="qcurve" smooth="yes"/>
      <point x="167" y="186" type="line" smooth="yes"/>
      <point x="163" y="186"/>
      <point x="161" y="191"/>
      <point x="164" y="194" type="qcurve" smooth="yes"/>
      <point x="190" y="218"/>
      <point x="191" y="253" type="qcurve"/>
      <point x="194" y="282"/>
      <point x="218" y="339"/>
      <point x="256" y="384"/>
      <point x="309" y="412"/>
      <point x="342" y="412" type="qcurve" smooth="yes"/>
      <point x="370" y="412"/>
      <point x="409" y="451"/>
      <point x="409" y="479" type="qcurve" smooth="yes"/>
      <point x="409" y="507"/>
      <point x="370" y="546"/>
      <point x="342" y="546" type="qcurve" smooth="yes"/>
      <point x="220" y="546" type="line" smooth="yes"/>
      <point x="205" y="546"/>
      <point x="193" y="540" type="qcurve" smooth="yes"/>
      <point x="188" y="537"/>
      <point x="178" y="527"/>
      <point x="171" y="512"/>
      <point x="171" y="495"/>
      <point x="176" y="486" type="qcurve" smooth="yes"/>
      <point x="179" y="479"/>
      <point x="172" y="479" type="qcurve" smooth="yes"/>
      <point x="19" y="479" type="line"/>
      <point x="19" y="521"/>
      <point x="51" y="594"/>
      <point x="105" y="648"/>
      <point x="178" y="679"/>
      <point x="220" y="679" type="qcurve" smooth="yes"/>
    </contour>
    <contour>
      <point x="254" y="133" type="qcurve" smooth="yes"/>
      <point x="282" y="133"/>
      <point x="321" y="94"/>
      <point x="321" y="66" type="qcurve" smooth="yes"/>
      <point x="321" y="39"/>
      <point x="282" y="0"/>
      <point x="254" y="0" type="qcurve" smooth="yes"/>
      <point x="226" y="0"/>
      <point x="187" y="39"/>
      <point x="187" y="66" type="qcurve" smooth="yes"/>
      <point x="187" y="94"/>
      <point x="226" y="133"/>
    </contour>
  </outline>
</glyph>
<glyph name="at" format="2">
  <advance width="730"/>
  <unicode hex="0040"/>
  <outline>
    <contour>
      <point x="705" y="407" type="qcurve" smooth="yes"/>
      <point x="705" y="364"/>
      <point x="681" y="271"/>
      <point x="632" y="195"/>
      <point x="557" y="145"/>
      <point x="507" y="145" type="qcurve" smooth="yes"/>
      <point x="471" y="145"/>
      <point x="429" y="170"/>
      <point x="417" y="205" type="qcurve"/>
      <point x="398" y="176"/>
      <point x="334" y="145"/>
      <point x="300" y="145" type="qcurve" smooth="yes"/>
      <point x="270" y="145"/>
      <point x="224" y="167"/>
      <point x="193" y="204"/>
      <point x="177" y="254"/>
      <point x="177" y="283" type="qcurve" smooth="yes"/>
      <point x="177" y="327"/>
      <point x="203" y="416"/>
      <point x="255" y="488"/>
      <point x="330" y="534"/>
      <point x="380" y="534" type="qcurve" smooth="yes"/>
      <point x="396" y="534"/>
      <point x="427" y="526"/>
      <point x="440" y="516" type="qcurve"/>
      <point x="447" y="508" type="line"/>
      <point x="453" y="528" type="line"/>
      <point x="533" y="528" type="line"/>
      <point x="527" y="510"/>
      <point x="513" y="442"/>
      <point x="501" y="365"/>
      <point x="493" y="293"/>
      <point x="493" y="270" type="qcurve" smooth="yes"/>
      <point x="493" y="264"/>
      <point x="494" y="247"/>
      <point x="500" y="231"/>
      <point x="510" y="220"/>
      <point x="519" y="220" type="qcurve" smooth="yes"/>
      <point x="547" y="220"/>
      <point x="585" y="259"/>
      <point x="609" y="314"/>
      <point x="619" y="375"/>
      <point x="619" y="396" type="qcurve" smooth="yes"/>
      <point x="619" y="449"/>
      <point x="585" y="528"/>
      <point x="523" y="581"/>
      <point x="439" y="607"/>
      <point x="388" y="607" type="qcurve" smooth="yes"/>
      <point x="324" y="607"/>
      <point x="219" y="557"/>
      <point x="145" y="473"/>
      <point x="105" y="362"/>
      <point x="105" y="301" type="qcurve" smooth="yes"/>
      <point x="105" y="246"/>
      <point x="140" y="162"/>
      <point x="203" y="105"/>
      <point x="290" y="75"/>
      <point x="343" y="75" type="qcurve" smooth="yes"/>
      <point x="406" y="75"/>
      <point x="526" y="102"/>
      <point x="583" y="125" type="qcurve"/>
      <point x="583" y="56" type="line"/>
      <point x="550" y="42"/>
      <point x="490" y="21"/>
      <point x="431" y="6"/>
      <point x="369" y="-1"/>
      <point x="332" y="-1" type="qcurve" smooth="yes"/>
      <point x="264" y="-1"/>
      <point x="149" y="39"/>
      <point x="65" y="114"/>
      <point x="18" y="224"/>
      <point x="18" y="294" type="qcurve" smooth="yes"/>
      <point x="18" y="375"/>
      <point x="76" y="516"/>
      <point x="178" y="622"/>
      <point x="317" y="683"/>
      <point x="399" y="683" type="qcurve" smooth="yes"/>
      <point x="461" y="683"/>
      <point x="572" y="646"/>
      <point x="656" y="576"/>
      <point x="705" y="473"/>
    </contour>
    <contour>
      <point x="425" y="375" type="qcurve" smooth="yes"/>
      <point x="425" y="388"/>
      <point x="418" y="417"/>
      <point x="403" y="441"/>
      <point x="380" y="457"/>
      <point x="364" y="457" type="qcurve" smooth="yes"/>
      <point x="338" y="457"/>
      <point x="298" y="425"/>
      <point x="270" y="378"/>
      <point x="255" y="325"/>
      <point x="255" y="303" type="qcurve" smooth="yes"/>
      <point x="255" y="289"/>
      <point x="262" y="261"/>
      <point x="277" y="237"/>
      <point x="300" y="222"/>
      <point x="316" y="222" type="qcurve" smooth="yes"/>
      <point x="341" y="222"/>
      <point x="382" y="253"/>
      <point x="410" y="300"/>
      <point x="425" y="353"/>
    </contour>
  </outline>
</glyph>
<glyph name="A" format="2">
  <advance width="539"/>
  <unicode hex="0041"/>
  <outline>
    <contour>
      <point x="517" y="8" type="qcurve" smooth="yes"/>
      <point x="520" y="5"/>
      <point x="518" y="0"/>
      <point x="514" y="0" type="qcurve" smooth="yes"/>
      <point x="338" y="0" type="line" smooth="yes"/>
      <point x="334" y="0"/>
      <point x="332" y="5"/>
      <point x="335" y="8" type="qcurve" smooth="yes"/>
      <point x="358" y="26"/>
      <point x="358" y="91" type="qcurve" smooth="yes"/>
      <point x="358" y="182" type="line"/>
      <point x="175" y="182" type="line"/>
      <point x="175" y="91" type="line" smooth="yes"/>
      <point x="175" y="26"/>
      <point x="198" y="8" type="qcurve"/>
      <point x="206" y="0"/>
      <point x="195" y="0" type="qcurve" smooth="yes"/>
      <point x="19" y="0" type="line" smooth="yes"/>
      <point x="15" y="0"/>
      <point x="13" y="5"/>
      <point x="16" y="8" type="qcurve" smooth="yes"/>
      <point x="39" y="26"/>
      <point x="39" y="91" type="qcurve" smooth="yes"/>
      <point x="39" y="308" type="line" smooth="yes"/>
      <point x="39" y="351"/>
      <point x="55" y="430"/>
      <point x="72" y="470" type="qcurve" smooth="yes"/>
      <point x="124" y="591" type="line"/>
      <point x="137" y="655"/>
      <point x="118" y="675" type="qcurve" smooth="yes"/>
      <point x="115" y="678"/>
      <point x="117" y="683"/>
      <point x="121" y="683" type="qcurve" smooth="yes"/>
      <point x="412" y="683" type="line" smooth="yes"/>
      <point x="422" y="683"/>
      <point x="416" y="675" type="qcurve"/>
      <point x="397" y="657"/>
      <point x="409" y="591" type="qcurve"/>
      <point x="461" y="470" type="line" smooth="yes"/>
      <point x="478" y="430"/>
      <point x="494" y="351"/>
      <point x="494" y="308" type="qcurve" smooth="yes"/>
      <point x="494" y="91" type="line" smooth="yes"/>
      <point x="494" y="26"/>
    </contour>
    <contour>
      <point x="358" y="318" type="line"/>
      <point x="355" y="369"/>
      <point x="336" y="416" type="qcurve"/>
      <point x="267" y="577" type="line"/>
      <point x="198" y="416" type="line" smooth="yes"/>
      <point x="177" y="369"/>
      <point x="176" y="318" type="qcurve"/>
    </contour>
  </outline>
</glyph>
<glyph name="B" format="2">
  <advance width="518"/>
  <unicode hex="0042"/>
  <outline>
    <contour>
      <point x="415" y="398" type="qcurve"/>
      <point x="454" y="364"/>
      <point x="492" y="278"/>
      <point x="493" y="189"/>
      <point x="461" y="105"/>
      <point x="402" y="40"/>
      <point x="316" y="0"/>
      <point x="264" y="0" type="qcurve" smooth="yes"/>
      <point x="17" y="0" type="line" smooth="yes"/>
      <point x="12" y="0"/>
      <point x="11" y="5"/>
      <point x="14" y="8" type="qcurve" smooth="yes"/>
      <point x="36" y="27"/>
      <point x="36" y="91" type="qcurve" smooth="yes"/>
      <point x="36" y="592" type="line" smooth="yes"/>
      <point x="36" y="656"/>
      <point x="14" y="675" type="qcurve" smooth="yes"/>
      <point x="11" y="677"/>
      <point x="12" y="683"/>
      <point x="17" y="683" type="qcurve" smooth="yes"/>
      <point x="264" y="683" type="line" smooth="yes"/>
      <point x="319" y="683"/>
      <point x="403" y="628"/>
      <point x="447" y="544"/>
      <point x="446" y="443"/>
    </contour>
    <contour>
      <point x="264" y="137" type="line" smooth="yes"/>
      <point x="302" y="137"/>
      <point x="355" y="189"/>
      <point x="355" y="227" type="qcurve" smooth="yes"/>
      <point x="355" y="246"/>
      <point x="341" y="280"/>
      <point x="316" y="305"/>
      <point x="283" y="319"/>
      <point x="264" y="319" type="qcurve" smooth="yes"/>
      <point x="173" y="319" type="line"/>
      <point x="173" y="137" type="line"/>
    </contour>
    <contour>
      <point x="173" y="455" type="line"/>
      <point x="264" y="455" type="line" smooth="yes"/>
      <point x="283" y="455"/>
      <point x="309" y="482"/>
      <point x="309" y="501" type="qcurve" smooth="yes"/>
      <point x="309" y="520"/>
      <point x="283" y="547"/>
      <point x="264" y="547" type="qcurve" smooth="yes"/>
      <point x="173" y="547" type="line"/>
    </contour>
  </outline>
</glyph>
<glyph name="F" format="2">
  <advance width="516"/>
  <unicode hex="0046"/>
  <outline>
    <contour>
      <point x="510" y="683" type="line" smooth="yes"/>
      <point x="515" y="683"/>
      <point x="516" y="677"/>
      <point x="513" y="675" type="qcurve" smooth="yes"/>
      <point x="491" y="656"/>
      <point x="491" y="592" type="qcurve" smooth="yes"/>
      <point x="491" y="527" type="line" smooth="yes"/>
      <point x="491" y="522"/>
      <point x="485" y="521"/>
      <point x="483" y="524" type="qcurve" smooth="yes"/>
      <point x="463" y="546"/>
      <point x="400" y="546" type="qcurve" smooth="yes"/>
      <point x="172" y="546" type="line"/>
      <point x="172" y="410" type="line"/>
      <point x="308" y="410" type="line" smooth="yes"/>
      <point x="373" y="410"/>
      <point x="391" y="432" type="qcurve" smooth="yes"/>
      <point x="394" y="435"/>
      <point x="400" y="433"/>
      <point x="400" y="429" type="qcurve" smooth="yes"/>
      <point x="400" y="253" type="line" smooth="yes"/>
      <point x="400" y="249"/>
      <point x="394" y="247"/>
      <point x="391" y="250" type="qcurve" smooth="yes"/>
      <point x="373" y="273"/>
      <point x="308" y="273" type="qcurve" smooth="yes"/>
      <point x="172" y="273" type="line"/>
      <point x="172" y="91" type="line" smooth="yes"/>
      <point x="172" y="27"/>
      <point x="194" y="7" type="qcurve" smooth="yes"/>
      <point x="197" y="5"/>
      <point x="196" y="0"/>
      <point x="191" y="0" type="qcurve" smooth="yes"/>
      <point x="16" y="0" type="line" smooth="yes"/>
      <point x="11" y="0"/>
      <point x="9" y="5"/>
      <point x="13" y="7" type="qcurve"/>
      <point x="35" y="26"/>
      <point x="35" y="91" type="qcurve" smooth="yes"/>
      <point x="35" y="592" type="line" smooth="yes"/>
      <point x="35" y="656"/>
      <point x="13" y="675" type="qcurve"/>
      <point x="9" y="677"/>
      <point x="11" y="683"/>
      <point x="16" y="683" type="qcurve" smooth="yes"/>
    </contour>
  </outline>
</glyph>
<glyph name="J" format="2">
  <advance width="521"/>
  <unicode hex="004A"/>
  <outline>
    <contour>
      <point x="515" y="683" type="line" smooth="yes"/>
      <point x="519" y="683"/>
      <point x="521" y="677"/>
      <point x="518" y="675" type="qcurve" smooth="yes"/>
      <point x="495" y="655"/>
      <point x="495" y="592" type="qcurve" smooth="yes"/>
      <point x="495" y="227" type="line" smooth="yes"/>
      <point x="495" y="180"/>
      <point x="459" y="97"/>
      <point x="397" y="36"/>
      <point x="314" y="0"/>
      <point x="267" y="0" type="qcurve" smooth="yes"/>
      <point x="220" y="0"/>
      <point x="137" y="36"/>
      <point x="75" y="97"/>
      <point x="39" y="180"/>
      <point x="39" y="227" type="qcurve" smooth="yes"/>
      <point x="39" y="292"/>
      <point x="17" y="310" type="qcurve" smooth="yes"/>
      <point x="14" y="313"/>
      <point x="16" y="319"/>
      <point x="20" y="319" type="qcurve" smooth="yes"/>
      <point x="196" y="319" type="line" smooth="yes"/>
      <point x="200" y="319"/>
      <point x="202" y="313"/>
      <point x="199" y="310" type="qcurve" smooth="yes"/>
      <point x="176" y="292"/>
      <point x="176" y="227" type="qcurve" smooth="yes"/>
      <point x="176" y="189"/>
      <point x="229" y="136"/>
      <point x="267" y="136" type="qcurve" smooth="yes"/>
      <point x="286" y="136"/>
      <point x="320" y="150"/>
      <point x="345" y="175"/>
      <point x="359" y="208"/>
      <point x="359" y="227" type="qcurve" smooth="yes"/>
      <point x="359" y="546" type="line"/>
      <point x="131" y="546" type="line" smooth="yes"/>
      <point x="66" y="546"/>
      <point x="48" y="524" type="qcurve" smooth="yes"/>
      <point x="45" y="521"/>
      <point x="39" y="522"/>
      <point x="39" y="527" type="qcurve" smooth="yes"/>
      <point x="39" y="592" type="line" smooth="yes"/>
      <point x="39" y="656"/>
      <point x="17" y="675" type="qcurve" smooth="yes"/>
      <point x="14" y="677"/>
      <point x="16" y="683"/>
      <point x="20" y="683" type="qcurve" smooth="yes"/>
    </contour>
  </outline>
</glyph>
<glyph name="L" format="2">
  <advance width="445"/>
  <unicode hex="004C"/>
  <outline>
    <contour>
      <point x="426" y="8" type="qcurve" smooth="yes"/>
      <point x="429" y="6"/>
      <point x="428" y="0"/>
      <point x="423" y="0" type="qcurve" smooth="yes"/>
      <point x="19" y="0" type="line"/>
      <point x="9" y="2"/>
      <point x="17" y="8" type="qcurve" smooth="yes"/>
      <point x="39" y="27"/>
      <point x="39" y="91" type="qcurve" smooth="yes"/>
      <point x="39" y="592" type="line" smooth="yes"/>
      <point x="39" y="656"/>
      <point x="17" y="675" type="qcurve" smooth="yes"/>
      <point x="9" y="683"/>
      <point x="20" y="683" type="qcurve" smooth="yes"/>
      <point x="195" y="683" type="line" smooth="yes"/>
      <point x="200" y="683"/>
      <point x="202" y="678"/>
      <point x="198" y="675" type="qcurve" smooth="yes"/>
      <point x="176" y="656"/>
      <point x="176" y="592" type="qcurve" smooth="yes"/>
      <point x="176" y="137" type="line"/>
      <point x="312" y="137" type="line" smooth="yes"/>
      <point x="377" y="137"/>
      <point x="395" y="159" type="qcurve" smooth="yes"/>
      <point x="398" y="162"/>
      <point x="404" y="161"/>
      <point x="404" y="156" type="qcurve" smooth="yes"/>
      <point x="404" y="91" type="line" smooth="yes"/>
      <point x="404" y="27"/>
    </contour>
  </outline>
</glyph>
<glyph name="M" format="2">
  <advance width="665"/>
  <unicode hex="004D"/>
  <outline>
    <contour>
      <point x="628" y="91" type="line" smooth="yes"/>
      <point x="628" y="28"/>
      <point x="651" y="8" type="qcurve" smooth="yes"/>
      <point x="659" y="0"/>
      <point x="648" y="0" type="qcurve" smooth="yes"/>
      <point x="472" y="0" type="line" smooth="yes"/>
      <point x="468" y="0"/>
      <point x="466" y="5"/>
      <point x="469" y="8" type="qcurve" smooth="yes"/>
      <point x="492" y="28"/>
      <point x="492" y="91" type="qcurve" smooth="yes"/>
      <point x="492" y="268" type="line"/>
      <point x="413" y="76" type="line" smooth="yes"/>
      <point x="394" y="31"/>
      <point x="405" y="7" type="qcurve" smooth="yes"/>
      <point x="408" y="0"/>
      <point x="401" y="0" type="qcurve" smooth="yes"/>
      <point x="265" y="0" type="line" smooth="yes"/>
      <point x="257" y="0"/>
      <point x="261" y="7" type="qcurve" smooth="yes"/>
      <point x="273" y="29"/>
      <point x="253" y="76" type="qcurve" smooth="yes"/>
      <point x="173" y="270" type="line"/>
      <point x="173" y="91" type="line" smooth="yes"/>
      <point x="173" y="27"/>
      <point x="196" y="8" type="qcurve" smooth="yes"/>
      <point x="199" y="5"/>
      <point x="197" y="0"/>
      <point x="193" y="0" type="qcurve" smooth="yes"/>
      <point x="17" y="0" type="line" smooth="yes"/>
      <point x="13" y="0"/>
      <point x="11" y="5"/>
      <point x="14" y="8" type="qcurve" smooth="yes"/>
      <point x="36" y="27"/>
      <point x="36" y="91" type="qcurve" smooth="yes"/>
      <point x="36" y="592" type="line" smooth="yes"/>
      <point x="36" y="656"/>
      <point x="14" y="675" type="qcurve" smooth="yes"/>
      <point x="11" y="677"/>
      <point x="13" y="683"/>
      <point x="17" y="683" type="qcurve" smooth="yes"/>
      <point x="193" y="683" type="line" smooth="yes"/>
      <point x="197" y="683"/>
      <point x="199" y="677"/>
      <point x="196" y="675" type="qcurve" smooth="yes"/>
      <point x="183" y="665"/>
      <point x="177" y="640" type="qcurve" smooth="yes"/>
      <point x="174" y="626"/>
      <point x="180" y="613" type="qcurve"/>
      <point x="332" y="242" type="line"/>
      <point x="485" y="613" type="line" smooth="yes"/>
      <point x="491" y="627"/>
      <point x="487" y="640" type="qcurve"/>
      <point x="483" y="664"/>
      <point x="469" y="675" type="qcurve" smooth="yes"/>
      <point x="466" y="677"/>
      <point x="468" y="683"/>
      <point x="472" y="683" type="qcurve" smooth="yes"/>
      <point x="648" y="683" type="line" smooth="yes"/>
      <point x="653" y="683"/>
      <point x="654" y="677"/>
      <point x="651" y="675" type="qcurve" smooth="yes"/>
      <point x="628" y="655"/>
      <point x="628" y="592" type="qcurve" smooth="yes"/>
    </contour>
  </outline>
</glyph>
<glyph name="N" format="2">
  <advance width="538"/>
  <unicode hex="004E"/>
  <outline>
    <contour>
      <point x="493" y="91" type="line" smooth="yes"/>
      <point x="493" y="28"/>
      <point x="516" y="8" type="qcurve" smooth="yes"/>
      <point x="519" y="6"/>
      <point x="517" y="0"/>
      <point x="513" y="0" type="qcurve" smooth="yes"/>
      <point x="337" y="0" type="line" smooth="yes"/>
      <point x="333" y="0"/>
      <point x="331" y="6"/>
      <point x="334" y="8" type="qcurve" smooth="yes"/>
      <point x="352" y="23"/>
      <point x="355" y="66" type="qcurve"/>
      <point x="357" y="84"/>
      <point x="350" y="113"/>
      <point x="339" y="127" type="qcurve"/>
      <point x="174" y="357" type="line"/>
      <point x="174" y="91" type="line" smooth="yes"/>
      <point x="174" y="28"/>
      <point x="197" y="8" type="qcurve" smooth="yes"/>
      <point x="200" y="6"/>
      <point x="198" y="0"/>
      <point x="194" y="0" type="qcurve" smooth="yes"/>
      <point x="18" y="0" type="line" smooth="yes"/>
      <point x="14" y="0"/>
      <point x="12" y="6"/>
      <point x="15" y="8" type="qcurve" smooth="yes"/>
      <point x="38" y="28"/>
      <point x="38" y="91" type="qcurve" smooth="yes"/>
      <point x="38" y="592" type="line" smooth="yes"/>
      <point x="38" y="657"/>
      <point x="15" y="675" type="qcurve" smooth="yes"/>
      <point x="12" y="678"/>
      <point x="14" y="683"/>
      <point x="18" y="683" type="qcurve" smooth="yes"/>
      <point x="194" y="683" type="line" smooth="yes"/>
      <point x="198" y="683"/>
      <point x="200" y="678"/>
      <point x="197" y="675" type="qcurve" smooth="yes"/>
      <point x="184" y="665"/>
      <point x="178" y="637" type="qcurve" smooth="yes"/>
      <point x="174" y="616"/>
      <point x="181" y="583"/>
      <point x="193" y="566" type="qcurve" smooth="yes"/>
      <point x="357" y="337" type="line"/>
      <point x="357" y="592" type="line" smooth="yes"/>
      <point x="357" y="657"/>
      <point x="334" y="675" type="qcurve" smooth="yes"/>
      <point x="331" y="678"/>
      <point x="333" y="683"/>
      <point x="337" y="683" type="qcurve" smooth="yes"/>
      <point x="513" y="683" type="line" smooth="yes"/>
      <point x="517" y="683"/>
      <point x="519" y="678"/>
      <point x="516" y="675" type="qcurve" smooth="yes"/>
      <point x="493" y="657"/>
      <point x="493" y="592" type="qcurve" smooth="yes"/>
    </contour>
  </outline>
</glyph>
<glyph name="Q" format="2">
  <advance width="531"/>
  <unicode hex="0051"/>
  <outline>
    <contour>
      <point x="515" y="228" type="line" smooth="yes"/>
      <point x="515" y="180"/>
      <point x="477" y="93"/>
      <point x="442" y="61" type="qcurve"/>
      <point x="469" y="23"/>
      <point x="495" y="9" type="qcurve" smooth="yes"/>
      <point x="498" y="7"/>
      <point x="497" y="0"/>
      <point x="492" y="0" type="qcurve" smooth="yes"/>
      <point x="333" y="0" type="line"/>
      <point x="330" y="5" type="line"/>
      <point x="325" y="12" type="line"/>
      <point x="236" y="137" type="line"/>
      <point x="176" y="223" type="line"/>
      <point x="346" y="223" type="line" smooth="yes"/>
      <point x="353" y="223"/>
      <point x="350" y="217" type="qcurve"/>
      <point x="346" y="198"/>
      <point x="354" y="185" type="qcurve"/>
      <point x="361" y="175" type="line"/>
      <point x="378" y="199"/>
      <point x="378" y="228" type="qcurve" smooth="yes"/>
      <point x="378" y="456" type="line" smooth="yes"/>
      <point x="378" y="494"/>
      <point x="325" y="547"/>
      <point x="287" y="547" type="qcurve" smooth="yes"/>
      <point x="242" y="547" type="line" smooth="yes"/>
      <point x="223" y="547"/>
      <point x="190" y="533"/>
      <point x="165" y="508"/>
      <point x="151" y="475"/>
      <point x="151" y="456" type="qcurve" smooth="yes"/>
      <point x="151" y="223" type="line"/>
      <point x="153" y="196"/>
      <point x="184" y="152"/>
      <point x="210" y="143" type="qcurve"/>
      <point x="310" y="2" type="line"/>
      <point x="305" y="1"/>
      <point x="293" y="0"/>
      <point x="287" y="0" type="qcurve" smooth="yes"/>
      <point x="242" y="0" type="line" smooth="yes"/>
      <point x="195" y="0"/>
      <point x="112" y="36"/>
      <point x="50" y="98"/>
      <point x="14" y="181"/>
      <point x="14" y="228" type="qcurve" smooth="yes"/>
      <point x="14" y="456" type="line" smooth="yes"/>
      <point x="14" y="503"/>
      <point x="50" y="586"/>
      <point x="112" y="648"/>
      <point x="195" y="684"/>
      <point x="242" y="684" type="qcurve" smooth="yes"/>
      <point x="287" y="684" type="line" smooth="yes"/>
      <point x="334" y="684"/>
      <point x="417" y="648"/>
      <point x="479" y="586"/>
      <point x="515" y="503"/>
      <point x="515" y="456" type="qcurve" smooth="yes"/>
    </contour>
  </outline>
</glyph>
<glyph name="V" format="2">
  <advance width="531"/>
  <unicode hex="0056"/>
  <outline>
    <contour>
      <point x="516" y="684" type="line" smooth="yes"/>
      <point x="520" y="684"/>
      <point x="522" y="678"/>
      <point x="519" y="676" type="qcurve" smooth="yes"/>
      <point x="496" y="657"/>
      <point x="496" y="593" type="qcurve" smooth="yes"/>
      <point x="496" y="375" type="line" smooth="yes"/>
      <point x="496" y="292"/>
      <point x="463" y="214" type="qcurve" smooth="yes"/>
      <point x="411" y="92" type="line"/>
      <point x="397" y="27"/>
      <point x="417" y="8" type="qcurve" smooth="yes"/>
      <point x="420" y="6"/>
      <point x="419" y="0"/>
      <point x="414" y="0" type="qcurve" smooth="yes"/>
      <point x="122" y="0" type="line" smooth="yes"/>
      <point x="118" y="0"/>
      <point x="117" y="6"/>
      <point x="119" y="8" type="qcurve" smooth="yes"/>
      <point x="138" y="27"/>
      <point x="126" y="92" type="qcurve"/>
      <point x="74" y="214" type="line" smooth="yes"/>
      <point x="57" y="253"/>
      <point x="41" y="332"/>
      <point x="41" y="375" type="qcurve" smooth="yes"/>
      <point x="41" y="593" type="line" smooth="yes"/>
      <point x="41" y="656"/>
      <point x="18" y="676" type="qcurve" smooth="yes"/>
      <point x="15" y="678"/>
      <point x="17" y="684"/>
      <point x="21" y="684" type="qcurve" smooth="yes"/>
      <point x="197" y="684" type="line" smooth="yes"/>
      <point x="201" y="684"/>
      <point x="203" y="678"/>
      <point x="200" y="676" type="qcurve" smooth="yes"/>
      <point x="177" y="656"/>
      <point x="177" y="593" type="qcurve" smooth="yes"/>
      <point x="177" y="375" type="line" smooth="yes"/>
      <point x="177" y="320"/>
      <point x="199" y="267" type="qcurve" smooth="yes"/>
      <point x="268" y="107" type="line"/>
      <point x="337" y="267" type="line" smooth="yes"/>
      <point x="359" y="320"/>
      <point x="359" y="375" type="qcurve" smooth="yes"/>
      <point x="359" y="593" type="line" smooth="yes"/>
      <point x="359" y="657"/>
      <point x="337" y="676" type="qcurve" smooth="yes"/>
      <point x="334" y="678"/>
      <point x="335" y="684"/>
      <point x="340" y="684" type="qcurve" smooth="yes"/>
    </contour>
  </outline>
</glyph>
<glyph name="W" format="2">
  <advance width="842"/>
  <unicode hex="0057"/>
  <outline>
    <contour>
      <point x="830" y="683" type="line" smooth="yes"/>
      <point x="834" y="683"/>
      <point x="836" y="677"/>
      <point x="833" y="675" type="qcurve" smooth="yes"/>
      <point x="811" y="656"/>
      <point x="811" y="592" type="qcurve" smooth="yes"/>
      <point x="811" y="375" type="line" smooth="yes"/>
      <point x="811" y="291"/>
      <point x="777" y="213" type="qcurve" smooth="yes"/>
      <point x="725" y="92" type="line"/>
      <point x="713" y="26"/>
      <point x="732" y="8" type="qcurve" smooth="yes"/>
      <point x="735" y="5"/>
      <point x="733" y="0"/>
      <point x="729" y="0" type="qcurve" smooth="yes"/>
      <point x="454" y="0" type="line" smooth="yes"/>
      <point x="447" y="0"/>
      <point x="449" y="6" type="qcurve" smooth="yes"/>
      <point x="461" y="40"/>
      <point x="440" y="92" type="qcurve"/>
      <point x="423" y="131" type="line"/>
      <point x="407" y="92" type="line" smooth="yes"/>
      <point x="386" y="40"/>
      <point x="398" y="6" type="qcurve"/>
      <point x="399" y="0"/>
      <point x="394" y="0" type="qcurve" smooth="yes"/>
      <point x="118" y="0" type="line" smooth="yes"/>
      <point x="114" y="0"/>
      <point x="112" y="5"/>
      <point x="115" y="8" type="qcurve" smooth="yes"/>
      <point x="134" y="26"/>
      <point x="121" y="92" type="qcurve"/>
      <point x="103" y="135"/>
      <point x="76" y="196"/>
      <point x="57" y="245"/>
      <point x="45" y="288"/>
      <point x="38" y="340"/>
      <point x="36" y="407"/>
      <point x="36" y="455" type="qcurve" smooth="yes"/>
      <point x="36" y="592" type="line" smooth="yes"/>
      <point x="36" y="656"/>
      <point x="14" y="675" type="qcurve" smooth="yes"/>
      <point x="11" y="677"/>
      <point x="12" y="683"/>
      <point x="17" y="683" type="qcurve" smooth="yes"/>
      <point x="193" y="683" type="line" smooth="yes"/>
      <point x="197" y="683"/>
      <point x="198" y="677"/>
      <point x="195" y="675" type="qcurve" smooth="yes"/>
      <point x="173" y="655"/>
      <point x="173" y="592" type="qcurve" smooth="yes"/>
      <point x="173" y="375" type="line" smooth="yes"/>
      <point x="173" y="318"/>
      <point x="195" y="267" type="qcurve" smooth="yes"/>
      <point x="264" y="106" type="line"/>
      <point x="333" y="267" type="line" smooth="yes"/>
      <point x="355" y="318"/>
      <point x="355" y="375" type="qcurve" smooth="yes"/>
      <point x="355" y="592" type="line" smooth="yes"/>
      <point x="355" y="656"/>
      <point x="333" y="675" type="qcurve" smooth="yes"/>
      <point x="330" y="677"/>
      <point x="331" y="683"/>
      <point x="336" y="683" type="qcurve" smooth="yes"/>
      <point x="512" y="683" type="line" smooth="yes"/>
      <point x="516" y="683"/>
      <point x="518" y="677"/>
      <point x="514" y="675" type="qcurve"/>
      <point x="492" y="656"/>
      <point x="492" y="592" type="qcurve" smooth="yes"/>
      <point x="492" y="375" type="line" smooth="yes"/>
      <point x="492" y="318"/>
      <point x="514" y="267" type="qcurve" smooth="yes"/>
      <point x="583" y="106" type="line"/>
      <point x="652" y="267" type="line" smooth="yes"/>
      <point x="674" y="318"/>
      <point x="674" y="375" type="qcurve" smooth="yes"/>
      <point x="674" y="592" type="line" smooth="yes"/>
      <point x="674" y="656"/>
      <point x="651" y="675" type="qcurve" smooth="yes"/>
      <point x="648" y="677"/>
      <point x="650" y="683"/>
      <point x="654" y="683" type="qcurve" smooth="yes"/>
    </contour>
  </outline>
</glyph>
<glyph name="Y" format="2">
  <advance width="526"/>
  <unicode hex="0059"/>
  <outline>
    <contour>
      <point x="510" y="684" type="line" smooth="yes"/>
      <point x="514" y="684"/>
      <point x="516" y="678"/>
      <point x="513" y="675" type="qcurve" smooth="yes"/>
      <point x="490" y="658"/>
      <point x="490" y="592" type="qcurve" smooth="yes"/>
      <point x="490" y="502" type="line" smooth="yes"/>
      <point x="490" y="464"/>
      <point x="467" y="395"/>
      <point x="425" y="338"/>
      <point x="366" y="295"/>
      <point x="331" y="284" type="qcurve"/>
      <point x="331" y="91" type="line" smooth="yes"/>
      <point x="331" y="27"/>
      <point x="353" y="8" type="qcurve" smooth="yes"/>
      <point x="356" y="6"/>
      <point x="355" y="0"/>
      <point x="350" y="0" type="qcurve" smooth="yes"/>
      <point x="174" y="0" type="line" smooth="yes"/>
      <point x="170" y="0"/>
      <point x="169" y="6"/>
      <point x="172" y="8" type="qcurve" smooth="yes"/>
      <point x="194" y="27"/>
      <point x="194" y="91" type="qcurve" smooth="yes"/>
      <point x="194" y="284" type="line"/>
      <point x="158" y="295"/>
      <point x="100" y="338"/>
      <point x="58" y="395"/>
      <point x="35" y="464"/>
      <point x="35" y="502" type="qcurve" smooth="yes"/>
      <point x="35" y="592" type="line" smooth="yes"/>
      <point x="35" y="657"/>
      <point x="12" y="675" type="qcurve" smooth="yes"/>
      <point x="9" y="678"/>
      <point x="11" y="684"/>
      <point x="15" y="684" type="qcurve" smooth="yes"/>
      <point x="191" y="684" type="line" smooth="yes"/>
      <point x="195" y="684"/>
      <point x="197" y="678"/>
      <point x="194" y="675" type="qcurve" smooth="yes"/>
      <point x="171" y="657"/>
      <point x="171" y="592" type="qcurve" smooth="yes"/>
      <point x="171" y="502" type="line" smooth="yes"/>
      <point x="171" y="483"/>
      <point x="185" y="449"/>
      <point x="210" y="424"/>
      <point x="244" y="410"/>
      <point x="263" y="410" type="qcurve" smooth="yes"/>
      <point x="282" y="410"/>
      <point x="315" y="424"/>
      <point x="339" y="449"/>
      <point x="353" y="483"/>
      <point x="353" y="502" type="qcurve" smooth="yes"/>
      <point x="353" y="592" type="line" smooth="yes"/>
      <point x="353" y="657"/>
      <point x="331" y="675" type="qcurve" smooth="yes"/>
      <point x="328" y="678"/>
      <point x="330" y="684"/>
      <point x="334" y="684" type="qcurve" smooth="yes"/>
    </contour>
  </outline>
</glyph>
<glyph name="Z" format="2">
  <advance width="563"/>
  <unicode hex="005A"/>
  <outline>
    <contour>
      <point x="510" y="91" type="line" smooth="yes"/>
      <point x="510" y="26"/>
      <point x="533" y="8" type="qcurve" smooth="yes"/>
      <point x="536" y="5"/>
      <point x="534" y="0"/>
      <point x="530" y="0" type="qcurve" smooth="yes"/>
      <point x="9" y="0" type="line"/>
      <point x="321" y="546" type="line"/>
      <point x="146" y="546" type="line" smooth="yes"/>
      <point x="83" y="546"/>
      <point x="63" y="524" type="qcurve" smooth="yes"/>
      <point x="60" y="521"/>
      <point x="55" y="522"/>
      <point x="55" y="527" type="qcurve" smooth="yes"/>
      <point x="55" y="592" type="line" smooth="yes"/>
      <point x="55" y="655"/>
      <point x="32" y="675" type="qcurve" smooth="yes"/>
      <point x="29" y="677"/>
      <point x="31" y="683"/>
      <point x="35" y="683" type="qcurve" smooth="yes"/>
      <point x="556" y="683" type="line"/>
      <point x="244" y="136" type="line"/>
      <point x="419" y="136" type="line" smooth="yes"/>
      <point x="482" y="136"/>
      <point x="502" y="159" type="qcurve" smooth="yes"/>
      <point x="505" y="162"/>
      <point x="510" y="160"/>
      <point x="510" y="156" type="qcurve" smooth="yes"/>
    </contour>
  </outline>
</glyph>
<glyph name="bracketleft" format="2">
  <advance width="229"/>
  <unicode hex="005B"/>
  <outline>
    <contour>
      <point x="324" y="885" type="qcurve" smooth="yes"/>
      <point x="302" y="866"/>
      <point x="302" y="802" type="qcurve" smooth="yes"/>
      <point x="302" y="737" type="line" smooth="yes"/>
      <point x="302" y="732"/>
      <point x="296" y="731"/>
      <point x="293" y="734" type="qcurve" smooth="yes"/>
      <point x="275" y="756"/>
      <point x="210" y="756" type="qcurve" smooth="yes"/>
      <point x="176" y="756" type="line"/>
      <point x="176" y="-65" type="line"/>
      <point x="210" y="-65" type="line" smooth="yes"/>
      <point x="275" y="-65"/>
      <point x="293" y="-43" type="qcurve" smooth="yes"/>
      <point x="296" y="-40"/>
      <point x="302" y="-41"/>
      <point x="302" y="-46" type="qcurve" smooth="yes"/>
      <point x="302" y="-111" type="line" smooth="yes"/>
      <point x="302" y="-175"/>
      <point x="324" y="-194" type="qcurve" smooth="yes"/>
      <point x="327" y="-196"/>
      <point x="326" y="-202"/>
      <point x="321" y="-202" type="qcurve" smooth="yes"/>
      <point x="19" y="-202" type="line"/>
      <point x="9" y="-200"/>
      <point x="17" y="-194" type="qcurve" smooth="yes"/>
      <point x="39" y="-175"/>
      <point x="39" y="-111" type="qcurve" smooth="yes"/>
      <point x="39" y="802" type="line" smooth="yes"/>
      <point x="39" y="866"/>
      <point x="17" y="885" type="qcurve" smooth="yes"/>
      <point x="9" y="891"/>
      <point x="19" y="893" type="qcurve"/>
      <point x="321" y="893" type="line" smooth="yes"/>
      <point x="326" y="893"/>
      <point x="327" y="887"/>
    </contour>
  </outline>
</glyph>
<glyph name="backslash" format="2">
  <advance width="385"/>
  <unicode hex="005C"/>
  <outline>
    <contour>
      <point x="31" y="683" type="line"/>
      <point x="150" y="683" type="line"/>
      <point x="371" y="0" type="line"/>
      <point x="252" y="0" type="line"/>
    </contour>
  </outline>
</glyph>
<glyph name="bracketright" format="2">
  <advance width="229"/>
  <unicode hex="005D"/>
  <outline>
    <contour>
      <point x="-101" y="885" type="qcurve" smooth="yes"/>
      <point x="-104" y="887"/>
      <point x="-103" y="893"/>
      <point x="-98" y="893" type="qcurve" smooth="yes"/>
      <point x="204" y="893" type="line"/>
      <point x="214" y="891"/>
      <point x="206" y="885" type="qcurve" smooth="yes"/>
      <point x="184" y="866"/>
      <point x="184" y="802" type="qcurve" smooth="yes"/>
      <point x="184" y="-111" type="line" smooth="yes"/>
      <point x="184" y="-175"/>
      <point x="206" y="-194" type="qcurve" smooth="yes"/>
      <point x="214" y="-200"/>
      <point x="204" y="-202" type="qcurve"/>
      <point x="-98" y="-202" type="line" smooth="yes"/>
      <point x="-103" y="-202"/>
      <point x="-104" y="-196"/>
      <point x="-101" y="-194" type="qcurve" smooth="yes"/>
      <point x="-79" y="-175"/>
      <point x="-79" y="-111" type="qcurve" smooth="yes"/>
      <point x="-79" y="-46" type="line" smooth="yes"/>
      <point x="-79" y="-41"/>
      <point x="-73" y="-40"/>
      <point x="-70" y="-43" type="qcurve" smooth="yes"/>
      <point x="-52" y="-65"/>
      <point x="13" y="-65" type="qcurve" smooth="yes"/>
      <point x="47" y="-65" type="line"/>
      <point x="47" y="756" type="line"/>
      <point x="13" y="756" type="line" smooth="yes"/>
      <point x="-52" y="756"/>
      <point x="-70" y="734" type="qcurve" smooth="yes"/>
      <point x="-73" y="731"/>
      <point x="-79" y="732"/>
      <point x="-79" y="737" type="qcurve" smooth="yes"/>
      <point x="-79" y="802" type="line" smooth="yes"/>
      <point x="-79" y="866"/>
    </contour>
  </outline>
</glyph>
<glyph name="underscore" format="2">
  <advance width="480"/>
  <unicode hex="005F"/>
  <outline>
    <contour>
      <point x="26" y="-33" type="line"/>
      <point x="451" y="-33" type="line"/>
      <point x="451" y="-138" type="line"/>
      <point x="26" y="-138" type="line"/>
    </contour>
  </outline>
</glyph>
<glyph name="grave" format="2">
  <advance width="253"/>
  <unicode hex="0060"/>
  <outline>
    <contour>
      <point x="97" y="729" type="line"/>
      <point x="30" y="852" type="line"/>
      <point x="166" y="852" type="line"/>
      <point x="230" y="729" type="line"/>
    </contour>
  </outline>
</glyph>
<glyph name="c" format="2">
  <advance width="533"/>
  <unicode hex="0063"/>
  <outline>
    <contour>
      <point x="353" y="228" type="qcurve" smooth="yes"/>
      <point x="515" y="228" type="line"/>
      <point x="515" y="181"/>
      <point x="479" y="98"/>
      <point x="417" y="36"/>
      <point x="334" y="0"/>
      <point x="287" y="0" type="qcurve" smooth="yes"/>
      <point x="241" y="0" type="line" smooth="yes"/>
      <point x="194" y="0"/>
      <point x="111" y="36"/>
      <point x="49" y="98"/>
      <point x="14" y="181"/>
      <point x="14" y="228" type="qcurve" smooth="yes"/>
      <point x="14" y="456" type="line" smooth="yes"/>
      <point x="14" y="503"/>
      <point x="49" y="586"/>
      <point x="111" y="648"/>
      <point x="194" y="684"/>
      <point x="241" y="684" type="qcurve" smooth="yes"/>
      <point x="287" y="684" type="line" smooth="yes"/>
      <point x="334" y="684"/>
      <point x="417" y="648"/>
      <point x="479" y="586"/>
      <point x="515" y="503"/>
      <point x="515" y="456" type="qcurve"/>
      <point x="353" y="456" type="line" smooth="yes"/>
      <point x="345" y="456"/>
      <point x="350" y="463" type="qcurve" smooth="yes"/>
      <point x="367" y="486"/>
      <point x="348" y="519" type="qcurve"/>
      <point x="344" y="524"/>
      <point x="336" y="533"/>
      <point x="330" y="536" type="qcurve" smooth="yes"/>
      <point x="311" y="547"/>
      <point x="287" y="547" type="qcurve" smooth="yes"/>
      <point x="241" y="547" type="line" smooth="yes"/>
      <point x="203" y="547"/>
      <point x="150" y="494"/>
      <point x="150" y="456" type="qcurve" smooth="yes"/>
      <point x="150" y="228" type="line" smooth="yes"/>
      <point x="150" y="190"/>
      <point x="203" y="137"/>
      <point x="241" y="137" type="qcurve" smooth="yes"/>
      <point x="287" y="137" type="line" smooth="yes"/>
      <point x="299" y="137"/>
      <point x="319" y="143"/>
      <point x="330" y="148" type="qcurve" smooth="yes"/>
      <point x="340" y="153"/>
      <point x="348" y="166" type="qcurve" smooth="yes"/>
      <point x="367" y="198"/>
      <point x="350" y="221" type="qcurve" smooth="yes"/>
      <point x="345" y="228"/>
    </contour>
  </outline>
</glyph>
<glyph name="d" format="2">
  <advance width="534"/>
  <unicode hex="0064"/>
  <outline>
    <contour>
      <point x="275" y="684" type="line" smooth="yes"/>
      <point x="322" y="684"/>
      <point x="405" y="648"/>
      <point x="466" y="586"/>
      <point x="502" y="503"/>
      <point x="502" y="456" type="qcurve" smooth="yes"/>
      <point x="502" y="228" type="line" smooth="yes"/>
      <point x="502" y="181"/>
      <point x="466" y="98"/>
      <point x="405" y="36"/>
      <point x="322" y="0"/>
      <point x="275" y="0" type="qcurve" smooth="yes"/>
      <point x="27" y="0" type="line" smooth="yes"/>
      <point x="23" y="0"/>
      <point x="21" y="6"/>
      <point x="25" y="9" type="qcurve" smooth="yes"/>
      <point x="47" y="28"/>
      <point x="47" y="92" type="qcurve" smooth="yes"/>
      <point x="47" y="593" type="line" smooth="yes"/>
      <point x="47" y="656"/>
      <point x="25" y="676" type="qcurve"/>
      <point x="21" y="678"/>
      <point x="23" y="684"/>
      <point x="27" y="684" type="qcurve" smooth="yes"/>
    </contour>
    <contour>
      <point x="275" y="137" type="line" smooth="yes"/>
      <point x="313" y="137"/>
      <point x="366" y="190"/>
      <point x="366" y="228" type="qcurve" smooth="yes"/>
      <point x="366" y="456" type="line" smooth="yes"/>
      <point x="366" y="494"/>
      <point x="313" y="547"/>
      <point x="275" y="547" type="qcurve" smooth="yes"/>
      <point x="184" y="547" type="line"/>
      <point x="184" y="137" type="line"/>
    </contour>
  </outline>
</glyph>
<glyph name="g" format="2">
  <advance width="529"/>
  <unicode hex="0067"/>
  <outline>
    <contour>
      <point x="195" y="364" type="qcurve" smooth="yes"/>
      <point x="514" y="364" type="line"/>
      <point x="514" y="228" type="line" smooth="yes"/>
      <point x="514" y="181"/>
      <point x="478" y="98"/>
      <point x="416" y="36"/>
      <point x="333" y="0"/>
      <point x="286" y="0" type="qcurve" smooth="yes"/>
      <point x="240" y="0" type="line" smooth="yes"/>
      <point x="193" y="0"/>
      <point x="110" y="36"/>
      <point x="49" y="98"/>
      <point x="13" y="181"/>
      <point x="13" y="228" type="qcurve" smooth="yes"/>
      <point x="13" y="456" type="line" smooth="yes"/>
      <point x="13" y="503"/>
      <point x="49" y="586"/>
      <point x="110" y="647"/>
      <point x="193" y="683"/>
      <point x="240" y="683" type="qcurve" smooth="yes"/>
      <point x="286" y="683" type="line" smooth="yes"/>
      <point x="333" y="683"/>
      <point x="416" y="647"/>
      <point x="478" y="586"/>
      <point x="514" y="503"/>
      <point x="514" y="456" type="qcurve"/>
      <point x="352" y="456" type="line" smooth="yes"/>
      <point x="344" y="456"/>
      <point x="349" y="463" type="qcurve" smooth="yes"/>
      <point x="367" y="485"/>
      <point x="347" y="518" type="qcurve"/>
      <point x="341" y="530"/>
      <point x="329" y="536" type="qcurve" smooth="yes"/>
      <point x="309" y="547"/>
      <point x="286" y="547" type="qcurve" smooth="yes"/>
      <point x="240" y="547" type="line" smooth="yes"/>
      <point x="202" y="547"/>
      <point x="149" y="494"/>
      <point x="149" y="456" type="qcurve" smooth="yes"/>
      <point x="149" y="228" type="line" smooth="yes"/>
      <point x="149" y="190"/>
      <point x="202" y="137"/>
      <point x="240" y="137" type="qcurve" smooth="yes"/>
      <point x="286" y="137" type="line" smooth="yes"/>
      <point x="311" y="137"/>
      <point x="329" y="148" type="qcurve"/>
      <point x="352" y="160"/>
      <point x="377" y="202"/>
      <point x="377" y="228" type="qcurve"/>
      <point x="214" y="228" type="line"/>
      <point x="214" y="274" type="line" smooth="yes"/>
      <point x="214" y="338"/>
      <point x="192" y="357" type="qcurve" smooth="yes"/>
      <point x="189" y="359"/>
      <point x="190" y="364"/>
    </contour>
  </outline>
</glyph>
<glyph name="h" format="2">
  <advance width="541"/>
  <unicode hex="0068"/>
  <outline>
    <contour>
      <point x="497" y="91" type="line" smooth="yes"/>
      <point x="497" y="27"/>
      <point x="519" y="8" type="qcurve" smooth="yes"/>
      <point x="522" y="6"/>
      <point x="521" y="0"/>
      <point x="516" y="0" type="qcurve" smooth="yes"/>
      <point x="340" y="0" type="line" smooth="yes"/>
      <point x="336" y="0"/>
      <point x="334" y="6"/>
      <point x="338" y="8" type="qcurve"/>
      <point x="360" y="28"/>
      <point x="360" y="91" type="qcurve" smooth="yes"/>
      <point x="360" y="273" type="line"/>
      <point x="178" y="273" type="line"/>
      <point x="178" y="91" type="line" smooth="yes"/>
      <point x="178" y="27"/>
      <point x="200" y="8" type="qcurve" smooth="yes"/>
      <point x="203" y="6"/>
      <point x="201" y="0"/>
      <point x="197" y="0" type="qcurve" smooth="yes"/>
      <point x="22" y="0" type="line" smooth="yes"/>
      <point x="17" y="0"/>
      <point x="15" y="6"/>
      <point x="19" y="8" type="qcurve"/>
      <point x="41" y="27"/>
      <point x="41" y="91" type="qcurve" smooth="yes"/>
      <point x="41" y="592" type="line" smooth="yes"/>
      <point x="41" y="657"/>
      <point x="19" y="675" type="qcurve" smooth="yes"/>
      <point x="15" y="678"/>
      <point x="17" y="683"/>
      <point x="22" y="683" type="qcurve" smooth="yes"/>
      <point x="197" y="683" type="line" smooth="yes"/>
      <point x="201" y="683"/>
      <point x="203" y="678"/>
      <point x="200" y="675" type="qcurve" smooth="yes"/>
      <point x="178" y="657"/>
      <point x="178" y="592" type="qcurve" smooth="yes"/>
      <point x="178" y="410" type="line"/>
      <point x="360" y="410" type="line"/>
      <point x="360" y="592" type="line" smooth="yes"/>
      <point x="360" y="656"/>
      <point x="338" y="675" type="qcurve" smooth="yes"/>
      <point x="334" y="678"/>
      <point x="336" y="683"/>
      <point x="340" y="683" type="qcurve" smooth="yes"/>
      <point x="516" y="683" type="line" smooth="yes"/>
      <point x="527" y="683"/>
      <point x="519" y="675" type="qcurve"/>
      <point x="497" y="657"/>
      <point x="497" y="592" type="qcurve" smooth="yes"/>
    </contour>
  </outline>
</glyph>
<glyph name="i" format="2">
  <advance width="231"/>
  <unicode hex="0069"/>
  <outline>
    <contour>
      <point x="186" y="91" type="line" smooth="yes"/>
      <point x="186" y="27"/>
      <point x="209" y="8" type="qcurve" smooth="yes"/>
      <point x="211" y="6"/>
      <point x="210" y="0"/>
      <point x="205" y="0" type="qcurve" smooth="yes"/>
      <point x="30" y="0" type="line" smooth="yes"/>
      <point x="25" y="0"/>
      <point x="24" y="6"/>
      <point x="27" y="8" type="qcurve" smooth="yes"/>
      <point x="49" y="27"/>
      <point x="49" y="91" type="qcurve" smooth="yes"/>
      <point x="49" y="592" type="line" smooth="yes"/>
      <point x="49" y="657"/>
      <point x="27" y="675" type="qcurve"/>
      <point x="19" y="683"/>
      <point x="30" y="683" type="qcurve" smooth="yes"/>
      <point x="205" y="683" type="line" smooth="yes"/>
      <point x="215" y="683"/>
      <point x="209" y="675" type="qcurve"/>
      <point x="186" y="658"/>
      <point x="186" y="592" type="qcurve" smooth="yes"/>
    </contour>
  </outline>
</glyph>
<glyph name="p" format="2">
  <advance width="510"/>
  <unicode hex="0070"/>
  <outline>
    <contour>
      <point x="268" y="683" type="line" smooth="yes"/>
      <point x="320" y="683"/>
      <point x="406" y="643"/>
      <point x="465" y="578"/>
      <point x="497" y="494"/>
      <point x="496" y="405"/>
      <point x="458" y="319"/>
      <point x="419" y="285" type="qcurve" smooth="yes"/>
      <point x="385" y="255"/>
      <point x="314" y="228"/>
      <point x="268" y="228" type="qcurve" smooth="yes"/>
      <point x="177" y="228" type="line"/>
      <point x="177" y="91" type="line" smooth="yes"/>
      <point x="177" y="28"/>
      <point x="200" y="8" type="qcurve" smooth="yes"/>
      <point x="203" y="6"/>
      <point x="201" y="0"/>
      <point x="197" y="0" type="qcurve" smooth="yes"/>
      <point x="21" y="0" type="line" smooth="yes"/>
      <point x="17" y="0"/>
      <point x="15" y="6"/>
      <point x="18" y="8" type="qcurve" smooth="yes"/>
      <point x="41" y="28"/>
      <point x="41" y="91" type="qcurve" smooth="yes"/>
      <point x="41" y="592" type="line" smooth="yes"/>
      <point x="41" y="657"/>
      <point x="18" y="675" type="qcurve" smooth="yes"/>
      <point x="15" y="678"/>
      <point x="17" y="683"/>
      <point x="21" y="683" type="qcurve" smooth="yes"/>
    </contour>
    <contour>
      <point x="268" y="365" type="line" smooth="yes"/>
      <point x="306" y="365"/>
      <point x="359" y="418"/>
      <point x="359" y="456" type="qcurve" smooth="yes"/>
      <point x="359" y="475"/>
      <point x="345" y="508"/>
      <point x="320" y="533"/>
      <point x="287" y="547"/>
      <point x="268" y="547" type="qcurve" smooth="yes"/>
      <point x="177" y="547" type="line"/>
      <point x="177" y="365" type="line"/>
    </contour>
  </outline>
</glyph>
<glyph name="r" format="2">
  <advance width="502"/>
  <unicode hex="0072"/>
  <outline>
    <contour>
      <point x="489" y="8" type="qcurve" smooth="yes"/>
      <point x="492" y="6"/>
      <point x="490" y="0"/>
      <point x="486" y="0" type="qcurve" smooth="yes"/>
      <point x="310" y="0" type="line" smooth="yes"/>
      <point x="306" y="0"/>
      <point x="304" y="6"/>
      <point x="307" y="8" type="qcurve" smooth="yes"/>
      <point x="330" y="27"/>
      <point x="330" y="91" type="qcurve" smooth="yes"/>
      <point x="330" y="160" type="line" smooth="yes"/>
      <point x="330" y="188"/>
      <point x="309" y="238"/>
      <point x="271" y="275"/>
      <point x="221" y="296"/>
      <point x="193" y="296" type="qcurve" smooth="yes"/>
      <point x="171" y="296" type="line"/>
      <point x="171" y="91" type="line" smooth="yes"/>
      <point x="171" y="27"/>
      <point x="193" y="8" type="qcurve" smooth="yes"/>
      <point x="196" y="6"/>
      <point x="195" y="0"/>
      <point x="190" y="0" type="qcurve" smooth="yes"/>
      <point x="14" y="0" type="line" smooth="yes"/>
      <point x="10" y="0"/>
      <point x="8" y="6"/>
      <point x="12" y="8" type="qcurve"/>
      <point x="34" y="28"/>
      <point x="34" y="91" type="qcurve" smooth="yes"/>
      <point x="34" y="592" type="line" smooth="yes"/>
      <point x="34" y="655"/>
      <point x="12" y="674" type="qcurve" smooth="yes"/>
      <point x="8" y="677"/>
      <point x="10" y="683"/>
      <point x="14" y="683" type="qcurve" smooth="yes"/>
      <point x="272" y="683" type="line" smooth="yes"/>
      <point x="312" y="683"/>
      <point x="383" y="652"/>
      <point x="436" y="600"/>
      <point x="467" y="529"/>
      <point x="467" y="489" type="qcurve" smooth="yes"/>
      <point x="467" y="446"/>
      <point x="431" y="368"/>
      <point x="398" y="341" type="qcurve"/>
      <point x="434" y="299"/>
      <point x="467" y="214"/>
      <point x="467" y="160" type="qcurve" smooth="yes"/>
      <point x="467" y="91" type="line" smooth="yes"/>
      <point x="467" y="27"/>
    </contour>
    <contour>
      <point x="272" y="431" type="line" smooth="yes"/>
      <point x="296" y="431"/>
      <point x="330" y="464"/>
      <point x="330" y="489" type="qcurve" smooth="yes"/>
      <point x="330" y="513"/>
      <point x="296" y="547"/>
      <point x="272" y="547" type="qcurve" smooth="yes"/>
      <point x="171" y="547" type="line"/>
      <point x="171" y="431" type="line"/>
    </contour>
  </outline>
</glyph>
<glyph name="t" format="2">
  <advance width="530"/>
  <unicode hex="0074"/>
  <outline>
    <contour>
      <point x="512" y="683" type="line" smooth="yes"/>
      <point x="516" y="683"/>
      <point x="518" y="678"/>
      <point x="514" y="675" type="qcurve" smooth="yes"/>
      <point x="509" y="670"/>
      <point x="501" y="654"/>
      <point x="495" y="625"/>
      <point x="492" y="580"/>
      <point x="492" y="547" type="qcurve" smooth="yes"/>
      <point x="492" y="527" type="line" smooth="yes"/>
      <point x="492" y="523"/>
      <point x="486" y="521"/>
      <point x="484" y="524" type="qcurve" smooth="yes"/>
      <point x="464" y="547"/>
      <point x="401" y="547" type="qcurve" smooth="yes"/>
      <point x="332" y="547" type="line"/>
      <point x="332" y="91" type="line" smooth="yes"/>
      <point x="332" y="27"/>
      <point x="354" y="8" type="qcurve" smooth="yes"/>
      <point x="357" y="6"/>
      <point x="356" y="0"/>
      <point x="351" y="0" type="qcurve" smooth="yes"/>
      <point x="175" y="0" type="line" smooth="yes"/>
      <point x="171" y="0"/>
      <point x="169" y="6"/>
      <point x="173" y="8" type="qcurve"/>
      <point x="195" y="28"/>
      <point x="195" y="91" type="qcurve" smooth="yes"/>
      <point x="195" y="547" type="line"/>
      <point x="126" y="547" type="line" smooth="yes"/>
      <point x="61" y="547"/>
      <point x="43" y="524" type="qcurve" smooth="yes"/>
      <point x="40" y="521"/>
      <point x="35" y="523"/>
      <point x="35" y="527" type="qcurve" smooth="yes"/>
      <point x="35" y="592" type="line" smooth="yes"/>
      <point x="35" y="655"/>
      <point x="12" y="675" type="qcurve" smooth="yes"/>
      <point x="9" y="678"/>
      <point x="11" y="683"/>
      <point x="15" y="683" type="qcurve" smooth="yes"/>
    </contour>
  </outline>
</glyph>
<glyph name="u" format="2">
  <advance width="529"/>
  <unicode hex="0075"/>
  <outline>
    <contour>
      <point x="512" y="683" type="line" smooth="yes"/>
      <point x="516" y="683"/>
      <point x="518" y="678"/>
      <point x="514" y="675" type="qcurve" smooth="yes"/>
      <point x="492" y="656"/>
      <point x="492" y="592" type="qcurve" smooth="yes"/>
      <point x="492" y="228" type="line" smooth="yes"/>
      <point x="492" y="181"/>
      <point x="456" y="98"/>
      <point x="394" y="36"/>
      <point x="311" y="0"/>
      <point x="264" y="0" type="qcurve" smooth="yes"/>
      <point x="217" y="0"/>
      <point x="134" y="36"/>
      <point x="72" y="98"/>
      <point x="37" y="181"/>
      <point x="37" y="228" type="qcurve" smooth="yes"/>
      <point x="37" y="592" type="line" smooth="yes"/>
      <point x="37" y="657"/>
      <point x="14" y="675" type="qcurve" smooth="yes"/>
      <point x="11" y="678"/>
      <point x="13" y="683"/>
      <point x="17" y="683" type="qcurve" smooth="yes"/>
      <point x="193" y="683" type="line" smooth="yes"/>
      <point x="197" y="683"/>
      <point x="199" y="678"/>
      <point x="196" y="675" type="qcurve" smooth="yes"/>
      <point x="173" y="657"/>
      <point x="173" y="592" type="qcurve" smooth="yes"/>
      <point x="173" y="228" type="line" smooth="yes"/>
      <point x="173" y="209"/>
      <point x="187" y="176"/>
      <point x="212" y="151"/>
      <point x="245" y="137"/>
      <point x="264" y="137" type="qcurve" smooth="yes"/>
      <point x="302" y="137"/>
      <point x="355" y="190"/>
      <point x="355" y="228" type="qcurve" smooth="yes"/>
      <point x="355" y="592" type="line" smooth="yes"/>
      <point x="355" y="657"/>
      <point x="333" y="675" type="qcurve"/>
      <point x="325" y="683"/>
      <point x="336" y="683" type="qcurve" smooth="yes"/>
    </contour>
  </outline>
</glyph>
<glyph name="x" format="2">
  <advance width="526"/>
  <unicode hex="0078"/>
  <outline>
    <contour>
      <point x="480" y="91" type="line" smooth="yes"/>
      <point x="480" y="27"/>
      <point x="502" y="8" type="qcurve" smooth="yes"/>
      <point x="505" y="6"/>
      <point x="504" y="0"/>
      <point x="499" y="0" type="qcurve" smooth="yes"/>
      <point x="323" y="0" type="line" smooth="yes"/>
      <point x="319" y="0"/>
      <point x="317" y="6"/>
      <point x="321" y="8" type="qcurve"/>
      <point x="343" y="27"/>
      <point x="343" y="91" type="qcurve" smooth="yes"/>
      <point x="343" y="159" type="line" smooth="yes"/>
      <point x="343" y="201"/>
      <point x="298" y="269"/>
      <point x="260" y="285" type="qcurve"/>
      <point x="222" y="269"/>
      <point x="177" y="201"/>
      <point x="177" y="159" type="qcurve" smooth="yes"/>
      <point x="177" y="91" type="line" smooth="yes"/>
      <point x="177" y="27"/>
      <point x="199" y="8" type="qcurve" smooth="yes"/>
      <point x="202" y="6"/>
      <point x="201" y="0"/>
      <point x="196" y="0" type="qcurve" smooth="yes"/>
      <point x="20" y="0" type="line" smooth="yes"/>
      <point x="16" y="0"/>
      <point x="14" y="6"/>
      <point x="18" y="8" type="qcurve"/>
      <point x="40" y="28"/>
      <point x="40" y="91" type="qcurve" smooth="yes"/>
      <point x="40" y="159" type="line" smooth="yes"/>
      <point x="40" y="219"/>
      <point x="88" y="326"/>
      <point x="132" y="364" type="qcurve"/>
      <point x="88" y="403"/>
      <point x="40" y="510"/>
      <point x="40" y="569" type="qcurve" smooth="yes"/>
      <point x="40" y="592" type="line" smooth="yes"/>
      <point x="40" y="655"/>
      <point x="18" y="675" type="qcurve"/>
      <point x="14" y="677"/>
      <point x="16" y="683"/>
      <point x="20" y="683" type="qcurve" smooth="yes"/>
      <point x="196" y="683" type="line" smooth="yes"/>
      <point x="201" y="683"/>
      <point x="202" y="677"/>
      <point x="199" y="675" type="qcurve" smooth="yes"/>
      <point x="177" y="656"/>
      <point x="177" y="592" type="qcurve" smooth="yes"/>
      <point x="177" y="569" type="line" smooth="yes"/>
      <point x="177" y="527"/>
      <point x="222" y="460"/>
      <point x="260" y="443" type="qcurve"/>
      <point x="298" y="460"/>
      <point x="343" y="527"/>
      <point x="343" y="569" type="qcurve" smooth="yes"/>
      <point x="343" y="592" type="line" smooth="yes"/>
      <point x="343" y="656"/>
      <point x="321" y="675" type="qcurve"/>
      <point x="317" y="677"/>
      <point x="319" y="683"/>
      <point x="323" y="683" type="qcurve" smooth="yes"/>
      <point x="499" y="683" type="line" smooth="yes"/>
      <point x="504" y="683"/>
      <point x="505" y="677"/>
      <point x="502" y="675" type="qcurve" smooth="yes"/>
      <point x="480" y="656"/>
      <point x="480" y="592" type="qcurve" smooth="yes"/>
      <point x="480" y="569" type="line" smooth="yes"/>
      <point x="480" y="510"/>
      <point x="432" y="403"/>
      <point x="387" y="364" type="qcurve"/>
      <point x="432" y="326"/>
      <point x="480" y="219"/>
      <point x="480" y="159" type="qcurve" smooth="yes"/>
    </contour>
  </outline>
</glyph>
<glyph name="braceleft" format="2">
  <advance width="313"/>
  <unicode hex="007B"/>
  <outline>
    <contour>
      <point x="221" y="18" type="line" smooth="yes"/>
      <point x="221" y="4"/>
      <point x="227" y="-10" type="qcurve" smooth="yes"/>
      <point x="232" y="-20"/>
      <point x="264" y="-37"/>
      <point x="283" y="-27" type="qcurve" smooth="yes"/>
      <point x="289" y="-23"/>
      <point x="289" y="-31" type="qcurve" smooth="yes"/>
      <point x="289" y="-187" type="line"/>
      <point x="247" y="-187"/>
      <point x="172" y="-155"/>
      <point x="116" y="-99"/>
      <point x="84" y="-25"/>
      <point x="84" y="18" type="qcurve" smooth="yes"/>
      <point x="84" y="193" type="line" smooth="yes"/>
      <point x="84" y="207"/>
      <point x="78" y="221" type="qcurve" smooth="yes"/>
      <point x="73" y="231"/>
      <point x="41" y="248"/>
      <point x="22" y="238" type="qcurve" smooth="yes"/>
      <point x="16" y="234"/>
      <point x="16" y="242" type="qcurve" smooth="yes"/>
      <point x="16" y="469" type="line" smooth="yes"/>
      <point x="16" y="477"/>
      <point x="22" y="473" type="qcurve" smooth="yes"/>
      <point x="41" y="463"/>
      <point x="73" y="480"/>
      <point x="78" y="490" type="qcurve" smooth="yes"/>
      <point x="84" y="504"/>
      <point x="84" y="518" type="qcurve" smooth="yes"/>
      <point x="84" y="667" type="line" smooth="yes"/>
      <point x="84" y="710"/>
      <point x="116" y="784"/>
      <point x="172" y="840"/>
      <point x="247" y="872"/>
      <point x="289" y="872" type="qcurve"/>
      <point x="289" y="716" type="line" smooth="yes"/>
      <point x="289" y="708"/>
      <point x="283" y="712" type="qcurve" smooth="yes"/>
      <point x="264" y="722"/>
      <point x="232" y="705"/>
      <point x="227" y="695" type="qcurve" smooth="yes"/>
      <point x="221" y="681"/>
      <point x="221" y="667" type="qcurve" smooth="yes"/>
      <point x="221" y="518" type="line" smooth="yes"/>
      <point x="221" y="475"/>
      <point x="189" y="401"/>
      <point x="161" y="373" type="qcurve" smooth="yes"/>
      <point x="151" y="363"/>
      <point x="141" y="355" type="qcurve"/>
      <point x="151" y="347"/>
      <point x="161" y="338" type="qcurve" smooth="yes"/>
      <point x="189" y="310"/>
      <point x="221" y="236"/>
      <point x="221" y="193" type="qcurve" smooth="yes"/>
    </contour>
  </outline>
</glyph>
<glyph name="bar" format="2">
  <advance width="163"/>
  <unicode hex="007C"/>
  <outline>
    <contour>
      <point x="132" y="-132" type="line"/>
      <point x="28" y="-132" type="line"/>
      <point x="28" y="796" type="line"/>
      <point x="132" y="796" type="line"/>
    </contour>
  </outline>
</glyph>
<glyph name="braceright" format="2">
  <advance width="313"/>
  <unicode hex="007D"/>
  <outline>
    <contour>
      <point x="84" y="193" type="line" smooth="yes"/>
      <point x="84" y="236"/>
      <point x="116" y="310"/>
      <point x="144" y="338" type="qcurve" smooth="yes"/>
      <point x="154" y="347"/>
      <point x="164" y="355" type="qcurve"/>
      <point x="154" y="363"/>
      <point x="144" y="373" type="qcurve" smooth="yes"/>
      <point x="116" y="401"/>
      <point x="84" y="475"/>
      <point x="84" y="518" type="qcurve" smooth="yes"/>
      <point x="84" y="667" type="line" smooth="yes"/>
      <point x="84" y="681"/>
      <point x="78" y="695" type="qcurve" smooth="yes"/>
      <point x="73" y="705"/>
      <point x="41" y="722"/>
      <point x="22" y="712" type="qcurve" smooth="yes"/>
      <point x="16" y="708"/>
      <point x="16" y="716" type="qcurve" smooth="yes"/>
      <point x="16" y="872" type="line"/>
      <point x="58" y="872"/>
      <point x="133" y="840"/>
      <point x="189" y="784"/>
      <point x="221" y="710"/>
      <point x="221" y="667" type="qcurve" smooth="yes"/>
      <point x="221" y="518" type="line" smooth="yes"/>
      <point x="221" y="504"/>
      <point x="227" y="490" type="qcurve" smooth="yes"/>
      <point x="232" y="480"/>
      <point x="264" y="463"/>
      <point x="283" y="473" type="qcurve" smooth="yes"/>
      <point x="289" y="477"/>
      <point x="289" y="469" type="qcurve" smooth="yes"/>
      <point x="289" y="242" type="line" smooth="yes"/>
      <point x="289" y="234"/>
      <point x="283" y="238" type="qcurve" smooth="yes"/>
      <point x="264" y="248"/>
      <point x="232" y="231"/>
      <point x="227" y="221" type="qcurve" smooth="yes"/>
      <point x="221" y="207"/>
      <point x="221" y="193" type="qcurve" smooth="yes"/>
      <point x="221" y="18" type="line" smooth="yes"/>
      <point x="221" y="-25"/>
      <point x="189" y="-99"/>
      <point x="133" y="-155"/>
      <point x="58" y="-187"/>
      <point x="16" y="-187" type="qcurve"/>
      <point x="16" y="-31" type="line" smooth="yes"/>
      <point x="16" y="-23"/>
      <point x="22" y="-27" type="qcurve" smooth="yes"/>
      <point x="41" y="-37"/>
      <point x="73" y="-20"/>
      <point x="78" y="-10" type="qcurve" smooth="yes"/>
      <point x="84" y="4"/>
      <point x="84" y="18" type="qcurve" smooth="yes"/>
    </contour>
  </outline>
</glyph>
<glyph name="asciitilde" format="2">
  <advance width="513"/>
  <unicode hex="007E"/>
  <outline>
    <contour>
      <point x="487" y="342" type="line"/>
      <point x="470" y="326"/>
      <point x="433" y="293"/>
      <point x="393" y="266"/>
      <point x="349" y="249"/>
      <point x="324" y="249" type="qcurve" smooth="yes"/>
      <point x="302" y="249"/>
      <point x="263" y="268"/>
      <point x="229" y="291"/>
      <point x="200" y="310"/>
      <point x="189" y="310" type="qcurve" smooth="yes"/>
      <point x="179" y="310"/>
      <point x="148" y="296"/>
      <point x="116" y="277"/>
      <point x="89" y="255"/>
      <point x="83" y="247" type="qcurve"/>
      <point x="19" y="344" type="line"/>
      <point x="38" y="360"/>
      <point x="76" y="392"/>
      <point x="118" y="418"/>
      <point x="164" y="434"/>
      <point x="191" y="434" type="qcurve" smooth="yes"/>
      <point x="210" y="434"/>
      <point x="242" y="416"/>
      <point x="273" y="395"/>
      <point x="306" y="378"/>
      <point x="326" y="378" type="qcurve" smooth="yes"/>
      <point x="353" y="378"/>
      <point x="401" y="413"/>
      <point x="419" y="433" type="qcurve"/>
    </contour>
  </outline>
</glyph>
<glyph name="exclamdown" format="2">
  <advance width="215"/>
  <unicode hex="00A1"/>
  <outline>
    <contour>
      <point x="173" y="408" type="qcurve" smooth="yes"/>
      <point x="173" y="89" type="line" smooth="yes"/>
      <point x="173" y="27"/>
      <point x="195" y="8" type="qcurve" smooth="yes"/>
      <point x="198" y="6"/>
      <point x="196" y="0"/>
      <point x="192" y="0" type="qcurve" smooth="yes"/>
      <point x="20" y="0" type="line" smooth="yes"/>
      <point x="16" y="0"/>
      <point x="14" y="6"/>
      <point x="17" y="8" type="qcurve" smooth="yes"/>
      <point x="39" y="27"/>
      <point x="39" y="89" type="qcurve" smooth="yes"/>
      <point x="39" y="408" type="line" smooth="yes"/>
      <point x="39" y="471"/>
      <point x="17" y="489" type="qcurve" smooth="yes"/>
      <point x="14" y="492"/>
      <point x="16" y="497"/>
      <point x="20" y="497" type="qcurve" smooth="yes"/>
      <point x="192" y="497" type="line" smooth="yes"/>
      <point x="196" y="497"/>
      <point x="198" y="492"/>
      <point x="195" y="489" type="qcurve" smooth="yes"/>
      <point x="173" y="471"/>
    </contour>
    <contour>
      <point x="103" y="550" type="qcurve" smooth="yes"/>
      <point x="75" y="550"/>
      <point x="36" y="589"/>
      <point x="36" y="616" type="qcurve" smooth="yes"/>
      <point x="36" y="645"/>
      <point x="75" y="683"/>
      <point x="103" y="683" type="qcurve" smooth="yes"/>
      <point x="131" y="683"/>
      <point x="170" y="645"/>
      <point x="170" y="616" type="qcurve" smooth="yes"/>
      <point x="170" y="589"/>
      <point x="131" y="550"/>
    </contour>
  </outline>
</glyph>
<glyph name="cent" format="2">
  <advance width="394"/>
  <unicode hex="00A2"/>
  <outline>
    <contour>
      <point x="239" y="0" type="line"/>
      <point x="156" y="0" type="line"/>
      <point x="156" y="144" type="line"/>
      <point x="135" y="147"/>
      <point x="116" y="156" type="qcurve" smooth="yes"/>
      <point x="87" y="169"/>
      <point x="43" y="213"/>
      <point x="19" y="271"/>
      <point x="19" y="305" type="qcurve" smooth="yes"/>
      <point x="19" y="392" type="line" smooth="yes"/>
      <point x="19" y="425"/>
      <point x="43" y="484"/>
      <point x="87" y="528"/>
      <point x="116" y="541" type="qcurve" smooth="yes"/>
      <point x="135" y="549"/>
      <point x="156" y="552" type="qcurve"/>
      <point x="156" y="700" type="line"/>
      <point x="239" y="700" type="line"/>
      <point x="239" y="552" type="line"/>
      <point x="257" y="548"/>
      <point x="274" y="541" type="qcurve" smooth="yes"/>
      <point x="304" y="528"/>
      <point x="348" y="484"/>
      <point x="373" y="425"/>
      <point x="373" y="392" type="qcurve"/>
      <point x="259" y="392" type="line" smooth="yes"/>
      <point x="253" y="392"/>
      <point x="256" y="397" type="qcurve" smooth="yes"/>
      <point x="268" y="413"/>
      <point x="255" y="437" type="qcurve"/>
      <point x="252" y="440"/>
      <point x="247" y="447"/>
      <point x="242" y="449" type="qcurve"/>
      <point x="229" y="457"/>
      <point x="212" y="457" type="qcurve" smooth="yes"/>
      <point x="179" y="457" type="line" smooth="yes"/>
      <point x="152" y="457"/>
      <point x="115" y="419"/>
      <point x="115" y="392" type="qcurve" smooth="yes"/>
      <point x="115" y="305" type="line" smooth="yes"/>
      <point x="115" y="278"/>
      <point x="152" y="240"/>
      <point x="179" y="240" type="qcurve" smooth="yes"/>
      <point x="212" y="240" type="line" smooth="yes"/>
      <point x="220" y="240"/>
      <point x="234" y="245"/>
      <point x="242" y="248" type="qcurve"/>
      <point x="249" y="252"/>
      <point x="255" y="261" type="qcurve" smooth="yes"/>
      <point x="268" y="283"/>
      <point x="256" y="300" type="qcurve" smooth="yes"/>
      <point x="253" y="305"/>
      <point x="259" y="305" type="qcurve" smooth="yes"/>
      <point x="373" y="305" type="line"/>
      <point x="373" y="271"/>
      <point x="348" y="213"/>
      <point x="304" y="169"/>
      <point x="274" y="156" type="qcurve" smooth="yes"/>
      <point x="257" y="148"/>
      <point x="239" y="145" type="qcurve"/>
    </contour>
  </outline>
</glyph>
<glyph name="sterling" format="2">
  <advance width="549"/>
  <unicode hex="00A3"/>
  <outline>
    <contour>
      <point x="434" y="136" type="line" smooth="yes"/>
      <point x="443" y="136"/>
      <point x="467" y="137"/>
      <point x="490" y="141"/>
      <point x="511" y="151"/>
      <point x="517" y="159" type="qcurve"/>
      <point x="526" y="156" type="line"/>
      <point x="526" y="0" type="line"/>
      <point x="25" y="0" type="line"/>
      <point x="25" y="136" type="line"/>
      <point x="29" y="139"/>
      <point x="47" y="160"/>
      <point x="71" y="188"/>
      <point x="98" y="219"/>
      <point x="109" y="233" type="qcurve"/>
      <point x="34" y="233" type="line"/>
      <point x="34" y="336" type="line"/>
      <point x="84" y="336" type="line"/>
      <point x="62" y="362"/>
      <point x="26" y="432"/>
      <point x="26" y="478" type="qcurve" smooth="yes"/>
      <point x="26" y="520"/>
      <point x="59" y="595"/>
      <point x="115" y="651"/>
      <point x="190" y="683"/>
      <point x="232" y="683" type="qcurve" smooth="yes"/>
      <point x="324" y="683" type="line" smooth="yes"/>
      <point x="366" y="683"/>
      <point x="440" y="650"/>
      <point x="495" y="595"/>
      <point x="527" y="520"/>
      <point x="527" y="478" type="qcurve"/>
      <point x="372" y="478" type="line"/>
      <point x="368" y="485" type="line"/>
      <point x="373" y="493"/>
      <point x="373" y="503" type="qcurve" smooth="yes"/>
      <point x="373" y="523"/>
      <point x="342" y="546"/>
      <point x="324" y="546" type="qcurve" smooth="yes"/>
      <point x="232" y="546" type="line" smooth="yes"/>
      <point x="204" y="546"/>
      <point x="163" y="507"/>
      <point x="163" y="478" type="qcurve" smooth="yes"/>
      <point x="163" y="463"/>
      <point x="182" y="428"/>
      <point x="210" y="391"/>
      <point x="241" y="354"/>
      <point x="254" y="336" type="qcurve"/>
      <point x="356" y="336" type="line"/>
      <point x="356" y="233" type="line"/>
      <point x="266" y="233" type="line"/>
      <point x="254" y="205"/>
      <point x="214" y="154"/>
      <point x="197" y="136" type="qcurve"/>
    </contour>
  </outline>
</glyph>
<glyph name="yen" format="2">
  <advance width="526"/>
  <unicode hex="00A5"/>
  <outline>
    <contour>
      <point x="36" y="80" type="line"/>
      <point x="36" y="184" type="line"/>
      <point x="194" y="184" type="line"/>
      <point x="194" y="250" type="line"/>
      <point x="36" y="250" type="line"/>
      <point x="36" y="354" type="line"/>
      <point x="88" y="354" type="line"/>
      <point x="83" y="360"/>
      <point x="79" y="366" type="qcurve" smooth="yes"/>
      <point x="58" y="395"/>
      <point x="35" y="464"/>
      <point x="35" y="502" type="qcurve" smooth="yes"/>
      <point x="35" y="592" type="line" smooth="yes"/>
      <point x="35" y="657"/>
      <point x="12" y="675" type="qcurve" smooth="yes"/>
      <point x="9" y="678"/>
      <point x="11" y="684"/>
      <point x="15" y="684" type="qcurve" smooth="yes"/>
      <point x="191" y="684" type="line" smooth="yes"/>
      <point x="195" y="684"/>
      <point x="197" y="678"/>
      <point x="194" y="675" type="qcurve" smooth="yes"/>
      <point x="171" y="657"/>
      <point x="171" y="592" type="qcurve" smooth="yes"/>
      <point x="171" y="502" type="line" smooth="yes"/>
      <point x="171" y="483"/>
      <point x="185" y="449"/>
      <point x="210" y="424"/>
      <point x="244" y="410"/>
      <point x="263" y="410" type="qcurve" smooth="yes"/>
      <point x="282" y="410"/>
      <point x="315" y="424"/>
      <point x="339" y="449"/>
      <point x="353" y="483"/>
      <point x="353" y="502" type="qcurve" smooth="yes"/>
      <point x="353" y="592" type="line" smooth="yes"/>
      <point x="353" y="657"/>
      <point x="331" y="675" type="qcurve" smooth="yes"/>
      <point x="328" y="678"/>
      <point x="330" y="684"/>
      <point x="334" y="684" type="qcurve" smooth="yes"/>
      <point x="510" y="684" type="line" smooth="yes"/>
      <point x="514" y="684"/>
      <point x="516" y="678"/>
      <point x="513" y="675" type="qcurve" smooth="yes"/>
      <point x="490" y="658"/>
      <point x="490" y="592" type="qcurve" smooth="yes"/>
      <point x="490" y="502" type="line" smooth="yes"/>
      <point x="490" y="464"/>
      <point x="467" y="395"/>
      <point x="446" y="366" type="qcurve" smooth="yes"/>
      <point x="441" y="360"/>
      <point x="436" y="354" type="qcurve"/>
      <point x="482" y="354" type="line"/>
      <point x="482" y="250" type="line"/>
      <point x="331" y="250" type="line"/>
      <point x="331" y="184" type="line"/>
      <point x="482" y="184" type="line"/>
      <point x="482" y="80" type="line"/>
      <point x="331" y="80" type="line"/>
      <point x="333" y="25"/>
      <point x="353" y="8" type="qcurve" smooth="yes"/>
      <point x="356" y="6"/>
      <point x="355" y="0"/>
      <point x="350" y="0" type="qcurve" smooth="yes"/>
      <point x="174" y="0" type="line" smooth="yes"/>
      <point x="170" y="0"/>
      <point x="169" y="6"/>
      <point x="172" y="8" type="qcurve" smooth="yes"/>
      <point x="192" y="25"/>
      <point x="194" y="80" type="qcurve"/>
    </contour>
  </outline>
</glyph>
<glyph name="dieresis" format="2">
  <advance width="379"/>
  <unicode hex="00A8"/>
  <outline>
    <contour>
      <point x="30" y="854" type="line"/>
      <point x="165" y="854" type="line"/>
      <point x="165" y="730" type="line"/>
      <point x="30" y="730" type="line"/>
    </contour>
    <contour>
      <point x="207" y="854" type="line"/>
      <point x="342" y="854" type="line"/>
      <point x="342" y="730" type="line"/>
      <point x="207" y="730" type="line"/>
    </contour>
  </outline>
</glyph>
<glyph name="copyright" format="2">
  <advance width="615"/>
  <unicode hex="00A9"/>
  <outline>
    <contour>
      <point x="302" y="125" type="qcurve" smooth="yes"/>
      <point x="246" y="125"/>
      <point x="145" y="167"/>
      <point x="105" y="207" type="qcurve" smooth="yes"/>
      <point x="65" y="246"/>
      <point x="23" y="347"/>
      <point x="23" y="404" type="qcurve" smooth="yes"/>
      <point x="23" y="461"/>
      <point x="65" y="562"/>
      <point x="105" y="601" type="qcurve" smooth="yes"/>
      <point x="145" y="641"/>
      <point x="246" y="683"/>
      <point x="302" y="683" type="qcurve" smooth="yes"/>
      <point x="359" y="683"/>
      <point x="460" y="641"/>
      <point x="500" y="601" type="qcurve" smooth="yes"/>
      <point x="539" y="562"/>
      <point x="581" y="461"/>
      <point x="581" y="404" type="qcurve" smooth="yes"/>
      <point x="581" y="347"/>
      <point x="539" y="246"/>
      <point x="500" y="207" type="qcurve" smooth="yes"/>
      <point x="460" y="167"/>
      <point x="359" y="125"/>
    </contour>
    <contour>
      <point x="302" y="635" type="qcurve" smooth="yes"/>
      <point x="254" y="635"/>
      <point x="170" y="599"/>
      <point x="107" y="536"/>
      <point x="71" y="452"/>
      <point x="71" y="404" type="qcurve" smooth="yes"/>
      <point x="71" y="356"/>
      <point x="107" y="272"/>
      <point x="170" y="209"/>
      <point x="254" y="173"/>
      <point x="302" y="173" type="qcurve" smooth="yes"/>
      <point x="350" y="173"/>
      <point x="434" y="209"/>
      <point x="497" y="272"/>
      <point x="533" y="356"/>
      <point x="533" y="404" type="qcurve" smooth="yes"/>
      <point x="533" y="452"/>
      <point x="497" y="536"/>
      <point x="434" y="599"/>
      <point x="350" y="635"/>
    </contour>
    <contour>
      <point x="347" y="343" type="qcurve" smooth="yes"/>
      <point x="431" y="343" type="line"/>
      <point x="431" y="318"/>
      <point x="413" y="275"/>
      <point x="380" y="243"/>
      <point x="337" y="224"/>
      <point x="313" y="224" type="qcurve" smooth="yes"/>
      <point x="289" y="224" type="line" smooth="yes"/>
      <point x="264" y="224"/>
      <point x="221" y="243"/>
      <point x="189" y="275"/>
      <point x="171" y="318"/>
      <point x="171" y="343" type="qcurve" smooth="yes"/>
      <point x="171" y="461" type="line" smooth="yes"/>
      <point x="171" y="486"/>
      <point x="189" y="529"/>
      <point x="221" y="561"/>
      <point x="264" y="580"/>
      <point x="289" y="580" type="qcurve" smooth="yes"/>
      <point x="313" y="580" type="line" smooth="yes"/>
      <point x="337" y="580"/>
      <point x="380" y="561"/>
      <point x="413" y="529"/>
      <point x="431" y="486"/>
      <point x="431" y="461" type="qcurve"/>
      <point x="347" y="461" type="line" smooth="yes"/>
      <point x="343" y="461"/>
      <point x="346" y="465" type="qcurve" smooth="yes"/>
      <point x="354" y="477"/>
      <point x="345" y="494" type="qcurve"/>
      <point x="342" y="497"/>
      <point x="338" y="501"/>
      <point x="335" y="503" type="qcurve" smooth="yes"/>
      <point x="325" y="509"/>
      <point x="313" y="509" type="qcurve" smooth="yes"/>
      <point x="289" y="509" type="line" smooth="yes"/>
      <point x="269" y="509"/>
      <point x="242" y="481"/>
      <point x="242" y="461" type="qcurve" smooth="yes"/>
      <point x="242" y="343" type="line" smooth="yes"/>
      <point x="242" y="323"/>
      <point x="269" y="296"/>
      <point x="289" y="296" type="qcurve" smooth="yes"/>
      <point x="313" y="296" type="line" smooth="yes"/>
      <point x="319" y="296"/>
      <point x="329" y="299"/>
      <point x="335" y="301" type="qcurve"/>
      <point x="340" y="304"/>
      <point x="345" y="311" type="qcurve"/>
      <point x="354" y="327"/>
      <point x="346" y="339" type="qcurve" smooth="yes"/>
      <point x="343" y="343"/>
    </contour>
  </outline>
</glyph>
<glyph name="ordfeminine" format="2">
  <advance width="272"/>
  <unicode hex="00AA"/>
  <outline>
    <contour>
      <point x="248" y="353" type="line"/>
      <point x="118" y="353" type="line" smooth="yes"/>
      <point x="97" y="353"/>
      <point x="61" y="368"/>
      <point x="34" y="395"/>
      <point x="19" y="431"/>
      <point x="19" y="452" type="qcurve" smooth="yes"/>
      <point x="19" y="472"/>
      <point x="34" y="508"/>
      <point x="61" y="535"/>
      <point x="97" y="551"/>
      <point x="118" y="551" type="qcurve" smooth="yes"/>
      <point x="182" y="551" type="line"/>
      <point x="182" y="584" type="line" smooth="yes"/>
      <point x="182" y="598"/>
      <point x="162" y="617"/>
      <point x="149" y="617" type="qcurve" smooth="yes"/>
      <point x="118" y="617" type="line" smooth="yes"/>
      <point x="111" y="617"/>
      <point x="104" y="614" type="qcurve" smooth="yes"/>
      <point x="99" y="612"/>
      <point x="91" y="596"/>
      <point x="96" y="587" type="qcurve" smooth="yes"/>
      <point x="98" y="584"/>
      <point x="94" y="584" type="qcurve" smooth="yes"/>
      <point x="19" y="584" type="line"/>
      <point x="19" y="605"/>
      <point x="34" y="641"/>
      <point x="61" y="668"/>
      <point x="97" y="683"/>
      <point x="118" y="683" type="qcurve" smooth="yes"/>
      <point x="149" y="683" type="line" smooth="yes"/>
      <point x="169" y="683"/>
      <point x="206" y="668"/>
      <point x="232" y="641"/>
      <point x="248" y="605"/>
      <point x="248" y="584" type="qcurve" smooth="yes"/>
    </contour>
    <contour>
      <point x="182" y="485" type="line"/>
      <point x="118" y="485" type="line" smooth="yes"/>
      <point x="104" y="485"/>
      <point x="84" y="466"/>
      <point x="84" y="452" type="qcurve" smooth="yes"/>
      <point x="84" y="438"/>
      <point x="104" y="419"/>
      <point x="118" y="419" type="qcurve" smooth="yes"/>
      <point x="182" y="419" type="line"/>
    </contour>
  </outline>
</glyph>
<glyph name="guillemotleft" format="2">
  <advance width="558"/>
  <unicode hex="00AB"/>
  <outline>
    <contour>
      <point x="12" y="384" type="line"/>
      <point x="244" y="573" type="line"/>
      <point x="308" y="495" type="line"/>
      <point x="98" y="320" type="line"/>
      <point x="308" y="146" type="line"/>
      <point x="244" y="68" type="line"/>
      <point x="12" y="257" type="line"/>
    </contour>
    <contour>
      <point x="243" y="384" type="line"/>
      <point x="475" y="573" type="line"/>
      <point x="539" y="495" type="line"/>
      <point x="329" y="320" type="line"/>
      <point x="539" y="146" type="line"/>
      <point x="475" y="68" type="line"/>
      <point x="243" y="257" type="line"/>
    </contour>
  </outline>
</glyph>
<glyph name="registered" format="2">
  <advance width="496"/>
  <unicode hex="00AE"/>
  <outline>
    <contour>
      <point x="243" y="257" type="qcurve" smooth="yes"/>
      <point x="199" y="257"/>
      <point x="121" y="291"/>
      <point x="63" y="349"/>
      <point x="30" y="426"/>
      <point x="30" y="470" type="qcurve" smooth="yes"/>
      <point x="30" y="514"/>
      <point x="63" y="592"/>
      <point x="121" y="650"/>
      <point x="199" y="683"/>
      <point x="243" y="683" type="qcurve" smooth="yes"/>
      <point x="287" y="683"/>
      <point x="364" y="650"/>
      <point x="422" y="592"/>
      <point x="456" y="514"/>
      <point x="456" y="470" type="qcurve" smooth="yes"/>
      <point x="456" y="426"/>
      <point x="422" y="349"/>
      <point x="364" y="291"/>
      <point x="287" y="257"/>
    </contour>
    <contour>
      <point x="243" y="624" type="qcurve" smooth="yes"/>
      <point x="211" y="624"/>
      <point x="155" y="600"/>
      <point x="113" y="558"/>
      <point x="89" y="502"/>
      <point x="89" y="470" type="qcurve" smooth="yes"/>
      <point x="89" y="438"/>
      <point x="113" y="382"/>
      <point x="155" y="340"/>
      <point x="211" y="316"/>
      <point x="243" y="316" type="qcurve" smooth="yes"/>
      <point x="275" y="316"/>
      <point x="331" y="340"/>
      <point x="373" y="382"/>
      <point x="397" y="438"/>
      <point x="397" y="470" type="qcurve" smooth="yes"/>
      <point x="397" y="502"/>
      <point x="373" y="558"/>
      <point x="331" y="600"/>
      <point x="275" y="624"/>
    </contour>
    <contour>
      <point x="325" y="361" type="qcurve"/>
      <point x="326" y="360"/>
      <point x="326" y="358"/>
      <point x="324" y="358" type="qcurve"/>
      <point x="264" y="358" type="line"/>
      <point x="263" y="358"/>
      <point x="262" y="360"/>
      <point x="263" y="361" type="qcurve"/>
      <point x="271" y="368"/>
      <point x="271" y="389" type="qcurve" smooth="yes"/>
      <point x="271" y="413" type="line" smooth="yes"/>
      <point x="271" y="422"/>
      <point x="264" y="439"/>
      <point x="251" y="452"/>
      <point x="234" y="459"/>
      <point x="225" y="459" type="qcurve" smooth="yes"/>
      <point x="217" y="459" type="line"/>
      <point x="217" y="389" type="line" smooth="yes"/>
      <point x="217" y="368"/>
      <point x="225" y="361" type="qcurve"/>
      <point x="226" y="360"/>
      <point x="225" y="358"/>
      <point x="224" y="358" type="qcurve"/>
      <point x="164" y="358" type="line"/>
      <point x="162" y="358"/>
      <point x="162" y="360"/>
      <point x="163" y="361" type="qcurve"/>
      <point x="171" y="368"/>
      <point x="171" y="389" type="qcurve" smooth="yes"/>
      <point x="171" y="560" type="line" smooth="yes"/>
      <point x="171" y="581"/>
      <point x="163" y="588" type="qcurve"/>
      <point x="162" y="589"/>
      <point x="162" y="591"/>
      <point x="164" y="591" type="qcurve"/>
      <point x="251" y="591" type="line" smooth="yes"/>
      <point x="265" y="591"/>
      <point x="289" y="580"/>
      <point x="307" y="562"/>
      <point x="318" y="538"/>
      <point x="318" y="525" type="qcurve" smooth="yes"/>
      <point x="318" y="510"/>
      <point x="306" y="484"/>
      <point x="294" y="474" type="qcurve"/>
      <point x="307" y="460"/>
      <point x="318" y="431"/>
      <point x="318" y="413" type="qcurve" smooth="yes"/>
      <point x="318" y="389" type="line" smooth="yes"/>
      <point x="318" y="368"/>
    </contour>
    <contour>
      <point x="251" y="505" type="line" smooth="yes"/>
      <point x="260" y="505"/>
      <point x="271" y="516"/>
      <point x="271" y="525" type="qcurve" smooth="yes"/>
      <point x="271" y="533"/>
      <point x="260" y="544"/>
      <point x="251" y="544" type="qcurve" smooth="yes"/>
      <point x="217" y="544" type="line"/>
      <point x="217" y="505" type="line"/>
    </contour>
  </outline>
</glyph>
<glyph name="macron" format="2">
  <advance width="400"/>
  <unicode hex="00AF"/>
  <outline>
    <contour>
      <point x="36" y="840" type="line"/>
      <point x="359" y="840" type="line"/>
      <point x="359" y="744" type="line"/>
      <point x="36" y="744" type="line"/>
    </contour>
  </outline>
</glyph>
<glyph name="degree" format="2">
  <advance width="302"/>
  <unicode hex="00B0"/>
  <outline>
    <contour>
      <point x="150" y="427" type="qcurve" smooth="yes"/>
      <point x="123" y="427"/>
      <point x="76" y="447"/>
      <point x="41" y="482"/>
      <point x="21" y="528"/>
      <point x="21" y="555" type="qcurve" smooth="yes"/>
      <point x="21" y="582"/>
      <point x="41" y="628"/>
      <point x="76" y="663"/>
      <point x="123" y="683"/>
      <point x="150" y="683" type="qcurve" smooth="yes"/>
      <point x="177" y="683"/>
      <point x="224" y="663"/>
      <point x="259" y="628"/>
      <point x="279" y="582"/>
      <point x="279" y="555" type="qcurve" smooth="yes"/>
      <point x="279" y="528"/>
      <point x="259" y="482"/>
      <point x="224" y="447"/>
      <point x="177" y="427"/>
    </contour>
    <contour>
      <point x="150" y="624" type="qcurve" smooth="yes"/>
      <point x="121" y="624"/>
      <point x="80" y="584"/>
      <point x="80" y="555" type="qcurve" smooth="yes"/>
      <point x="80" y="526"/>
      <point x="121" y="486"/>
      <point x="150" y="486" type="qcurve" smooth="yes"/>
      <point x="179" y="486"/>
      <point x="220" y="526"/>
      <point x="220" y="555" type="qcurve" smooth="yes"/>
      <point x="220" y="584"/>
      <point x="179" y="624"/>
    </contour>
  </outline>
</glyph>
<glyph name="acute" format="2">
  <advance width="264"/>
  <unicode hex="00B4"/>
  <outline>
    <contour>
      <point x="30" y="729" type="line"/>
      <point x="94" y="852" type="line"/>
      <point x="230" y="852" type="line"/>
      <point x="163" y="729" type="line"/>
    </contour>
  </outline>
</glyph>
<glyph name="paragraph" format="2">
  <advance width="641"/>
  <unicode hex="00B6"/>
  <outline>
    <contour>
      <point x="550" y="-89" type="line"/>
      <point x="446" y="-89" type="line"/>
      <point x="446" y="579" type="line"/>
      <point x="354" y="579" type="line"/>
      <point x="354" y="-89" type="line"/>
      <point x="250" y="-89" type="line"/>
      <point x="250" y="341" type="line"/>
      <point x="207" y="341" type="line" smooth="yes"/>
      <point x="172" y="341"/>
      <point x="119" y="361"/>
      <point x="93" y="384" type="qcurve" smooth="yes"/>
      <point x="64" y="410"/>
      <point x="35" y="474"/>
      <point x="34" y="541"/>
      <point x="58" y="604"/>
      <point x="103" y="653"/>
      <point x="135" y="668" type="qcurve" smooth="yes"/>
      <point x="167" y="683"/>
      <point x="250" y="683" type="qcurve" smooth="yes"/>
      <point x="611" y="683" type="line"/>
      <point x="611" y="579" type="line"/>
      <point x="550" y="579" type="line"/>
    </contour>
  </outline>
</glyph>
<glyph name="periodcentered" format="2">
  <advance width="163"/>
  <unicode hex="00B7"/>
  <outline>
    <contour>
      <point x="17" y="332" type="qcurve" smooth="yes"/>
      <point x="17" y="359"/>
      <point x="56" y="398"/>
      <point x="83" y="398" type="qcurve" smooth="yes"/>
      <point x="110" y="398"/>
      <point x="149" y="359"/>
      <point x="149" y="332" type="qcurve" smooth="yes"/>
      <point x="149" y="305"/>
      <point x="110" y="266"/>
      <point x="83" y="266" type="qcurve" smooth="yes"/>
      <point x="56" y="266"/>
      <point x="17" y="305"/>
    </contour>
  </outline>
</glyph>
<glyph name="cedilla" format="2">
  <advance width="243"/>
  <unicode hex="00B8"/>
  <outline>
    <contour>
      <point x="55" y="0" type="line"/>
      <point x="123" y="0" type="line"/>
      <point x="125" y="-34" type="line"/>
      <point x="144" y="-40"/>
      <point x="183" y="-61"/>
      <point x="209" y="-89"/>
      <point x="217" y="-125"/>
      <point x="207" y="-145" type="qcurve" smooth="yes"/>
      <point x="196" y="-165"/>
      <point x="144" y="-188"/>
      <point x="117" y="-194" type="qcurve" smooth="yes"/>
      <point x="85" y="-201"/>
      <point x="49" y="-203" type="qcurve"/>
      <point x="24" y="-163" type="line"/>
      <point x="50" y="-163"/>
      <point x="70" y="-159" type="qcurve" smooth="yes"/>
      <point x="87" y="-156"/>
      <point x="118" y="-140"/>
      <point x="120" y="-126" type="qcurve" smooth="yes"/>
      <point x="122" y="-112"/>
      <point x="103" y="-93"/>
      <point x="90" y="-88" type="qcurve" smooth="yes"/>
      <point x="75" y="-82"/>
      <point x="55" y="-78" type="qcurve"/>
    </contour>
  </outline>
</glyph>
<glyph name="ordmasculine" format="2">
  <advance width="262"/>
  <unicode hex="00BA"/>
  <outline>
    <contour>
      <point x="143" y="683" type="line" smooth="yes"/>
      <point x="163" y="683"/>
      <point x="200" y="668"/>
      <point x="226" y="641"/>
      <point x="242" y="605"/>
      <point x="242" y="584" type="qcurve" smooth="yes"/>
      <point x="242" y="452" type="line" smooth="yes"/>
      <point x="242" y="431"/>
      <point x="226" y="395"/>
      <point x="200" y="368"/>
      <point x="163" y="353"/>
      <point x="143" y="353" type="qcurve" smooth="yes"/>
      <point x="115" y="353" type="line" smooth="yes"/>
      <point x="95" y="353"/>
      <point x="58" y="368"/>
      <point x="32" y="395"/>
      <point x="16" y="431"/>
      <point x="16" y="452" type="qcurve" smooth="yes"/>
      <point x="16" y="584" type="line" smooth="yes"/>
      <point x="16" y="605"/>
      <point x="32" y="641"/>
      <point x="58" y="668"/>
      <point x="95" y="683"/>
      <point x="115" y="683" type="qcurve" smooth="yes"/>
    </contour>
    <contour>
      <point x="82" y="452" type="line" smooth="yes"/>
      <point x="82" y="438"/>
      <point x="102" y="419"/>
      <point x="115" y="419" type="qcurve" smooth="yes"/>
      <point x="143" y="419" type="line" smooth="yes"/>
      <point x="156" y="419"/>
      <point x="176" y="438"/>
      <point x="176" y="452" type="qcurve" smooth="yes"/>
      <point x="176" y="584" type="line" smooth="yes"/>
      <point x="176" y="598"/>
      <point x="156" y="617"/>
      <point x="143" y="617" type="qcurve" smooth="yes"/>
      <point x="115" y="617" type="line" smooth="yes"/>
      <point x="102" y="617"/>
      <point x="82" y="598"/>
      <point x="82" y="584" type="qcurve" smooth="yes"/>
    </contour>
  </outline>
</glyph>
<glyph name="guillemotright" format="2">
  <advance width="558"/>
  <unicode hex="00BB"/>
  <outline>
    <contour>
      <point x="308" y="257" type="line"/>
      <point x="76" y="68" type="line"/>
      <point x="12" y="146" type="line"/>
      <point x="222" y="320" type="line"/>
      <point x="12" y="495" type="line"/>
      <point x="76" y="573" type="line"/>
      <point x="308" y="384" type="line"/>
    </contour>
    <contour>
      <point x="539" y="257" type="line"/>
      <point x="307" y="68" type="line"/>
      <point x="243" y="146" type="line"/>
      <point x="453" y="320" type="line"/>
      <point x="243" y="495" type="line"/>
      <point x="307" y="573" type="line"/>
      <point x="539" y="384" type="line"/>
    </contour>
  </outline>
</glyph>
<glyph name="questiondown" format="2">
  <advance width="562"/>
  <unicode hex="00BF"/>
  <outline>
    <contour>
      <point x="219" y="0" type="line" smooth="yes"/>
      <point x="177" y="0"/>
      <point x="104" y="31"/>
      <point x="50" y="85"/>
      <point x="19" y="158"/>
      <point x="19" y="200" type="qcurve" smooth="yes"/>
      <point x="19" y="238"/>
      <point x="46" y="307"/>
      <point x="93" y="360"/>
      <point x="158" y="395"/>
      <point x="196" y="399" type="qcurve" smooth="yes"/>
      <point x="211" y="401"/>
      <point x="228" y="414"/>
      <point x="233" y="429" type="qcurve" smooth="yes"/>
      <point x="235" y="433"/>
      <point x="235" y="436" type="qcurve"/>
      <point x="240" y="470"/>
      <point x="221" y="485" type="qcurve" smooth="yes"/>
      <point x="218" y="488"/>
      <point x="220" y="493"/>
      <point x="224" y="493" type="qcurve" smooth="yes"/>
      <point x="394" y="493" type="line" smooth="yes"/>
      <point x="398" y="493"/>
      <point x="400" y="488"/>
      <point x="397" y="485" type="qcurve" smooth="yes"/>
      <point x="371" y="461"/>
      <point x="370" y="426" type="qcurve"/>
      <point x="367" y="397"/>
      <point x="343" y="340"/>
      <point x="305" y="295"/>
      <point x="252" y="267"/>
      <point x="219" y="267" type="qcurve" smooth="yes"/>
      <point x="191" y="267"/>
      <point x="152" y="228"/>
      <point x="152" y="200" type="qcurve" smooth="yes"/>
      <point x="152" y="172"/>
      <point x="191" y="133"/>
      <point x="219" y="133" type="qcurve" smooth="yes"/>
      <point x="341" y="133" type="line" smooth="yes"/>
      <point x="356" y="133"/>
      <point x="368" y="139" type="qcurve" smooth="yes"/>
      <point x="373" y="142"/>
      <point x="383" y="152"/>
      <point x="390" y="167"/>
      <point x="390" y="184"/>
      <point x="385" y="193" type="qcurve" smooth="yes"/>
      <point x="382" y="200"/>
      <point x="389" y="200" type="qcurve" smooth="yes"/>
      <point x="542" y="200" type="line"/>
      <point x="542" y="158"/>
      <point x="510" y="85"/>
      <point x="456" y="31"/>
      <point x="383" y="0"/>
      <point x="341" y="0" type="qcurve" smooth="yes"/>
    </contour>
    <contour>
      <point x="307" y="546" type="qcurve" smooth="yes"/>
      <point x="279" y="546"/>
      <point x="240" y="585"/>
      <point x="240" y="613" type="qcurve" smooth="yes"/>
      <point x="240" y="640"/>
      <point x="279" y="679"/>
      <point x="307" y="679" type="qcurve" smooth="yes"/>
      <point x="335" y="679"/>
      <point x="374" y="640"/>
      <point x="374" y="613" type="qcurve" smooth="yes"/>
      <point x="374" y="585"/>
      <point x="335" y="546"/>
    </contour>
  </outline>
</glyph>
<glyph name="AE" format="2">
  <advance width="792"/>
  <unicode hex="00C6"/>
  <outline>
    <contour>
      <point x="178" y="91" type="line" smooth="yes"/>
      <point x="178" y="26"/>
      <point x="201" y="8" type="qcurve"/>
      <point x="209" y="0"/>
      <point x="198" y="0" type="qcurve" smooth="yes"/>
      <point x="22" y="0" type="line" smooth="yes"/>
      <point x="18" y="0"/>
      <point x="16" y="5"/>
      <point x="19" y="8" type="qcurve" smooth="yes"/>
      <point x="42" y="26"/>
      <point x="42" y="91" type="qcurve" smooth="yes"/>
      <point x="42" y="308" type="line" smooth="yes"/>
      <point x="42" y="351"/>
      <point x="53" y="437"/>
      <point x="97" y="492" type="qcurve"/>
      <point x="196" y="591" type="line"/>
      <point x="231" y="646"/>
      <point x="217" y="675" type="qcurve"/>
      <point x="214" y="678"/>
      <point x="216" y="683"/>
      <point x="220" y="683" type="qcurve" smooth="yes"/>
      <point x="771" y="683" type="line" smooth="yes"/>
      <point x="776" y="683"/>
      <point x="777" y="677"/>
      <point x="774" y="675" type="qcurve" smooth="yes"/>
      <point x="752" y="656"/>
      <point x="752" y="592" type="qcurve" smooth="yes"/>
      <point x="752" y="526" type="line" smooth="yes"/>
      <point x="752" y="522"/>
      <point x="746" y="520"/>
      <point x="744" y="524" type="qcurve"/>
      <point x="725" y="546"/>
      <point x="661" y="546" type="qcurve" smooth="yes"/>
      <point x="487" y="546" type="line"/>
      <point x="487" y="410" type="line"/>
      <point x="570" y="410" type="line" smooth="yes"/>
      <point x="634" y="410"/>
      <point x="653" y="432" type="qcurve" smooth="yes"/>
      <point x="655" y="435"/>
      <point x="661" y="433"/>
      <point x="661" y="429" type="qcurve" smooth="yes"/>
      <point x="661" y="253" type="line" smooth="yes"/>
      <point x="661" y="249"/>
      <point x="655" y="247"/>
      <point x="653" y="250" type="qcurve" smooth="yes"/>
      <point x="633" y="273"/>
      <point x="570" y="273" type="qcurve" smooth="yes"/>
      <point x="487" y="273" type="line"/>
      <point x="487" y="136" type="line"/>
      <point x="661" y="136" type="line" smooth="yes"/>
      <point x="724" y="136"/>
      <point x="744" y="159" type="qcurve" smooth="yes"/>
      <point x="746" y="162"/>
      <point x="752" y="160"/>
      <point x="752" y="156" type="qcurve" smooth="yes"/>
      <point x="752" y="91" type="line" smooth="yes"/>
      <point x="752" y="26"/>
      <point x="774" y="7" type="qcurve" smooth="yes"/>
      <point x="777" y="5"/>
      <point x="776" y="0"/>
      <point x="771" y="0" type="qcurve" smooth="yes"/>
      <point x="331" y="0" type="line" smooth="yes"/>
      <point x="326" y="0"/>
      <point x="325" y="5"/>
      <point x="328" y="7" type="qcurve" smooth="yes"/>
      <point x="350" y="26"/>
      <point x="350" y="91" type="qcurve" smooth="yes"/>
      <point x="350" y="179" type="line"/>
      <point x="178" y="179" type="line"/>
    </contour>
    <contour>
      <point x="180" y="351" type="qcurve" smooth="yes"/>
      <point x="179" y="306" type="line"/>
      <point x="350" y="306" type="line"/>
      <point x="350" y="567" type="line"/>
      <point x="201" y="402" type="line"/>
      <point x="181" y="383"/>
    </contour>
  </outline>
</glyph>
<glyph name="Eth" format="2">
  <advance width="544"/>
  <unicode hex="00D0"/>
  <outline>
    <contour>
      <point x="24" y="294" type="line"/>
      <point x="24" y="398" type="line"/>
      <point x="68" y="398" type="line"/>
      <point x="68" y="593" type="line" smooth="yes"/>
      <point x="68" y="656"/>
      <point x="46" y="676" type="qcurve"/>
      <point x="42" y="678"/>
      <point x="44" y="684"/>
      <point x="48" y="684" type="qcurve" smooth="yes"/>
      <point x="296" y="684" type="line" smooth="yes"/>
      <point x="343" y="684"/>
      <point x="426" y="648"/>
      <point x="487" y="586"/>
      <point x="523" y="503"/>
      <point x="523" y="456" type="qcurve" smooth="yes"/>
      <point x="523" y="228" type="line" smooth="yes"/>
      <point x="523" y="181"/>
      <point x="487" y="98"/>
      <point x="426" y="36"/>
      <point x="343" y="0"/>
      <point x="296" y="0" type="qcurve" smooth="yes"/>
      <point x="48" y="0" type="line" smooth="yes"/>
      <point x="44" y="0"/>
      <point x="42" y="6"/>
      <point x="46" y="9" type="qcurve" smooth="yes"/>
      <point x="68" y="28"/>
      <point x="68" y="92" type="qcurve" smooth="yes"/>
      <point x="68" y="294" type="line"/>
    </contour>
    <contour>
      <point x="296" y="137" type="line" smooth="yes"/>
      <point x="334" y="137"/>
      <point x="387" y="190"/>
      <point x="387" y="228" type="qcurve" smooth="yes"/>
      <point x="387" y="456" type="line" smooth="yes"/>
      <point x="387" y="494"/>
      <point x="334" y="547"/>
      <point x="296" y="547" type="qcurve" smooth="yes"/>
      <point x="205" y="547" type="line"/>
      <point x="205" y="398" type="line"/>
      <point x="345" y="398" type="line"/>
      <point x="345" y="294" type="line"/>
      <point x="205" y="294" type="line"/>
      <point x="205" y="137" type="line"/>
    </contour>
  </outline>
</glyph>
<glyph name="multiply" format="2">
  <advance width="384"/>
  <unicode hex="00D7"/>
  <outline>
    <contour>
      <point x="286" y="524" type="line"/>
      <point x="359" y="451" type="line"/>
      <point x="264" y="356" type="line"/>
      <point x="361" y="259" type="line"/>
      <point x="288" y="185" type="line"/>
      <point x="190" y="282" type="line"/>
      <point x="93" y="185" type="line"/>
      <point x="20" y="258" type="line"/>
      <point x="117" y="355" type="line"/>
      <point x="22" y="451" type="line"/>
      <point x="95" y="525" type="line"/>
      <point x="191" y="429" type="line"/>
    </contour>
  </outline>
</glyph>
<glyph name="Oslash" format="2">
  <advance width="553"/>
  <unicode hex="00D8"/>
  <outline>
    <contour>
      <point x="214" y="-43" type="line"/>
      <point x="134" y="-43" type="line"/>
      <point x="339" y="718" type="line"/>
      <point x="419" y="718" type="line"/>
    </contour>
    <contour>
      <point x="297" y="683" type="line" smooth="yes"/>
      <point x="344" y="683"/>
      <point x="427" y="647"/>
      <point x="489" y="585"/>
      <point x="525" y="502"/>
      <point x="525" y="455" type="qcurve" smooth="yes"/>
      <point x="525" y="227" type="line" smooth="yes"/>
      <point x="525" y="180"/>
      <point x="489" y="97"/>
      <point x="427" y="35"/>
      <point x="344" y="0"/>
      <point x="297" y="0" type="qcurve" smooth="yes"/>
      <point x="252" y="0" type="line" smooth="yes"/>
      <point x="205" y="0"/>
      <point x="122" y="35"/>
      <point x="60" y="97"/>
      <point x="24" y="180"/>
      <point x="24" y="227" type="qcurve" smooth="yes"/>
      <point x="24" y="455" type="line" smooth="yes"/>
      <point x="24" y="502"/>
      <point x="60" y="585"/>
      <point x="122" y="647"/>
      <point x="205" y="683"/>
      <point x="252" y="683" type="qcurve" smooth="yes"/>
    </contour>
    <contour>
      <point x="297" y="136" type="line" smooth="yes"/>
      <point x="335" y="136"/>
      <point x="388" y="189"/>
      <point x="388" y="227" type="qcurve" smooth="yes"/>
      <point x="388" y="455" type="line" smooth="yes"/>
      <point x="388" y="493"/>
      <point x="335" y="546"/>
      <point x="297" y="546" type="qcurve" smooth="yes"/>
      <point x="252" y="546" type="line" smooth="yes"/>
      <point x="233" y="546"/>
      <point x="200" y="532"/>
      <point x="175" y="507"/>
      <point x="161" y="474"/>
      <point x="161" y="455" type="qcurve" smooth="yes"/>
      <point x="161" y="227" type="line" smooth="yes"/>
      <point x="161" y="208"/>
      <point x="175" y="175"/>
      <point x="200" y="150"/>
      <point x="233" y="136"/>
      <point x="252" y="136" type="qcurve" smooth="yes"/>
    </contour>
  </outline>
</glyph>
<glyph name="Thorn" format="2">
  <advance width="550"/>
  <unicode hex="00DE"/>
  <outline>
    <contour>
      <point x="296" y="236" type="line" smooth="yes"/>
      <point x="334" y="236"/>
      <point x="387" y="289"/>
      <point x="387" y="327" type="qcurve" smooth="yes"/>
      <point x="387" y="356" type="line" smooth="yes"/>
      <point x="387" y="394"/>
      <point x="334" y="447"/>
      <point x="296" y="447" type="qcurve" smooth="yes"/>
      <point x="165" y="447" type="line"/>
      <point x="165" y="584" type="line"/>
      <point x="296" y="584" type="line" smooth="yes"/>
      <point x="343" y="584"/>
      <point x="426" y="548"/>
      <point x="488" y="486"/>
      <point x="524" y="403"/>
      <point x="524" y="356" type="qcurve" smooth="yes"/>
      <point x="524" y="327" type="line" smooth="yes"/>
      <point x="524" y="280"/>
      <point x="488" y="197"/>
      <point x="426" y="135"/>
      <point x="343" y="100"/>
      <point x="296" y="100" type="qcurve" smooth="yes"/>
      <point x="165" y="100" type="line"/>
      <point x="165" y="236" type="line"/>
    </contour>
    <contour>
      <point x="186" y="91" type="line" smooth="yes"/>
      <point x="186" y="27"/>
      <point x="209" y="8" type="qcurve" smooth="yes"/>
      <point x="211" y="6"/>
      <point x="210" y="0"/>
      <point x="205" y="0" type="qcurve" smooth="yes"/>
      <point x="30" y="0" type="line" smooth="yes"/>
      <point x="25" y="0"/>
      <point x="24" y="6"/>
      <point x="27" y="8" type="qcurve" smooth="yes"/>
      <point x="49" y="27"/>
      <point x="49" y="91" type="qcurve" smooth="yes"/>
      <point x="49" y="592" type="line" smooth="yes"/>
      <point x="49" y="657"/>
      <point x="27" y="675" type="qcurve"/>
      <point x="19" y="683"/>
      <point x="30" y="683" type="qcurve" smooth="yes"/>
      <point x="205" y="683" type="line" smooth="yes"/>
      <point x="215" y="683"/>
      <point x="209" y="675" type="qcurve"/>
      <point x="186" y="658"/>
      <point x="186" y="592" type="qcurve" smooth="yes"/>
    </contour>
  </outline>
</glyph>
<glyph name="germandbls" format="2">
  <advance width="560"/>
  <unicode hex="00DF"/>
  <outline>
    <contour>
      <point x="173" y="91" type="line" smooth="yes"/>
      <point x="173" y="27"/>
      <point x="196" y="8" type="qcurve" smooth="yes"/>
      <point x="198" y="6"/>
      <point x="197" y="0"/>
      <point x="192" y="0" type="qcurve" smooth="yes"/>
      <point x="17" y="0" type="line" smooth="yes"/>
      <point x="12" y="0"/>
      <point x="11" y="6"/>
      <point x="14" y="8" type="qcurve" smooth="yes"/>
      <point x="36" y="27"/>
      <point x="36" y="91" type="qcurve" smooth="yes"/>
      <point x="36" y="505" type="line"/>
      <point x="40" y="531"/>
      <point x="51" y="557" type="qcurve" smooth="yes"/>
      <point x="67" y="595"/>
      <point x="122" y="651"/>
      <point x="197" y="683"/>
      <point x="240" y="683" type="qcurve" smooth="yes"/>
      <point x="331" y="683" type="line" smooth="yes"/>
      <point x="375" y="683"/>
      <point x="449" y="651"/>
      <point x="502" y="597"/>
      <point x="534" y="526"/>
      <point x="538" y="450"/>
      <point x="513" y="374"/>
      <point x="483" y="341" type="qcurve"/>
      <point x="511" y="310"/>
      <point x="535" y="246"/>
      <point x="535" y="205" type="qcurve" smooth="yes"/>
      <point x="535" y="163"/>
      <point x="503" y="88"/>
      <point x="447" y="32"/>
      <point x="372" y="0"/>
      <point x="330" y="0" type="qcurve" smooth="yes"/>
      <point x="240" y="0" type="line"/>
      <point x="240" y="136" type="line"/>
      <point x="331" y="136" type="line"/>
      <point x="359" y="137"/>
      <point x="398" y="176"/>
      <point x="398" y="205" type="qcurve" smooth="yes"/>
      <point x="398" y="233"/>
      <point x="359" y="273"/>
      <point x="330" y="273" type="qcurve" smooth="yes"/>
      <point x="314" y="273" type="line" smooth="yes"/>
      <point x="263" y="273"/>
      <point x="234" y="252" type="qcurve"/>
      <point x="227" y="256" type="line"/>
      <point x="227" y="410" type="line"/>
      <point x="332" y="410" type="line" smooth="yes"/>
      <point x="360" y="410"/>
      <point x="399" y="450"/>
      <point x="399" y="478" type="qcurve" smooth="yes"/>
      <point x="399" y="507"/>
      <point x="360" y="546"/>
      <point x="331" y="546" type="qcurve" smooth="yes"/>
      <point x="221" y="546" type="line" smooth="yes"/>
      <point x="193" y="546"/>
      <point x="180" y="526" type="qcurve" smooth="yes"/>
      <point x="173" y="516"/>
      <point x="173" y="504" type="qcurve" smooth="yes"/>
    </contour>
  </outline>
</glyph>
<glyph name="divide" format="2">
  <advance width="410"/>
  <unicode hex="00F7"/>
  <outline>
    <contour>
      <point x="32" y="288" type="line"/>
      <point x="32" y="392" type="line"/>
      <point x="378" y="392" type="line"/>
      <point x="378" y="288" type="line"/>
    </contour>
    <contour>
      <point x="207" y="253" type="qcurve" smooth="yes"/>
      <point x="234" y="253"/>
      <point x="274" y="214"/>
      <point x="274" y="187" type="qcurve" smooth="yes"/>
      <point x="274" y="159"/>
      <point x="234" y="120"/>
      <point x="207" y="120" type="qcurve" smooth="yes"/>
      <point x="179" y="120"/>
      <point x="140" y="159"/>
      <point x="140" y="187" type="qcurve" smooth="yes"/>
      <point x="140" y="214"/>
      <point x="179" y="253"/>
    </contour>
    <contour>
      <point x="207" y="563" type="qcurve" smooth="yes"/>
      <point x="234" y="563"/>
      <point x="274" y="524"/>
      <point x="274" y="497" type="qcurve" smooth="yes"/>
      <point x="274" y="469"/>
      <point x="234" y="430"/>
      <point x="207" y="430" type="qcurve" smooth="yes"/>
      <point x="179" y="430"/>
      <point x="140" y="469"/>
      <point x="140" y="497" type="qcurve" smooth="yes"/>
      <point x="140" y="524"/>
      <point x="179" y="563"/>
    </contour>
  </outline>
</glyph>
<glyph name="ecaron" format="2">
  <advance width="545"/>
  <unicode hex="011B"/>
  <outline>
    <contour>
      <point x="375" y="725" type="line"/>
      <point x="150" y="725" type="line"/>
      <point x="83" y="848" type="line"/>
      <point x="218" y="848" type="line"/>
      <point x="263" y="766" type="line"/>
      <point x="307" y="848" type="line"/>
      <point x="442" y="848" type="line"/>
    </contour>
    <contour>
      <point x="500" y="91" type="line" smooth="yes"/>
      <point x="500" y="26"/>
      <point x="522" y="7" type="qcurve" smooth="yes"/>
      <point x="525" y="5"/>
      <point x="524" y="0"/>
      <point x="519" y="0" type="qcurve" smooth="yes"/>
      <point x="25" y="0" type="line" smooth="yes"/>
      <point x="20" y="0"/>
      <point x="19" y="5"/>
      <point x="22" y="7" type="qcurve" smooth="yes"/>
      <point x="44" y="26"/>
      <point x="44" y="91" type="qcurve" smooth="yes"/>
      <point x="44" y="592" type="line" smooth="yes"/>
      <point x="44" y="678"/>
      <point x="3" y="683" type="qcurve"/>
      <point x="519" y="683" type="line" smooth="yes"/>
      <point x="524" y="683"/>
      <point x="525" y="677"/>
      <point x="522" y="675" type="qcurve" smooth="yes"/>
      <point x="500" y="656"/>
      <point x="500" y="592" type="qcurve" smooth="yes"/>
      <point x="500" y="526" type="line" smooth="yes"/>
      <point x="500" y="522"/>
      <point x="494" y="520"/>
      <point x="492" y="524" type="qcurve"/>
      <point x="473" y="546"/>
      <point x="409" y="546" type="qcurve" smooth="yes"/>
      <point x="181" y="546" type="line"/>
      <point x="181" y="410" type="line"/>
      <point x="318" y="410" type="line" smooth="yes"/>
      <point x="382" y="410"/>
      <point x="401" y="432" type="qcurve" smooth="yes"/>
      <point x="403" y="435"/>
      <point x="409" y="433"/>
      <point x="409" y="429" type="qcurve" smooth="yes"/>
      <point x="409" y="253" type="line" smooth="yes"/>
      <point x="409" y="249"/>
      <point x="403" y="247"/>
      <point x="401" y="250" type="qcurve" smooth="yes"/>
      <point x="381" y="273"/>
      <point x="318" y="273" type="qcurve" smooth="yes"/>
      <point x="181" y="273" type="line"/>
      <point x="181" y="136" type="line"/>
      <point x="409" y="136" type="line" smooth="yes"/>
      <point x="472" y="136"/>
      <point x="492" y="159" type="qcurve" smooth="yes"/>
      <point x="494" y="162"/>
      <point x="500" y="160"/>
      <point x="500" y="156" type="qcurve" smooth="yes"/>
    </contour>
  </outline>
</glyph>
<glyph name="Idotaccent" format="2">
  <advance width="231"/>
  <unicode hex="0130"/>
  <outline>
    <contour>
      <point x="186" y="91" type="line" smooth="yes"/>
      <point x="186" y="27"/>
      <point x="209" y="8" type="qcurve" smooth="yes"/>
      <point x="211" y="6"/>
      <point x="210" y="0"/>
      <point x="205" y="0" type="qcurve" smooth="yes"/>
      <point x="30" y="0" type="line" smooth="yes"/>
      <point x="25" y="0"/>
      <point x="24" y="6"/>
      <point x="27" y="8" type="qcurve" smooth="yes"/>
      <point x="49" y="27"/>
      <point x="49" y="91" type="qcurve" smooth="yes"/>
      <point x="49" y="592" type="line" smooth="yes"/>
      <point x="49" y="657"/>
      <point x="27" y="675" type="qcurve"/>
      <point x="19" y="683"/>
      <point x="30" y="683" type="qcurve" smooth="yes"/>
      <point x="205" y="683" type="line" smooth="yes"/>
      <point x="215" y="683"/>
      <point x="209" y="675" type="qcurve"/>
      <point x="186" y="658"/>
      <point x="186" y="592" type="qcurve" smooth="yes"/>
    </contour>
    <contour>
      <point x="116" y="876" type="qcurve" smooth="yes"/>
      <point x="147" y="876"/>
      <point x="192" y="831"/>
      <point x="192" y="800" type="qcurve" smooth="yes"/>
      <point x="192" y="769"/>
      <point x="147" y="724"/>
      <point x="116" y="724" type="qcurve" smooth="yes"/>
      <point x="84" y="724"/>
      <point x="40" y="769"/>
      <point x="40" y="800" type="qcurve" smooth="yes"/>
      <point x="40" y="831"/>
      <point x="84" y="876"/>
    </contour>
  </outline>
</glyph>
<glyph name="uni0136" format="2">
  <advance width="500"/>
  <unicode hex="0136"/>
  <outline>
    <contour>
      <point x="465" y="91" type="line" smooth="yes"/>
      <point x="465" y="28"/>
      <point x="488" y="8" type="qcurve" smooth="yes"/>
      <point x="491" y="6"/>
      <point x="489" y="0"/>
      <point x="485" y="0" type="qcurve" smooth="yes"/>
      <point x="309" y="0" type="line" smooth="yes"/>
      <point x="304" y="0"/>
      <point x="303" y="6"/>
      <point x="306" y="8" type="qcurve" smooth="yes"/>
      <point x="329" y="28"/>
      <point x="329" y="91" type="qcurve" smooth="yes"/>
      <point x="329" y="159" type="line" smooth="yes"/>
      <point x="329" y="187"/>
      <point x="307" y="237"/>
      <point x="270" y="275"/>
      <point x="220" y="296"/>
      <point x="192" y="296" type="qcurve" smooth="yes"/>
      <point x="169" y="296" type="line"/>
      <point x="169" y="91" type="line" smooth="yes"/>
      <point x="169" y="28"/>
      <point x="191" y="8" type="qcurve"/>
      <point x="195" y="6"/>
      <point x="193" y="0"/>
      <point x="189" y="0" type="qcurve" smooth="yes"/>
      <point x="13" y="0" type="line" smooth="yes"/>
      <point x="8" y="0"/>
      <point x="7" y="6"/>
      <point x="10" y="8" type="qcurve" smooth="yes"/>
      <point x="32" y="27"/>
      <point x="32" y="91" type="qcurve" smooth="yes"/>
      <point x="32" y="592" type="line" smooth="yes"/>
      <point x="32" y="657"/>
      <point x="10" y="675" type="qcurve"/>
      <point x="2" y="683"/>
      <point x="13" y="683" type="qcurve" smooth="yes"/>
      <point x="189" y="683" type="line" smooth="yes"/>
      <point x="193" y="683"/>
      <point x="195" y="678"/>
      <point x="191" y="675" type="qcurve" smooth="yes"/>
      <point x="169" y="656"/>
      <point x="169" y="592" type="qcurve" smooth="yes"/>
      <point x="169" y="433" type="line"/>
      <point x="192" y="433" type="line" smooth="yes"/>
      <point x="220" y="433"/>
      <point x="270" y="454"/>
      <point x="307" y="491"/>
      <point x="329" y="541"/>
      <point x="329" y="569" type="qcurve" smooth="yes"/>
      <point x="329" y="592" type="line" smooth="yes"/>
      <point x="329" y="657"/>
      <point x="306" y="675" type="qcurve"/>
      <point x="298" y="683"/>
      <point x="309" y="683" type="qcurve" smooth="yes"/>
      <point x="485" y="683" type="line" smooth="yes"/>
      <point x="489" y="683"/>
      <point x="491" y="678"/>
      <point x="488" y="675" type="qcurve" smooth="yes"/>
      <point x="465" y="657"/>
      <point x="465" y="592" type="qcurve" smooth="yes"/>
      <point x="465" y="569" type="line" smooth="yes"/>
      <point x="465" y="510"/>
      <point x="417" y="403"/>
      <point x="372" y="365" type="qcurve"/>
      <point x="417" y="325"/>
      <point x="465" y="219"/>
      <point x="465" y="159" type="qcurve" smooth="yes"/>
    </contour>
    <contour>
      <point x="218" y="-38" type="qcurve" smooth="yes"/>
      <point x="236" y="-34"/>
      <point x="269" y="-44"/>
      <point x="293" y="-67"/>
      <point x="303" y="-100"/>
      <point x="299" y="-118" type="qcurve"/>
      <point x="292" y="-164"/>
      <point x="255" y="-230"/>
      <point x="213" y="-253" type="qcurve"/>
      <point x="199" y="-249"/>
      <point x="186" y="-239" type="qcurve" smooth="yes"/>
      <point x="182" y="-236"/>
      <point x="185" y="-233" type="qcurve" smooth="yes"/>
      <point x="198" y="-218"/>
      <point x="207" y="-180"/>
      <point x="185" y="-148" type="qcurve"/>
      <point x="172" y="-134"/>
      <point x="166" y="-99"/>
      <point x="175" y="-68"/>
      <point x="200" y="-43"/>
    </contour>
  </outline>
</glyph>
<glyph name="kgreenlandic" format="2">
  <advance width="500"/>
  <unicode hex="0138"/>
  <outline>
    <contour>
      <point x="465" y="91" type="line" smooth="yes"/>
      <point x="465" y="28"/>
      <point x="488" y="8" type="qcurve" smooth="yes"/>
      <point x="491" y="6"/>
      <point x="489" y="0"/>
      <point x="485" y="0" type="qcurve" smooth="yes"/>
      <point x="309" y="0" type="line" smooth="yes"/>
      <point x="304" y="0"/>
      <point x="303" y="6"/>
      <point x="306" y="8" type="qcurve" smooth="yes"/>
      <point x="329" y="28"/>
      <point x="329" y="91" type="qcurve" smooth="yes"/>
      <point x="329" y="159" type="line" smooth="yes"/>
      <point x="329" y="187"/>
      <point x="307" y="237"/>
      <point x="270" y="275"/>
      <point x="220" y="296"/>
      <point x="192" y="296" type="qcurve" smooth="yes"/>
      <point x="169" y="296" type="line"/>
      <point x="169" y="91" type="line" smooth="yes"/>
      <point x="169" y="28"/>
      <point x="191" y="8" type="qcurve"/>
      <point x="195" y="6"/>
      <point x="193" y="0"/>
      <point x="189" y="0" type="qcurve" smooth="yes"/>
      <point x="13" y="0" type="line" smooth="yes"/>
      <point x="8" y="0"/>
      <point x="7" y="6"/>
      <point x="10" y="8" type="qcurve" smooth="yes"/>
      <point x="32" y="27"/>
      <point x="32" y="91" type="qcurve" smooth="yes"/>
      <point x="32" y="592" type="line" smooth="yes"/>
      <point x="32" y="657"/>
      <point x="10" y="675" type="qcurve"/>
      <point x="2" y="683"/>
      <point x="13" y="683" type="qcurve" smooth="yes"/>
      <point x="189" y="683" type="line" smooth="yes"/>
      <point x="193" y="683"/>
      <point x="195" y="678"/>
      <point x="191" y="675" type="qcurve" smooth="yes"/>
      <point x="169" y="656"/>
      <point x="169" y="592" type="qcurve" smooth="yes"/>
      <point x="169" y="433" type="line"/>
      <point x="192" y="433" type="line" smooth="yes"/>
      <point x="220" y="433"/>
      <point x="270" y="454"/>
      <point x="307" y="491"/>
      <point x="329" y="541"/>
      <point x="329" y="569" type="qcurve" smooth="yes"/>
      <point x="329" y="592" type="line" smooth="yes"/>
      <point x="329" y="657"/>
      <point x="306" y="675" type="qcurve"/>
      <point x="298" y="683"/>
      <point x="309" y="683" type="qcurve" smooth="yes"/>
      <point x="485" y="683" type="line" smooth="yes"/>
      <point x="489" y="683"/>
      <point x="491" y="678"/>
      <point x="488" y="675" type="qcurve" smooth="yes"/>
      <point x="465" y="657"/>
      <point x="465" y="592" type="qcurve" smooth="yes"/>
      <point x="465" y="569" type="line" smooth="yes"/>
      <point x="465" y="510"/>
      <point x="417" y="403"/>
      <point x="372" y="365" type="qcurve"/>
      <point x="417" y="325"/>
      <point x="465" y="219"/>
      <point x="465" y="159" type="qcurve" smooth="yes"/>
    </contour>
  </outline>
</glyph>
<glyph name="uni013B" format="2">
  <advance width="445"/>
  <unicode hex="013B"/>
  <outline>
    <contour>
      <point x="426" y="8" type="qcurve" smooth="yes"/>
      <point x="429" y="6"/>
      <point x="428" y="0"/>
      <point x="423" y="0" type="qcurve" smooth="yes"/>
      <point x="19" y="0" type="line"/>
      <point x="9" y="2"/>
      <point x="17" y="8" type="qcurve" smooth="yes"/>
      <point x="39" y="27"/>
      <point x="39" y="91" type="qcurve" smooth="yes"/>
      <point x="39" y="592" type="line" smooth="yes"/>
      <point x="39" y="656"/>
      <point x="17" y="675" type="qcurve" smooth="yes"/>
      <point x="9" y="683"/>
      <point x="20" y="683" type="qcurve" smooth="yes"/>
      <point x="195" y="683" type="line" smooth="yes"/>
      <point x="200" y="683"/>
      <point x="202" y="678"/>
      <point x="198" y="675" type="qcurve" smooth="yes"/>
      <point x="176" y="656"/>
      <point x="176" y="592" type="qcurve" smooth="yes"/>
      <point x="176" y="137" type="line"/>
      <point x="312" y="137" type="line" smooth="yes"/>
      <point x="377" y="137"/>
      <point x="395" y="159" type="qcurve" smooth="yes"/>
      <point x="398" y="162"/>
      <point x="404" y="161"/>
      <point x="404" y="156" type="qcurve" smooth="yes"/>
      <point x="404" y="91" type="line" smooth="yes"/>
      <point x="404" y="27"/>
    </contour>
    <contour>
      <point x="218" y="-38" type="qcurve" smooth="yes"/>
      <point x="236" y="-34"/>
      <point x="269" y="-44"/>
      <point x="293" y="-67"/>
      <point x="303" y="-100"/>
      <point x="299" y="-118" type="qcurve"/>
      <point x="292" y="-164"/>
      <point x="255" y="-230"/>
      <point x="213" y="-253" type="qcurve"/>
      <point x="199" y="-249"/>
      <point x="186" y="-239" type="qcurve" smooth="yes"/>
      <point x="182" y="-236"/>
      <point x="185" y="-233" type="qcurve" smooth="yes"/>
      <point x="198" y="-218"/>
      <point x="207" y="-180"/>
      <point x="185" y="-148" type="qcurve"/>
      <point x="172" y="-134"/>
      <point x="166" y="-99"/>
      <point x="175" y="-68"/>
      <point x="200" y="-43"/>
    </contour>
  </outline>
</glyph>
<glyph name="lslash" format="2">
  <advance width="464"/>
  <unicode hex="0142"/>
  <outline>
    <contour>
      <point x="21" y="273" type="line"/>
      <point x="21" y="392" type="line"/>
      <point x="65" y="411" type="line"/>
      <point x="65" y="592" type="line" smooth="yes"/>
      <point x="65" y="656"/>
      <point x="43" y="675" type="qcurve" smooth="yes"/>
      <point x="35" y="683"/>
      <point x="46" y="683" type="qcurve" smooth="yes"/>
      <point x="221" y="683" type="line" smooth="yes"/>
      <point x="226" y="683"/>
      <point x="228" y="678"/>
      <point x="224" y="675" type="qcurve" smooth="yes"/>
      <point x="202" y="656"/>
      <point x="202" y="592" type="qcurve" smooth="yes"/>
      <point x="202" y="469" type="line"/>
      <point x="320" y="520" type="line"/>
      <point x="320" y="401" type="line"/>
      <point x="202" y="350" type="line"/>
      <point x="202" y="137" type="line"/>
      <point x="338" y="137" type="line" smooth="yes"/>
      <point x="403" y="137"/>
      <point x="421" y="159" type="qcurve" smooth="yes"/>
      <point x="424" y="162"/>
      <point x="430" y="161"/>
      <point x="430" y="156" type="qcurve" smooth="yes"/>
      <point x="430" y="91" type="line" smooth="yes"/>
      <point x="430" y="27"/>
      <point x="452" y="8" type="qcurve" smooth="yes"/>
      <point x="455" y="6"/>
      <point x="454" y="0"/>
      <point x="449" y="0" type="qcurve" smooth="yes"/>
      <point x="45" y="0" type="line"/>
      <point x="35" y="2"/>
      <point x="43" y="8" type="qcurve" smooth="yes"/>
      <point x="65" y="27"/>
      <point x="65" y="91" type="qcurve" smooth="yes"/>
      <point x="65" y="292" type="line"/>
    </contour>
  </outline>
</glyph>
<glyph name="ohungarumlaut" format="2">
  <advance width="553"/>
  <unicode hex="0151"/>
  <outline>
    <contour>
      <point x="297" y="677" type="line" smooth="yes"/>
      <point x="344" y="677"/>
      <point x="427" y="641"/>
      <point x="489" y="579"/>
      <point x="525" y="496"/>
      <point x="525" y="449" type="qcurve" smooth="yes"/>
      <point x="525" y="221" type="line" smooth="yes"/>
      <point x="525" y="174"/>
      <point x="489" y="91"/>
      <point x="427" y="29"/>
      <point x="344" y="-6"/>
      <point x="297" y="-6" type="qcurve" smooth="yes"/>
      <point x="252" y="-6" type="line" smooth="yes"/>
      <point x="205" y="-6"/>
      <point x="122" y="29"/>
      <point x="60" y="91"/>
      <point x="24" y="174"/>
      <point x="24" y="221" type="qcurve" smooth="yes"/>
      <point x="24" y="449" type="line" smooth="yes"/>
      <point x="24" y="496"/>
      <point x="60" y="579"/>
      <point x="122" y="641"/>
      <point x="205" y="677"/>
      <point x="252" y="677" type="qcurve" smooth="yes"/>
    </contour>
    <contour>
      <point x="297" y="130" type="line" smooth="yes"/>
      <point x="335" y="130"/>
      <point x="388" y="183"/>
      <point x="388" y="221" type="qcurve" smooth="yes"/>
      <point x="388" y="449" type="line" smooth="yes"/>
      <point x="388" y="487"/>
      <point x="335" y="540"/>
      <point x="297" y="540" type="qcurve" smooth="yes"/>
      <point x="252" y="540" type="line" smooth="yes"/>
      <point x="233" y="540"/>
      <point x="200" y="526"/>
      <point x="175" y="501"/>
      <point x="161" y="468"/>
      <point x="161" y="449" type="qcurve" smooth="yes"/>
      <point x="161" y="221" type="line" smooth="yes"/>
      <point x="161" y="202"/>
      <point x="175" y="169"/>
      <point x="200" y="144"/>
      <point x="233" y="130"/>
      <point x="252" y="130" type="qcurve" smooth="yes"/>
    </contour>
    <contour>
      <point x="86" y="729" type="line"/>
      <point x="150" y="852" type="line"/>
      <point x="285" y="852" type="line"/>
      <point x="218" y="729" type="line"/>
    </contour>
    <contour>
      <point x="285" y="729" type="line"/>
      <point x="349" y="852" type="line"/>
      <point x="485" y="852" type="line"/>
      <point x="418" y="729" type="line"/>
    </contour>
  </outline>
</glyph>
<glyph name="OE" format="2">
  <advance width="886"/>
  <unicode hex="0152"/>
  <outline>
    <contour>
      <point x="844" y="91" type="line" smooth="yes"/>
      <point x="844" y="26"/>
      <point x="866" y="7" type="qcurve" smooth="yes"/>
      <point x="869" y="5"/>
      <point x="868" y="0"/>
      <point x="863" y="0" type="qcurve" smooth="yes"/>
      <point x="252" y="0" type="line" smooth="yes"/>
      <point x="205" y="0"/>
      <point x="122" y="35"/>
      <point x="60" y="97"/>
      <point x="24" y="180"/>
      <point x="24" y="227" type="qcurve" smooth="yes"/>
      <point x="24" y="455" type="line" smooth="yes"/>
      <point x="24" y="502"/>
      <point x="60" y="585"/>
      <point x="122" y="647"/>
      <point x="205" y="683"/>
      <point x="252" y="683" type="qcurve" smooth="yes"/>
      <point x="863" y="683" type="line" smooth="yes"/>
      <point x="868" y="683"/>
      <point x="869" y="677"/>
      <point x="866" y="675" type="qcurve" smooth="yes"/>
      <point x="844" y="656"/>
      <point x="844" y="592" type="qcurve" smooth="yes"/>
      <point x="844" y="526" type="line" smooth="yes"/>
      <point x="844" y="522"/>
      <point x="838" y="520"/>
      <point x="836" y="524" type="qcurve"/>
      <point x="817" y="546"/>
      <point x="753" y="546" type="qcurve" smooth="yes"/>
      <point x="525" y="546" type="line"/>
      <point x="525" y="410" type="line"/>
      <point x="662" y="410" type="line" smooth="yes"/>
      <point x="726" y="410"/>
      <point x="745" y="432" type="qcurve" smooth="yes"/>
      <point x="747" y="435"/>
      <point x="753" y="433"/>
      <point x="753" y="429" type="qcurve" smooth="yes"/>
      <point x="753" y="253" type="line" smooth="yes"/>
      <point x="753" y="249"/>
      <point x="747" y="247"/>
      <point x="745" y="250" type="qcurve" smooth="yes"/>
      <point x="725" y="273"/>
      <point x="662" y="273" type="qcurve" smooth="yes"/>
      <point x="525" y="273" type="line"/>
      <point x="525" y="136" type="line"/>
      <point x="753" y="136" type="line" smooth="yes"/>
      <point x="816" y="136"/>
      <point x="836" y="159" type="qcurve" smooth="yes"/>
      <point x="838" y="162"/>
      <point x="844" y="160"/>
      <point x="844" y="156" type="qcurve" smooth="yes"/>
    </contour>
    <contour>
      <point x="297" y="136" type="line" smooth="yes"/>
      <point x="335" y="136"/>
      <point x="388" y="189"/>
      <point x="388" y="227" type="qcurve" smooth="yes"/>
      <point x="388" y="455" type="line" smooth="yes"/>
      <point x="388" y="493"/>
      <point x="335" y="546"/>
      <point x="297" y="546" type="qcurve" smooth="yes"/>
      <point x="252" y="546" type="line" smooth="yes"/>
      <point x="233" y="546"/>
      <point x="200" y="532"/>
      <point x="175" y="507"/>
      <point x="161" y="474"/>
      <point x="161" y="455" type="qcurve" smooth="yes"/>
      <point x="161" y="227" type="line" smooth="yes"/>
      <point x="161" y="208"/>
      <point x="175" y="175"/>
      <point x="200" y="150"/>
      <point x="233" y="136"/>
      <point x="252" y="136" type="qcurve" smooth="yes"/>
    </contour>
  </outline>
</glyph>
<glyph name="uni021B" format="2">
  <advance width="530"/>
  <unicode hex="021B"/>
  <outline>
    <contour>
      <point x="512" y="683" type="line" smooth="yes"/>
      <point x="516" y="683"/>
      <point x="518" y="678"/>
      <point x="514" y="675" type="qcurve" smooth="yes"/>
      <point x="509" y="670"/>
      <point x="501" y="654"/>
      <point x="495" y="625"/>
      <point x="492" y="580"/>
      <point x="492" y="547" type="qcurve" smooth="yes"/>
      <point x="492" y="527" type="line" smooth="yes"/>
      <point x="492" y="523"/>
      <point x="486" y="521"/>
      <point x="484" y="524" type="qcurve" smooth="yes"/>
      <point x="464" y="547"/>
      <point x="401" y="547" type="qcurve" smooth="yes"/>
      <point x="332" y="547" type="line"/>
      <point x="332" y="91" type="line" smooth="yes"/>
      <point x="332" y="27"/>
      <point x="354" y="8" type="qcurve" smooth="yes"/>
      <point x="357" y="6"/>
      <point x="356" y="0"/>
      <point x="351" y="0" type="qcurve" smooth="yes"/>
      <point x="175" y="0" type="line" smooth="yes"/>
      <point x="171" y="0"/>
      <point x="169" y="6"/>
      <point x="173" y="8" type="qcurve"/>
      <point x="195" y="28"/>
      <point x="195" y="91" type="qcurve" smooth="yes"/>
      <point x="195" y="547" type="line"/>
      <point x="126" y="547" type="line" smooth="yes"/>
      <point x="61" y="547"/>
      <point x="43" y="524" type="qcurve" smooth="yes"/>
      <point x="40" y="521"/>
      <point x="35" y="523"/>
      <point x="35" y="527" type="qcurve" smooth="yes"/>
      <point x="35" y="592" type="line" smooth="yes"/>
      <point x="35" y="655"/>
      <point x="12" y="675" type="qcurve" smooth="yes"/>
      <point x="9" y="678"/>
      <point x="11" y="683"/>
      <point x="15" y="683" type="qcurve" smooth="yes"/>
    </contour>
    <contour>
      <point x="259" y="-38" type="qcurve" smooth="yes"/>
      <point x="277" y="-34"/>
      <point x="310" y="-44"/>
      <point x="334" y="-67"/>
      <point x="344" y="-100"/>
      <point x="340" y="-118" type="qcurve"/>
      <point x="333" y="-164"/>
      <point x="296" y="-230"/>
      <point x="254" y="-253" type="qcurve"/>
      <point x="240" y="-249"/>
      <point x="227" y="-239" type="qcurve" smooth="yes"/>
      <point x="223" y="-236"/>
      <point x="226" y="-233" type="qcurve" smooth="yes"/>
      <point x="239" y="-218"/>
      <point x="248" y="-180"/>
      <point x="226" y="-148" type="qcurve"/>
      <point x="213" y="-134"/>
      <point x="207" y="-99"/>
      <point x="216" y="-68"/>
      <point x="241" y="-43"/>
    </contour>
  </outline>
</glyph>
<glyph name="circumflex" format="2">
  <advance width="443"/>
  <unicode hex="02C6"/>
  <outline>
    <contour>
      <point x="105" y="862" type="line"/>
      <point x="330" y="862" type="line"/>
      <point x="397" y="739" type="line"/>
      <point x="262" y="739" type="line"/>
      <point x="217" y="821" type="line"/>
      <point x="173" y="739" type="line"/>
      <point x="38" y="739" type="line"/>
    </contour>
  </outline>
</glyph>
<glyph name="caron" format="2">
  <advance width="443"/>
  <unicode hex="02C7"/>
  <outline>
    <contour>
      <point x="38" y="862" type="line"/>
      <point x="173" y="862" type="line"/>
      <point x="217" y="780" type="line"/>
      <point x="262" y="862" type="line"/>
      <point x="397" y="862" type="line"/>
      <point x="330" y="739" type="line"/>
      <point x="105" y="739" type="line"/>
    </contour>
  </outline>
</glyph>
<glyph name="breve" format="2">
  <advance width="293"/>
  <unicode hex="02D8"/>
  <outline>
    <contour>
      <point x="62" y="733" type="line"/>
      <point x="43" y="743"/>
      <point x="26" y="784"/>
      <point x="23" y="804" type="qcurve" smooth="yes"/>
      <point x="19" y="828"/>
      <point x="20" y="855" type="qcurve"/>
      <point x="101" y="855" type="line"/>
      <point x="102" y="823"/>
      <point x="110" y="803"/>
      <point x="121" y="800" type="qcurve"/>
      <point x="168" y="800" type="line"/>
      <point x="180" y="803"/>
      <point x="187" y="823"/>
      <point x="188" y="855" type="qcurve"/>
      <point x="270" y="855" type="line"/>
      <point x="271" y="828"/>
      <point x="267" y="804" type="qcurve" smooth="yes"/>
      <point x="263" y="784"/>
      <point x="245" y="743"/>
      <point x="227" y="733" type="qcurve"/>
      <point x="228" y="733" type="line"/>
      <point x="212" y="722"/>
      <point x="167" y="715"/>
      <point x="145" y="715" type="qcurve" smooth="yes"/>
      <point x="123" y="715"/>
      <point x="78" y="722"/>
      <point x="61" y="733" type="qcurve"/>
    </contour>
  </outline>
</glyph>
<glyph name="dotaccent" format="2">
  <advance width="198"/>
  <unicode hex="02D9"/>
  <outline>
    <contour>
      <point x="101" y="876" type="qcurve" smooth="yes"/>
      <point x="132" y="876"/>
      <point x="177" y="831"/>
      <point x="177" y="800" type="qcurve" smooth="yes"/>
      <point x="177" y="769"/>
      <point x="132" y="724"/>
      <point x="101" y="724" type="qcurve" smooth="yes"/>
      <point x="69" y="724"/>
      <point x="25" y="769"/>
      <point x="25" y="800" type="qcurve" smooth="yes"/>
      <point x="25" y="831"/>
      <point x="69" y="876"/>
    </contour>
  </outline>
</glyph>
<glyph name="ring" format="2">
  <advance width="228"/>
  <unicode hex="02DA"/>
  <outline>
    <contour>
      <point x="111" y="714" type="qcurve" smooth="yes"/>
      <point x="93" y="714"/>
      <point x="60" y="727"/>
      <point x="36" y="750"/>
      <point x="22" y="781"/>
      <point x="22" y="799" type="qcurve" smooth="yes"/>
      <point x="22" y="817"/>
      <point x="36" y="848"/>
      <point x="60" y="871"/>
      <point x="93" y="885"/>
      <point x="111" y="885" type="qcurve" smooth="yes"/>
      <point x="129" y="885"/>
      <point x="162" y="871"/>
      <point x="186" y="848"/>
      <point x="200" y="817"/>
      <point x="200" y="799" type="qcurve" smooth="yes"/>
      <point x="200" y="781"/>
      <point x="186" y="750"/>
      <point x="162" y="727"/>
      <point x="129" y="714"/>
    </contour>
    <contour>
      <point x="111" y="827" type="qcurve" smooth="yes"/>
      <point x="98" y="827"/>
      <point x="82" y="811"/>
      <point x="82" y="799" type="qcurve" smooth="yes"/>
      <point x="82" y="788"/>
      <point x="98" y="771"/>
      <point x="111" y="771" type="qcurve" smooth="yes"/>
      <point x="123" y="771"/>
      <point x="140" y="788"/>
      <point x="140" y="799" type="qcurve" smooth="yes"/>
      <point x="140" y="811"/>
      <point x="123" y="827"/>
    </contour>
  </outline>
</glyph>
<glyph name="ogonek" format="2">
  <advance width="375"/>
  <unicode hex="02DB"/>
  <outline>
    <contour>
      <point x="220" y="0" type="line"/>
      <point x="217" y="-8"/>
      <point x="211" y="-33"/>
      <point x="211" y="-41" type="qcurve" smooth="yes"/>
      <point x="211" y="-67"/>
      <point x="220" y="-92"/>
      <point x="238" y="-101"/>
      <point x="263" y="-99"/>
      <point x="279" y="-99" type="qcurve" smooth="yes"/>
      <point x="286" y="-99"/>
      <point x="298" y="-97"/>
      <point x="304" y="-95" type="qcurve"/>
      <point x="316" y="-146" type="line"/>
      <point x="296" y="-160"/>
      <point x="245" y="-176"/>
      <point x="220" y="-176" type="qcurve" smooth="yes"/>
      <point x="178" y="-176"/>
      <point x="123" y="-130"/>
      <point x="123" y="-86" type="qcurve" smooth="yes"/>
      <point x="123" y="-63"/>
      <point x="140" y="-20"/>
      <point x="153" y="0" type="qcurve"/>
    </contour>
  </outline>
</glyph>
<glyph name="tilde" format="2">
  <advance width="406"/>
  <unicode hex="02DC"/>
  <outline>
    <contour>
      <point x="393" y="869" type="line"/>
      <point x="393" y="850" type="line"/>
      <point x="393" y="849"/>
      <point x="389" y="814"/>
      <point x="381" y="794" type="qcurve" smooth="yes"/>
      <point x="370" y="765"/>
      <point x="330" y="732"/>
      <point x="302" y="732" type="qcurve" smooth="yes"/>
      <point x="294" y="732"/>
      <point x="280" y="735"/>
      <point x="272" y="737" type="qcurve" smooth="yes"/>
      <point x="250" y="742"/>
      <point x="216" y="752"/>
      <point x="186" y="761"/>
      <point x="158" y="771"/>
      <point x="142" y="777" type="qcurve"/>
      <point x="140" y="777"/>
      <point x="138" y="778" type="qcurve"/>
      <point x="136" y="778"/>
      <point x="133" y="779"/>
      <point x="131" y="779" type="qcurve"/>
      <point x="114" y="779"/>
      <point x="114" y="749" type="qcurve" smooth="yes"/>
      <point x="114" y="731" type="line"/>
      <point x="30" y="731" type="line"/>
      <point x="30" y="749" type="line"/>
      <point x="30" y="750"/>
      <point x="32" y="785"/>
      <point x="40" y="805" type="qcurve" smooth="yes"/>
      <point x="63" y="867"/>
      <point x="120" y="867" type="qcurve" smooth="yes"/>
      <point x="127" y="867"/>
      <point x="141" y="865"/>
      <point x="149" y="863" type="qcurve" smooth="yes"/>
      <point x="172" y="857"/>
      <point x="208" y="846"/>
      <point x="238" y="836"/>
      <point x="266" y="827"/>
      <point x="281" y="822" type="qcurve"/>
      <point x="282" y="821"/>
      <point x="284" y="821" type="qcurve"/>
      <point x="291" y="821" type="line" smooth="yes"/>
      <point x="308" y="821"/>
      <point x="308" y="850" type="qcurve" smooth="yes"/>
      <point x="308" y="869" type="line"/>
    </contour>
  </outline>
</glyph>
<glyph name="hungarumlaut" format="2">
  <advance width="480"/>
  <unicode hex="02DD"/>
  <outline>
    <contour>
      <point x="48" y="729" type="line"/>
      <point x="112" y="852" type="line"/>
      <point x="247" y="852" type="line"/>
      <point x="180" y="729" type="line"/>
    </contour>
    <contour>
      <point x="247" y="729" type="line"/>
      <point x="311" y="852" type="line"/>
      <point x="447" y="852" type="line"/>
      <point x="380" y="729" type="line"/>
    </contour>
  </outline>
</glyph>
<glyph name="quoteleft" format="2">
  <advance width="167"/>
  <unicode hex="2018"/>
  <outline>
    <contour>
      <point x="100" y="470" type="qcurve" smooth="yes"/>
      <point x="82" y="466"/>
      <point x="49" y="476"/>
      <point x="25" y="499"/>
      <point x="15" y="532"/>
      <point x="19" y="550" type="qcurve"/>
      <point x="26" y="596"/>
      <point x="63" y="662"/>
      <point x="105" y="685" type="qcurve"/>
      <point x="119" y="681"/>
      <point x="132" y="671" type="qcurve" smooth="yes"/>
      <point x="136" y="668"/>
      <point x="133" y="665" type="qcurve" smooth="yes"/>
      <point x="120" y="650"/>
      <point x="111" y="612"/>
      <point x="133" y="580" type="qcurve"/>
      <point x="146" y="566"/>
      <point x="152" y="531"/>
      <point x="143" y="500"/>
      <point x="118" y="475"/>
    </contour>
  </outline>
</glyph>
<glyph name="quoteright" format="2">
  <advance width="167"/>
  <unicode hex="2019"/>
  <outline>
    <contour>
      <point x="67" y="681" type="qcurve" smooth="yes"/>
      <point x="85" y="685"/>
      <point x="118" y="675"/>
      <point x="142" y="652"/>
      <point x="152" y="619"/>
      <point x="148" y="601" type="qcurve"/>
      <point x="141" y="555"/>
      <point x="104" y="489"/>
      <point x="62" y="466" type="qcurve"/>
      <point x="48" y="470"/>
      <point x="35" y="480" type="qcurve" smooth="yes"/>
      <point x="31" y="483"/>
      <point x="34" y="486" type="qcurve" smooth="yes"/>
      <point x="47" y="501"/>
      <point x="56" y="539"/>
      <point x="34" y="571" type="qcurve"/>
      <point x="21" y="585"/>
      <point x="15" y="620"/>
      <point x="24" y="651"/>
      <point x="49" y="676"/>
    </contour>
  </outline>
</glyph>
<glyph name="quotesinglbase" format="2">
  <advance width="186"/>
  <unicode hex="201A"/>
  <outline>
    <contour>
      <point x="67" y="132" type="qcurve" smooth="yes"/>
      <point x="85" y="136"/>
      <point x="118" y="126"/>
      <point x="142" y="103"/>
      <point x="152" y="70"/>
      <point x="148" y="52" type="qcurve"/>
      <point x="141" y="6"/>
      <point x="104" y="-60"/>
      <point x="62" y="-83" type="qcurve"/>
      <point x="48" y="-79"/>
      <point x="35" y="-69" type="qcurve" smooth="yes"/>
      <point x="31" y="-66"/>
      <point x="34" y="-63" type="qcurve" smooth="yes"/>
      <point x="47" y="-48"/>
      <point x="56" y="-10"/>
      <point x="34" y="22" type="qcurve"/>
      <point x="21" y="36"/>
      <point x="15" y="71"/>
      <point x="24" y="102"/>
      <point x="49" y="127"/>
    </contour>
  </outline>
</glyph>
<glyph name="quotedblleft" format="2">
  <advance width="333"/>
  <unicode hex="201C"/>
  <outline>
    <contour>
      <point x="259" y="470" type="qcurve" smooth="yes"/>
      <point x="241" y="466"/>
      <point x="208" y="476"/>
      <point x="184" y="499"/>
      <point x="174" y="532"/>
      <point x="178" y="550" type="qcurve"/>
      <point x="185" y="596"/>
      <point x="222" y="662"/>
      <point x="264" y="685" type="qcurve"/>
      <point x="278" y="681"/>
      <point x="291" y="671" type="qcurve" smooth="yes"/>
      <point x="295" y="668"/>
      <point x="292" y="665" type="qcurve" smooth="yes"/>
      <point x="279" y="650"/>
      <point x="270" y="612"/>
      <point x="292" y="580" type="qcurve"/>
      <point x="305" y="566"/>
      <point x="311" y="531"/>
      <point x="302" y="500"/>
      <point x="277" y="475"/>
    </contour>
    <contour>
      <point x="100" y="470" type="qcurve" smooth="yes"/>
      <point x="82" y="466"/>
      <point x="49" y="476"/>
      <point x="25" y="499"/>
      <point x="15" y="532"/>
      <point x="19" y="550" type="qcurve"/>
      <point x="26" y="596"/>
      <point x="63" y="662"/>
      <point x="105" y="685" type="qcurve"/>
      <point x="119" y="681"/>
      <point x="132" y="671" type="qcurve" smooth="yes"/>
      <point x="136" y="668"/>
      <point x="133" y="665" type="qcurve" smooth="yes"/>
      <point x="120" y="650"/>
      <point x="111" y="612"/>
      <point x="133" y="580" type="qcurve"/>
      <point x="146" y="566"/>
      <point x="152" y="531"/>
      <point x="143" y="500"/>
      <point x="118" y="475"/>
    </contour>
  </outline>
</glyph>
<glyph name="quotedblright" format="2">
  <advance width="333"/>
  <unicode hex="201D"/>
  <outline>
    <contour>
      <point x="67" y="681" type="qcurve" smooth="yes"/>
      <point x="85" y="685"/>
      <point x="118" y="675"/>
      <point x="142" y="652"/>
      <point x="152" y="619"/>
      <point x="148" y="601" type="qcurve"/>
      <point x="141" y="555"/>
      <point x="104" y="489"/>
      <point x="62" y="466" type="qcurve"/>
      <point x="48" y="470"/>
      <point x="35" y="480" type="qcurve" smooth="yes"/>
      <point x="31" y="483"/>
      <point x="34" y="486" type="qcurve" smooth="yes"/>
      <point x="47" y="501"/>
      <point x="56" y="539"/>
      <point x="34" y="571" type="qcurve"/>
      <point x="21" y="585"/>
      <point x="15" y="620"/>
      <point x="24" y="651"/>
      <point x="49" y="676"/>
    </contour>
    <contour>
      <point x="226" y="681" type="qcurve" smooth="yes"/>
      <point x="244" y="685"/>
      <point x="277" y="675"/>
      <point x="301" y="652"/>
      <point x="311" y="619"/>
      <point x="307" y="601" type="qcurve"/>
      <point x="300" y="555"/>
      <point x="263" y="489"/>
      <point x="221" y="466" type="qcurve"/>
      <point x="207" y="470"/>
      <point x="194" y="480" type="qcurve" smooth="yes"/>
      <point x="190" y="483"/>
      <point x="193" y="486" type="qcurve" smooth="yes"/>
      <point x="206" y="501"/>
      <point x="215" y="539"/>
      <point x="193" y="571" type="qcurve"/>
      <point x="180" y="585"/>
      <point x="174" y="620"/>
      <point x="183" y="651"/>
      <point x="208" y="676"/>
    </contour>
  </outline>
</glyph>
<glyph name="dagger" format="2">
  <advance width="418"/>
  <unicode hex="2020"/>
  <outline>
    <contour>
      <point x="13" y="288" type="line"/>
      <point x="13" y="392" type="line"/>
      <point x="152" y="392" type="line"/>
      <point x="152" y="796" type="line"/>
      <point x="256" y="796" type="line"/>
      <point x="256" y="392" type="line"/>
      <point x="399" y="392" type="line"/>
      <point x="399" y="288" type="line"/>
      <point x="256" y="288" type="line"/>
      <point x="256" y="-132" type="line"/>
      <point x="152" y="-132" type="line"/>
      <point x="152" y="288" type="line"/>
    </contour>
  </outline>
</glyph>
<glyph name="daggerdbl" format="2">
  <advance width="364"/>
  <unicode hex="2021"/>
  <outline>
    <contour>
      <point x="20" y="204" type="line"/>
      <point x="20" y="308" type="line"/>
      <point x="128" y="308" type="line"/>
      <point x="128" y="374" type="line"/>
      <point x="20" y="374" type="line"/>
      <point x="20" y="478" type="line"/>
      <point x="128" y="478" type="line"/>
      <point x="128" y="796" type="line"/>
      <point x="232" y="796" type="line"/>
      <point x="232" y="478" type="line"/>
      <point x="341" y="478" type="line"/>
      <point x="341" y="374" type="line"/>
      <point x="232" y="374" type="line"/>
      <point x="232" y="308" type="line"/>
      <point x="341" y="308" type="line"/>
      <point x="341" y="204" type="line"/>
      <point x="232" y="204" type="line"/>
      <point x="232" y="-132" type="line"/>
      <point x="128" y="-132" type="line"/>
      <point x="128" y="204" type="line"/>
    </contour>
  </outline>
</glyph>
<glyph name="bullet" format="2">
  <advance width="237"/>
  <unicode hex="2022"/>
  <outline>
    <contour>
      <point x="27" y="355" type="qcurve" smooth="yes"/>
      <point x="27" y="393"/>
      <point x="79" y="445"/>
      <point x="117" y="445" type="qcurve" smooth="yes"/>
      <point x="155" y="445"/>
      <point x="207" y="393"/>
      <point x="207" y="355" type="qcurve" smooth="yes"/>
      <point x="207" y="317"/>
      <point x="155" y="265"/>
      <point x="117" y="265" type="qcurve" smooth="yes"/>
      <point x="79" y="265"/>
      <point x="27" y="317"/>
    </contour>
  </outline>
</glyph>
<glyph name="Euro" format="2">
  <advance width="597"/>
  <unicode hex="20AC"/>
  <outline>
    <contour>
      <point x="24" y="219" type="line"/>
      <point x="24" y="323" type="line"/>
      <point x="75" y="323" type="line"/>
      <point x="75" y="353" type="line"/>
      <point x="24" y="353" type="line"/>
      <point x="24" y="457" type="line"/>
      <point x="75" y="457" type="line"/>
      <point x="75" y="503"/>
      <point x="110" y="586"/>
      <point x="172" y="648"/>
      <point x="255" y="684"/>
      <point x="302" y="684" type="qcurve" smooth="yes"/>
      <point x="348" y="684" type="line" smooth="yes"/>
      <point x="395" y="684"/>
      <point x="478" y="648"/>
      <point x="540" y="586"/>
      <point x="576" y="503"/>
      <point x="576" y="456" type="qcurve"/>
      <point x="414" y="456" type="line" smooth="yes"/>
      <point x="406" y="456"/>
      <point x="411" y="463" type="qcurve" smooth="yes"/>
      <point x="428" y="486"/>
      <point x="409" y="519" type="qcurve"/>
      <point x="405" y="524"/>
      <point x="397" y="533"/>
      <point x="391" y="536" type="qcurve" smooth="yes"/>
      <point x="372" y="547"/>
      <point x="348" y="547" type="qcurve" smooth="yes"/>
      <point x="302" y="547" type="line" smooth="yes"/>
      <point x="264" y="547"/>
      <point x="211" y="494"/>
      <point x="211" y="457" type="qcurve"/>
      <point x="317" y="457" type="line"/>
      <point x="317" y="353" type="line"/>
      <point x="211" y="353" type="line"/>
      <point x="211" y="323" type="line"/>
      <point x="317" y="323" type="line"/>
      <point x="317" y="219" type="line"/>
      <point x="211" y="219" type="line"/>
      <point x="214" y="186"/>
      <point x="237" y="163" type="qcurve" smooth="yes"/>
      <point x="264" y="137"/>
      <point x="302" y="137" type="qcurve" smooth="yes"/>
      <point x="348" y="137" type="line" smooth="yes"/>
      <point x="360" y="137"/>
      <point x="380" y="143"/>
      <point x="391" y="148" type="qcurve" smooth="yes"/>
      <point x="401" y="153"/>
      <point x="409" y="166" type="qcurve" smooth="yes"/>
      <point x="428" y="198"/>
      <point x="411" y="221" type="qcurve" smooth="yes"/>
      <point x="406" y="228"/>
      <point x="414" y="228" type="qcurve" smooth="yes"/>
      <point x="576" y="228" type="line"/>
      <point x="576" y="181"/>
      <point x="540" y="98"/>
      <point x="478" y="36"/>
      <point x="395" y="0"/>
      <point x="348" y="0" type="qcurve" smooth="yes"/>
      <point x="302" y="0" type="line" smooth="yes"/>
      <point x="255" y="0"/>
      <point x="172" y="36"/>
      <point x="110" y="98"/>
      <point x="92" y="139" type="qcurve" smooth="yes"/>
      <point x="76" y="177"/>
      <point x="75" y="219" type="qcurve"/>
    </contour>
  </outline>
</glyph>
<glyph name="trademark" format="2">
  <advance width="537"/>
  <unicode hex="2122"/>
  <outline>
    <contour>
      <point x="488" y="442" type="line" smooth="yes"/>
      <point x="488" y="416"/>
      <point x="498" y="408" type="qcurve"/>
      <point x="501" y="404"/>
      <point x="496" y="404" type="qcurve" smooth="yes"/>
      <point x="424" y="404" type="line"/>
      <point x="423" y="404"/>
      <point x="422" y="406"/>
      <point x="423" y="408" type="qcurve"/>
      <point x="433" y="416"/>
      <point x="433" y="442" type="qcurve" smooth="yes"/>
      <point x="433" y="514" type="line"/>
      <point x="400" y="435" type="line" smooth="yes"/>
      <point x="393" y="417"/>
      <point x="397" y="407" type="qcurve" smooth="yes"/>
      <point x="398" y="404"/>
      <point x="396" y="404" type="qcurve"/>
      <point x="340" y="404" type="line" smooth="yes"/>
      <point x="337" y="404"/>
      <point x="338" y="407" type="qcurve" smooth="yes"/>
      <point x="343" y="416"/>
      <point x="335" y="435" type="qcurve" smooth="yes"/>
      <point x="302" y="515" type="line"/>
      <point x="302" y="442" type="line" smooth="yes"/>
      <point x="302" y="415"/>
      <point x="312" y="408" type="qcurve"/>
      <point x="313" y="406"/>
      <point x="312" y="404"/>
      <point x="311" y="404" type="qcurve"/>
      <point x="239" y="404" type="line"/>
      <point x="237" y="404"/>
      <point x="236" y="406"/>
      <point x="238" y="408" type="qcurve" smooth="yes"/>
      <point x="247" y="415"/>
      <point x="247" y="442" type="qcurve" smooth="yes"/>
      <point x="247" y="646" type="line" smooth="yes"/>
      <point x="247" y="672"/>
      <point x="238" y="680" type="qcurve" smooth="yes"/>
      <point x="236" y="681"/>
      <point x="237" y="683"/>
      <point x="239" y="683" type="qcurve"/>
      <point x="311" y="683" type="line"/>
      <point x="312" y="683"/>
      <point x="313" y="681"/>
      <point x="312" y="680" type="qcurve"/>
      <point x="307" y="676"/>
      <point x="304" y="665" type="qcurve" smooth="yes"/>
      <point x="303" y="660"/>
      <point x="305" y="654" type="qcurve" smooth="yes"/>
      <point x="367" y="503" type="line"/>
      <point x="430" y="654" type="line" smooth="yes"/>
      <point x="432" y="660"/>
      <point x="431" y="665" type="qcurve" smooth="yes"/>
      <point x="429" y="675"/>
      <point x="423" y="680" type="qcurve"/>
      <point x="422" y="681"/>
      <point x="423" y="683"/>
      <point x="424" y="683" type="qcurve"/>
      <point x="496" y="683" type="line"/>
      <point x="498" y="683"/>
      <point x="499" y="681"/>
      <point x="498" y="680" type="qcurve"/>
      <point x="488" y="672"/>
      <point x="488" y="646" type="qcurve" smooth="yes"/>
    </contour>
    <contour>
      <point x="225" y="683" type="line"/>
      <point x="226" y="683"/>
      <point x="227" y="681"/>
      <point x="225" y="680" type="qcurve" smooth="yes"/>
      <point x="223" y="678"/>
      <point x="220" y="671"/>
      <point x="218" y="659"/>
      <point x="216" y="641"/>
      <point x="216" y="628" type="qcurve" smooth="yes"/>
      <point x="216" y="619" type="line"/>
      <point x="216" y="618"/>
      <point x="214" y="617"/>
      <point x="213" y="618" type="qcurve"/>
      <point x="205" y="628"/>
      <point x="179" y="628" type="qcurve" smooth="yes"/>
      <point x="151" y="628" type="line"/>
      <point x="151" y="442" type="line" smooth="yes"/>
      <point x="151" y="415"/>
      <point x="160" y="408" type="qcurve"/>
      <point x="161" y="407"/>
      <point x="161" y="404"/>
      <point x="159" y="404" type="qcurve"/>
      <point x="87" y="404" type="line"/>
      <point x="85" y="404"/>
      <point x="85" y="407"/>
      <point x="86" y="408" type="qcurve"/>
      <point x="95" y="416"/>
      <point x="95" y="442" type="qcurve" smooth="yes"/>
      <point x="95" y="628" type="line"/>
      <point x="67" y="628" type="line" smooth="yes"/>
      <point x="41" y="628"/>
      <point x="33" y="618" type="qcurve"/>
      <point x="32" y="617"/>
      <point x="30" y="618"/>
      <point x="30" y="619" type="qcurve"/>
      <point x="30" y="646" type="line" smooth="yes"/>
      <point x="30" y="672"/>
      <point x="21" y="680" type="qcurve" smooth="yes"/>
      <point x="19" y="681"/>
      <point x="20" y="683"/>
      <point x="22" y="683" type="qcurve"/>
    </contour>
  </outline>
</glyph>
<glyph name="minus" format="2">
  <advance width="378"/>
  <unicode hex="2212"/>
  <outline>
    <contour>
      <point x="32" y="288" type="line"/>
      <point x="32" y="392" type="line"/>
      <point x="353" y="392" type="line"/>
      <point x="353" y="288" type="line"/>
    </contour>
  </outline>
</glyph>
